<?xml version="1.0" standalone="no"?>
<!DOCTYPE svg PUBLIC "-//W3C//DTD SVG 1.1//EN" "http://www.w3.org/Graphics/SVG/1.1/DTD/svg11.dtd" >
<svg xmlns="http://www.w3.org/2000/svg" xmlns:xlink="http://www.w3.org/1999/xlink" version="1.1">
<metadata>
Created by FontForge 20201107 at Sun Jun 30 18:14:12 2024
 By 
All Rights Reserved. 2021. TanTypeCo.
</metadata>
<defs>
<font id="TAN-NIMBUS" horiz-adv-x="1556" >
  <font-face 
    font-family="TAN - NIMBUS"
    font-weight="400"
    font-stretch="normal"
    units-per-em="2048"
    panose-1="0 0 0 0 0 0 0 0 0 0"
    ascent="1638"
    descent="-410"
    x-height="1434"
    cap-height="2048"
    bbox="-78 -1202 2922 2529"
    underline-thickness="102"
    underline-position="-255"
    unicode-range="U+000D-2265"
  />
<missing-glyph horiz-adv-x="512" 
 />
    <glyph glyph-name=".notdef" horiz-adv-x="512" 
 />
    <glyph glyph-name="uni0000" horiz-adv-x="0" 
 />
    <glyph glyph-name="uni0000" horiz-adv-x="0" 
 />
    <glyph glyph-name="uni000D" unicode="&#xd;" horiz-adv-x="512" 
 />
    <glyph glyph-name="space" unicode=" " horiz-adv-x="716" 
 />
    <glyph glyph-name="exclam" unicode="!" horiz-adv-x="716" 
d="M41 1716q0 144 96 253q96 110 219 110q128 0 224 -110q96 -109 96 -253q0 -184 -45 -350q-42 -156 -116 -357q-70 -190 -103 -347q-12 -58 -54 -58q-41 0 -53 58q-35 151 -106 344q-72 194 -115 360q-43 165 -43 350zM358 -33q-112 0 -190 79q-78 80 -78 192
q0 110 78 188t190 78q111 0 189 -78t78 -188q0 -112 -78 -192q-78 -79 -189 -79z" />
    <glyph glyph-name="quotedbl" unicode="&#x22;" horiz-adv-x="1210" 
d="M256 1550q-94 18 -155 91q-60 72 -60 171q0 111 78 189t190 78q115 0 191 -87q75 -85 75 -239q0 -151 -93 -284q-93 -134 -238 -134q-20 0 -48 10q-26 9 -26 23q0 6 6 8q1 0 4.5 1t7.5 2l8 2q9 2 23 8q22 12 40 42q17 28 17 66q0 37 -20 53zM635 1812q0 111 78 189
t190 78q114 0 191 -87q75 -85 75 -239q0 -151 -93 -284q-93 -134 -238 -134q-20 0 -48 10q-26 9 -26 23q0 7 7 8q2 0 9 2t12 3q12 3 21 8q22 12 40 42q17 28 17 66q0 37 -20 53q-92 18 -154 92q-61 73 -61 170z" />
    <glyph glyph-name="numbersign" unicode="#" horiz-adv-x="1089" 
d="M709 356h249v-84h-270l-80 -303h-102l78 303h-195l-78 -303h-104l80 303h-246v84h268l76 295h-254v86h277l73 287h105l-76 -287h195l75 287h103l-74 -287h240v-86h-263zM412 356h194l76 295h-193z" />
    <glyph glyph-name="dollar" unicode="$" horiz-adv-x="1574" 
d="M713 -31q-259 0 -476 145t-217 326q0 57 103 137q100 78 221 133q118 54 172 52q48 -1 81 -34q31 -32 24 -87q-56 -417 196 -496v641q-59 18 -165 54q-69 24 -148 58q-78 34 -136 71q-50 32 -111 85q-56 48 -89 106q-32 55 -53 132q-21 76 -21 164q0 257 188 440t445 183
q29 0 90 -8v387h103v-412q181 -49 278 -49q79 0 152 41t94 41q66 0 45 -133q-24 -160 -129 -299q-101 -135 -209 -136q-109 0 -231 48v-234q7 0 13 -1t13 -1q259 -24 419 -182q159 -157 159 -393q0 -166 -61 -320q-60 -152 -200 -274q-142 -124 -343 -164v-400h-103v383
q-59 -4 -104 -4zM250 1614q0 -67 47 -119q48 -52 135 -82q90 -31 176 -48q89 -18 209 -30v271q-14 8 -80 42q-51 26 -89 43q-8 4 -34.5 14t-43.5 17q-47 20 -94 28q-41 7 -89 7q-57 0 -97 -42q-40 -41 -40 -101zM920 129q126 0 220 77q93 76 93 200q0 232 -313 346v-623z
" />
    <glyph glyph-name="percent" unicode="%" horiz-adv-x="1542" 
d="M444 1024q-181 0 -292 145t-111 383q0 236 111 381q111 146 292 146q182 0 293 -146q111 -145 111 -381q0 -238 -111 -383t-293 -145zM1100 -31q-182 0 -293 146t-111 383q0 238 111 382t293 144q180 0 291 -145q110 -144 110 -381q0 -239 -110 -383q-111 -146 -291 -146
zM362 2009q-93 0 -88 -244q5 -253 88 -483q69 -188 146 -188q107 0 113 229q6 230 -75 458t-184 228zM1016 954q-90 0 -88 -243q5 -254 88 -484q72 -187 145 -188q109 0 114 228q5 230 -76 458q-81 229 -183 229zM197 -31l1101 2110h56l-1102 -2110h-55z" />
    <glyph glyph-name="ampersand" unicode="&#x26;" horiz-adv-x="1980" 
d="M866 0q-160 0 -307 48t-264 135q-114 85 -185 225q-69 136 -69 303q0 178 125 294q124 115 319 115q113 0 254 -36q137 -35 234 -35q203 0 203 82q0 47 -88 47q-25 0 -155 -13q-120 -12 -194 -12q-236 0 -412 130q-177 131 -177 347q0 206 173 343q172 136 431 136
q73 0 242 -41q164 -40 264 -40q80 0 151 40q73 41 94 41q66 0 45 -133q-24 -160 -129 -299q-100 -133 -209 -135q-101 0 -217 40q-115 40 -204 88q-87 47 -199 88q-110 40 -203 40q-56 0 -96 -32q-39 -32 -39 -76q0 -58 80 -88q81 -31 200 -38q110 -7 260 -26
q134 -17 260 -47q121 -29 199 -104q80 -77 80 -195q0 -112 -105 -181t-274 -69q-52 0 -87 1q-16 0 -46 0.5t-43 1.5q-38 1 -84 0q-56 -2 -80 -4q-10 -1 -69 -8q-38 -5 -62 -15q-22 -10 -45 -26q-18 -13 -30 -38q-11 -24 -11 -51q0 -84 53 -148q52 -63 140 -97
q84 -33 184 -50q93 -16 199 -16q232 0 403 43q172 43 172 118q0 39 -61 39q-52 0 -229 -57t-293 -57q-64 0 -100 30t-36 82q0 60 71 101q70 41 171 69t201 66q102 38 171 116q70 79 70 197q0 40 -23 72t-51 49q-23 14 -51 35q-24 18 -24 35q0 44 155 125t222 81
q70 0 134 -77t64 -191q0 -117 -77 -210q-77 -94 -190 -153q-108 -57 -223 -102q-127 -50 -189 -76q-78 -33 -78 -55q0 -31 37 -31q29 0 134 42t193 42q96 0 156 -72q59 -71 59 -175q0 -260 -247 -419q-248 -159 -648 -159z" />
    <glyph glyph-name="quotesingle" unicode="'" horiz-adv-x="616" 
d="M41 1812q0 111 78 189t190 78q115 0 191 -87q75 -85 75 -239q0 -151 -93 -284q-93 -134 -238 -134q-20 0 -48 10q-26 9 -26 23q0 6 6 8q1 0 4.5 1t7.5 2l8 2q9 2 23 8q22 12 40 42q17 28 17 66q0 37 -20 53q-94 18 -155 91q-60 72 -60 171z" />
    <glyph glyph-name="parenleft" unicode="(" horiz-adv-x="710" 
d="M651 -430q-142 50 -252 176q-109 125 -176 282q-63 147 -108 342q-44 191 -59 346q-15 159 -15 308q0 152 16 305q16 157 60 343q44 187 109 340q66 155 176 283q110 127 249 183q8 5 16 -9t-3 -20q-91 -52 -156 -115q-69 -66 -118 -153q-50 -89 -83 -165
q-36 -82 -56 -190q-25 -131 -34 -192q-13 -84 -17 -203q-5 -125 -6 -190q-1 -44 -1 -188v-29v-29q0 -143 1 -187q2 -67 6 -191q4 -119 17 -203q9 -61 34 -192q21 -110 56 -191q33 -76 83 -165q47 -85 118 -152q65 -63 156 -115q11 -6 3 -20t-16 -9z" />
    <glyph glyph-name="parenright" unicode=")" horiz-adv-x="710" 
d="M47 2449q-11 6 -3 20q8 13 15 9q142 -50 252 -176q109 -125 176 -282q65 -152 109 -342q43 -184 58 -346q16 -170 16 -308q0 -143 -17 -305q-17 -164 -59 -343q-43 -182 -110 -340q-66 -155 -176 -283q-110 -127 -249 -183q-7 -4 -15 9q-8 14 3 20q91 52 156 115
q69 66 118 153q46 82 82 165q37 86 57 190q25 131 34 192q13 84 17 203q5 125 6 190q1 44 1 188v29v29q0 143 -1 187q-2 67 -6 191q-4 119 -17 203q-9 61 -34 192q-20 106 -57 191q-36 83 -82 165q-47 85 -118 152q-65 63 -156 115z" />
    <glyph glyph-name="asterisk" unicode="*" horiz-adv-x="542" 
d="M238 1835q-77 -14 -127 -14q-70 0 -70 28q0 29 65 29q43 0 132 -16q-127 93 -134 127q-4 13 5 22q30 33 149 -129q-38 197 12 197q53 0 15 -197q117 166 149 129q29 -32 -129 -149q89 16 131 16q66 0 66 -29q0 -28 -70 -28q-50 0 -127 14q163 -117 129 -149
q-35 -33 -149 131q35 -197 -15 -197q-47 0 -12 197q-91 -124 -125 -136q-14 -5 -24 5q-35 35 129 149z" />
    <glyph glyph-name="plus" unicode="+" horiz-adv-x="860" 
d="M379 922h-338v102h338v338h102v-338h338v-102h-338v-338h-102v338z" />
    <glyph glyph-name="comma" unicode="," horiz-adv-x="698" 
d="M82 238q0 110 78 188t190 78q114 0 191 -87q75 -85 75 -239q0 -150 -93 -283q-94 -135 -238 -135q-20 0 -48 10q-26 9 -26 23q0 7 6 8q1 0 4.5 1t7.5 2l8 2q9 2 23 8q22 12 40 42q17 28 17 66q0 37 -20 53q-93 18 -155 92q-60 72 -60 171z" />
    <glyph glyph-name="hyphen" unicode="-" horiz-adv-x="696" 
d="M41 1024h614v-102h-614v102z" />
    <glyph glyph-name="period" unicode="." horiz-adv-x="616" 
d="M41 238q0 110 78 188t190 78q111 0 189 -78q77 -77 77 -188q0 -114 -77 -191q-78 -78 -189 -78q-112 0 -190 78t-78 191z" />
    <glyph glyph-name="slash" unicode="/" horiz-adv-x="1239" 
d="M41 -31l1102 2110h55l-1102 -2110h-55z" />
    <glyph glyph-name="zero" unicode="0" horiz-adv-x="1816" 
d="M102 1024q0 474 222 765q221 290 585 290q361 0 583 -290q222 -289 222 -765t-222 -765q-222 -290 -583 -290q-364 0 -585 290q-222 291 -222 765zM743 1939q-151 0 -172 -346q-24 -364 88 -823q112 -456 267 -608q56 -53 108 -53q215 0 227 457q12 456 -151 916
q-162 457 -367 457z" />
    <glyph glyph-name="one" unicode="1" horiz-adv-x="768" 
d="M727 0h-686q72 72 72 242v1409v19v20v16q0 12 -1 16t-1 16q0 8 -2 14q0 1 -2 5l-3 6q-1 6 -5 11q-2 3 -7 8t-8 6q-41 23 -41 37q0 21 31 26q111 15 237 71q122 54 217 107q89 50 101 50q11 0 16 -4q7 -5 8 -18q2 -18 2 -20v-28v-7v-7v-1753q0 -170 72 -242z" />
    <glyph glyph-name="two" unicode="2" horiz-adv-x="1763" 
d="M82 1561q0 177 123 304t299 186q174 58 375 58q339 0 560 -178q222 -179 222 -489q0 -155 -49 -274q-49 -118 -132 -197q-81 -76 -191 -136q-114 -62 -227 -97q-117 -37 -239 -69q-74 -20 -226 -64q-109 -32 -190 -70q-83 -39 -133 -100q-49 -59 -49 -142q0 -59 30 -100
t87 -41q82 0 167 52q83 51 164 126q79 74 168 147t216 126q126 52 272 52q135 0 225 -74q93 -76 93 -169q0 -38 -95 -252q-8 -18 -22 -52q-3 -7 -10 -24t-9 -23t-14 -32q-7 -16 -16 -23q-8 -6 -19 -6q-14 0 -34 23q-1 1 -39 50q-21 27 -74 50q-51 22 -129 22
q-110 0 -324 -72q-217 -73 -364 -73q-188 0 -292 104q-106 106 -106 271q0 131 71 250t183 210q104 84 250 176q123 77 274 165q135 79 248 160q115 82 184 180q70 98 70 204q0 131 -114 206t-293 75t-301 -101q-123 -102 -123 -262q0 -91 68 -160q69 -71 149 -71
q37 -81 -49 -170q-85 -88 -232 -88q-167 0 -285 121t-118 291z" />
    <glyph glyph-name="three" unicode="3" horiz-adv-x="1763" 
d="M61 387q0 121 144 223q145 103 266 103q36 0 64 -25q26 -23 26 -59q0 -56 -27 -170q-28 -118 -28 -168q0 -86 39 -140q40 -55 110 -55q93 0 211 93t207 248q88 154 88 306q0 88 -61 140q-62 53 -152 53q-92 0 -230 -39t-214 -39q-88 0 -138 47q-51 48 -51 121
q0 88 67 158q66 69 173 113q108 44 235 83q85 26 257 78q124 37 235 86q107 47 173 119q67 73 67 166q0 40 -25 73q-24 31 -72 31q-46 0 -114 -40q-92 -54 -155 -96q-79 -53 -183 -111q-100 -56 -232 -96t-270 -40q-128 0 -222 49q-95 50 -95 125q0 104 70 237
q71 134 110 134q29 0 65 -20q34 -19 106 -41q69 -21 173 -21q134 0 336 48t336 48q120 0 199 -80t79 -202q0 -164 -80 -289q-79 -124 -193 -193q-116 -70 -227 -116q-64 -26 -192 -82q-80 -35 -80 -66q0 -43 57 -43q64 0 160 27t205 27q166 0 285 -108q118 -108 118 -277
q0 -146 -51 -266q-50 -118 -137 -200q-86 -82 -203 -137q-116 -55 -243 -79q-133 -25 -265 -25q-261 0 -491 117t-230 270z" />
    <glyph glyph-name="four" unicode="4" horiz-adv-x="1654" 
d="M291 414q-101 0 -165 51q-65 51 -65 145q0 115 44 249q40 121 98 239q55 111 97 276q44 171 44 355q0 108 -29 178q-28 68 -86 141h584q103 0 150 -72q47 -73 47 -172q0 -149 -84 -302q-81 -148 -203 -273q-115 -118 -238 -230q-118 -108 -202 -205q-84 -98 -84 -167
q0 -111 157 -111h580v465q0 170 -72 242h686q-71 -71 -71 -242v-465h176v-102h-176v-172q0 -171 71 -242h-686q72 72 72 242v172h-645z" />
    <glyph glyph-name="five" unicode="5" horiz-adv-x="1691" 
d="M707 0q-261 0 -463 142q-203 143 -203 307q0 130 155 241q154 111 291 111q56 0 90 -37q33 -36 35 -90q0 -44 -53 -173t-53 -212q0 -78 49 -136q50 -59 123 -59q98 0 173 63t115 167q40 103 58 218q18 114 18 234q0 88 -18 165t-58 142q-41 67 -112 104q-73 38 -166 38
q-97 0 -238 -43t-245 -43q-42 0 -68 22t-28 56q-6 110 71 315q31 80 88 247q52 152 72 206q23 64 40 78q19 16 81 16h1102q-23 -67 -84 -279q-5 -18 -12 -42q-3 -9 -6.5 -22.5t-4.5 -16.5q-2 -5 -5 -17.5t-5 -18.5q-6 -22 -10 -32q-9 -25 -10 -27q-3 -11 -10 -22
q-2 -2 -5 -7.5t-5 -8.5q-4 -7 -12 -10t-14 -3q-17 0 -39 13q-26 16 -44 31q-20 17 -67 31q-45 13 -104 13h-688q-49 0 -85 -33q-35 -32 -50 -64q-14 -29 -39 -100q-5 -11 -6 -16q-63 -174 10 -174q40 0 122 33q109 44 170 72q84 39 218 73q131 33 256 33q151 0 263 -50
q110 -49 173 -140t91 -196q28 -106 28 -239q0 -240 -123 -439t-325 -310q-203 -111 -434 -111z" />
    <glyph glyph-name="six" unicode="6" horiz-adv-x="1656" 
d="M102 969q0 510 271 826q269 314 665 314q149 0 303 -74q156 -75 156 -147q0 -19 -10 -45q-10 -25 -21 -46q-14 -26 -32 -56q-6 -10 -13 -21.5t-11.5 -18.5t-6.5 -11q-5 -10 -26 -45q-7 -11 -15.5 -27t-10.5 -20q-3 -4 -6.5 -9.5t-8 -12.5t-7.5 -11q-14 -21 -21 -27
q-10 -8 -18 -8q-11 0 -39 22q-48 38 -63 49q-33 25 -105 48q-67 22 -151 22q-127 0 -256 -66t-203 -149t-74 -135q0 -29 27 -29q14 0 72 44q60 46 153 88q97 44 207 44q319 0 517 -194q200 -195 200 -490q0 -365 -196 -575q-195 -209 -515 -209q-202 0 -352 75
q-149 75 -238 210q-88 134 -130 306q-42 171 -42 378zM238 754q0 -233 111 -377t296 -144t296 144q112 145 112 377q0 234 -112 379q-110 143 -296 143t-296 -143q-111 -144 -111 -379z" />
    <glyph glyph-name="seven" unicode="7" horiz-adv-x="1566" 
d="M96 1542q-37 0 -35 137v20v19v23v239q0 68 68 68h1165q139 0 172 -12q60 -24 60 -109q0 -105 -74 -241q-76 -139 -178 -275q-105 -139 -210 -288q-107 -152 -179 -326q-74 -180 -74 -346q0 -127 36 -219t124 -232h-574q-70 39 -98 129q-29 92 -29 182q0 151 70 302
q69 148 174 259q117 124 225 217q120 104 226 181q110 80 174 147q69 72 69 119q0 56 -29 75t-112 19h-733q-75 0 -122 -22q-49 -23 -73 -44q-25 -22 -43 -22z" />
    <glyph glyph-name="eight" unicode="8" horiz-adv-x="1757" 
d="M41 524q0 162 132 287q133 125 329 170q108 24 108 31q0 8 -5 13q-6 6 -16 7q-4 1 -11.5 2.5t-10.5 1.5q-13 2 -27 3q-17 1 -28 3q-169 22 -300 161q-130 137 -130 308q0 280 216 424t579 144t580 -144q218 -144 218 -424q0 -168 -129 -300t-301 -169q-2 0 -28 -5
q-4 -1 -27 -4q-14 -2 -22 -4q-12 -3 -16 -7q-5 -5 -5 -10q0 -7 108 -31q196 -45 329 -170q132 -125 132 -287q0 -146 -66 -255q-66 -110 -185 -173q-120 -64 -265 -95q-149 -32 -321 -32q-173 0 -322 32q-145 31 -265 95q-117 62 -184 173t-67 255zM879 1972
q-185 0 -273 -117q-88 -116 -88 -323q0 -196 107 -320q106 -122 254 -122t255 122t107 320q0 203 -89 322q-88 118 -273 118zM565 524q0 -201 86 -325q85 -123 228 -123q141 0 227 123q86 124 86 325q0 196 -86 321q-85 124 -227 124q-143 0 -228 -124q-86 -125 -86 -321z
" />
    <glyph glyph-name="nine" unicode="9" horiz-adv-x="1636" 
d="M82 1325q0 362 208 573t529 211q202 0 347 -74q148 -76 230 -211q84 -139 121 -304q37 -166 37 -379q0 -512 -270 -827q-269 -314 -665 -314q-148 0 -304 75q-155 75 -155 146q0 19 10 45q12 32 20 46q10 20 33 57q6 10 13 21.5t11.5 18.5t6.5 11q5 10 26 45
q7 11 15.5 26.5t10.5 19.5q6 10 22 34q13 19 21 26q11 9 18 9q10 0 39 -23q28 -23 63 -48q34 -25 104 -48q71 -23 152 -23q125 0 256 67t203 148q73 82 73 135q0 29 -26 29q-14 0 -72 -44q-60 -46 -153 -88q-97 -44 -207 -44q-317 0 -517 195t-200 489zM604 1356
q0 -234 112 -379q110 -143 296 -143t296 143q111 144 111 379q0 233 -111 377q-110 143 -296 143t-296 -143q-112 -145 -112 -377z" />
    <glyph glyph-name="colon" unicode=":" horiz-adv-x="616" 
d="M41 965q0 110 78 188t190 78q111 0 189 -78q77 -77 77 -188q0 -114 -77 -191q-78 -78 -189 -78q-112 0 -190 78t-78 191zM41 238q0 110 78 188t190 78q111 0 189 -78q77 -77 77 -188q0 -114 -77 -191q-78 -78 -189 -78q-112 0 -190 78t-78 191z" />
    <glyph glyph-name="semicolon" unicode=";" horiz-adv-x="616" 
d="M41 238q0 110 78 188t190 78q115 0 191 -87q75 -85 75 -239q0 -150 -93 -283q-94 -135 -238 -135q-20 0 -48 10q-26 9 -26 23q0 7 6 8q1 0 4.5 1t7.5 2l8 2q9 2 23 8q22 12 40 42q17 28 17 66q0 37 -20 53q-93 18 -155 92q-60 72 -60 171zM41 965q0 110 78 188t190 78
q111 0 189 -78q77 -77 77 -188q0 -114 -77 -191q-78 -78 -189 -78q-112 0 -190 78t-78 191z" />
    <glyph glyph-name="less" unicode="&#x3c;" horiz-adv-x="860" 
d="M41 807l778 217v-102l-602 -168l602 -166v-103l-778 215v107z" />
    <glyph glyph-name="equal" unicode="=" horiz-adv-x="860" 
d="M41 1024h778v-102h-778v102zM819 705h-778v102h778v-102z" />
    <glyph glyph-name="greater" unicode="&#x3e;" horiz-adv-x="860" 
d="M41 588l602 166l-602 168v102l778 -217v-107l-778 -215v103z" />
    <glyph glyph-name="question" unicode="?" horiz-adv-x="1601" 
d="M41 1608q0 201 228 336t536 135q190 0 362 -73q171 -72 282 -220q112 -148 112 -338q0 -120 -48 -219q-46 -95 -104 -153q-55 -55 -174 -107q-123 -53 -182 -71q-63 -19 -203 -54q-42 -12 -55 -15q-173 -45 -127 -202q4 -10 -4 -21q-7 -10 -21 -10q-75 0 -121 76
q-47 77 -47 172q0 104 69 187q68 81 165 142q81 50 193 123q96 62 166 161q69 97 69 224q0 111 -75 183q-74 71 -192 71q-97 0 -163 -59q-67 -60 -102 -159q-33 -95 -47 -196q-13 -94 -13 -202q0 -53 -27 -91t-61 -38q-52 0 -107 39q-128 88 -233 205q-48 53 -61 83
q-15 35 -15 91zM653 -31q-112 0 -190 78t-78 191q0 110 78 188t190 78q111 0 189 -78t78 -188q0 -113 -78 -191t-189 -78z" />
    <glyph glyph-name="at" unicode="@" horiz-adv-x="2314" 
d="M102 1055q0 284 142 529q141 243 384 384t529 141q287 0 530 -141t384 -384t141 -529q0 -287 -141 -530t-384 -384t-530 -141q-286 0 -529 141t-384 384q-142 245 -142 530zM180 1053q0 -401 287 -688t688 -287q259 0 479 126q224 128 353 337q3 3 8 13q11 22 17 32
q16 26 23 42q8 16 16 40q7 20 4 32q-3 13 -17 13q-16 0 -57 -39q-14 -13 -42.5 -41.5t-43.5 -42.5q-47 -46 -134 -81q-90 -36 -190 -32q-78 4 -141 32q-64 28 -94 64q-32 38 -52 74q-8 14 -19.5 35.5t-15.5 28.5q-14 26 -24 26q-20 0 -50 -36q-42 -50 -61 -78
q-28 -41 -94 -80q-62 -37 -143 -37q-147 0 -241 124q-95 125 -95 285q0 178 75 328q77 154 242 258q166 105 393 105q68 0 200 -13q121 -12 161 -12q-42 -43 -53 -122q-11 -83 -11 -267v-320q0 -107 43 -178t144 -71q114 0 208 91q95 92 141 217q46 126 36 238
q-30 359 -312 611q-280 250 -653 250q-260 0 -488 -132q-225 -131 -356 -356q-131 -226 -131 -489zM1145 1479q-105 0 -171 -147q-67 -149 -67 -300q0 -266 152 -266q71 0 113 109q42 108 42 219v370q-52 15 -69 15z" />
    <glyph glyph-name="A" unicode="A" horiz-adv-x="1841" 
d="M0 0q39 33 75 103q35 68 52 123q3 9 20.5 67t32.5 104q115 381 181 680q69 313 151 764q24 139 -45 207h907q-69 -68 -45 -207q82 -451 151 -764q66 -299 181 -680q15 -46 32.5 -104t20.5 -67q17 -55 52 -123q36 -70 75 -103h-846q74 85 74 223q0 116 -68 504h-301
q50 -122 71 -176q20 -52 47 -159q24 -95 24 -175q0 -88 -34 -152q-35 -65 -116 -65h-692zM661 819h322q-159 828 -305 828q-141 0 -141 -318q0 -202 124 -510z" />
    <glyph glyph-name="B" unicode="B" horiz-adv-x="1542" 
d="M92 1806q0 170 -72 242h881q281 0 430 -148q150 -148 150 -360q0 -193 -154 -355q-153 -161 -416 -161q-126 0 -323 44t-238 44q-47 0 -47 -33q0 -13 12 -25q11 -11 38 -22q24 -10 55 -18q41 -11 71 -16q45 -8 79 -12q63 -8 88 -10q19 -2 48 -4.5t38 -3.5q10 -1 39 -4
t48 -5q15 -1 42 -3.5t36 -3.5q604 -60 604 -506q0 -182 -145 -314q-146 -132 -355 -132h-981q72 72 72 242v1564zM752 1638q-215 0 -383 -84t-168 -204q0 -68 61 -107q62 -39 150 -39q246 0 400 90q155 90 155 193q0 63 -58 107t-157 44zM227 952q-24 0 -24 -22q0 -10 9 -28
q8 -15 27 -41q27 -36 32 -42q14 -17 41 -47q6 -6 36 -41q57 -67 97 -110q35 -37 102 -99t135 -90q69 -29 137 -29q83 0 124 46q40 44 40 100q0 177 -403 301q-7 2 -59 18.5t-80 25.5q-27 9 -62 20.5t-42 13.5q-18 6 -62 17q-28 7 -48 7z" />
    <glyph glyph-name="C" unicode="C" horiz-adv-x="1603" 
d="M881 -31q-361 0 -596 274q-234 273 -234 781q0 199 46 380q47 185 135 337q89 154 235 246t328 92q73 0 225 -41t246 -41q78 0 151 41t94 41q29 0 41 -28q13 -30 9 -72q-5 -47 -19 -95q-16 -54 -37 -102q-39 -89 -90 -156q-21 -27 -103 -115q-87 -94 -127 -158
q-44 -71 -44 -139q0 -52 33 -90q33 -37 86 -37q22 0 38 11q14 10 23 10q22 0 34 -37q11 -34 11 -76q0 -115 -98 -204q-100 -91 -228 -91q-124 0 -215 86q-90 86 -90 209q0 86 44 159q43 72 106 119q60 46 124 82q65 37 106 64q44 29 44 51q0 40 -57 50q-116 18 -231 78
q-134 70 -216 110q-99 49 -200 49q-49 0 -84 -27t-53 -70q-15 -35 -24 -80q-7 -35 -7 -71q0 -163 51 -345t142 -343q92 -162 240 -267t322 -105q100 0 177 30q74 29 116 76q44 49 70 90q31 49 54 76q26 31 52 31q52 0 52 -111q0 -104 -46 -217q-47 -116 -129 -217t-218 -170
q-134 -68 -289 -68z" />
    <glyph glyph-name="D" unicode="D" horiz-adv-x="1581" 
d="M20 2048h629q181 0 331 -84q151 -85 250 -218q101 -136 169 -306q71 -177 100 -342q31 -175 31 -332q0 -224 -42 -375q-41 -149 -128 -236q-85 -85 -199 -120t-270 -35h-871q72 72 72 242v1564q0 170 -72 242zM788 1931q-95 0 -129 -110q-34 -109 -34 -387v-410v-410
q0 -279 33 -392q34 -118 118 -118q115 0 166 227q51 226 51 689q0 84 -2 206q-1 91 -9 205q-8 125 -21 195q-15 82 -36 156q-20 71 -57 111q-35 38 -80 38z" />
    <glyph glyph-name="E" unicode="E" horiz-adv-x="1603" 
d="M51 1024q0 199 46 380q47 185 135 337q89 154 235 246t328 92q73 0 225 -41t246 -41q78 0 151 41t94 41q29 0 41 -28q13 -30 9 -72q-5 -47 -19 -95q-16 -54 -37 -102q-18 -44 -42 -84q-29 -48 -60 -86q-40 -47 -85 -73q-50 -28 -99 -28q-123 0 -236 39t-183 84
q-70 44 -164 84q-93 39 -181 39q-49 0 -84 -27t-53 -70q-15 -35 -24 -80q-7 -35 -7 -71q0 -14 -1 -38t-1 -62q0 -25 3 -60t12 -54t26 -19q22 0 58 27q33 25 94 53q56 26 138 26q106 0 288 -84t255 -84q56 0 97 40t53 40q51 0 51 -116q0 -56 -21 -113q-23 -63 -59 -111
q-39 -52 -110 -87q-67 -33 -160 -33q-85 0 -163 37q-75 36 -136 93q-66 63 -110 109q-55 58 -104 93q-53 38 -100 38q-78 0 -43 -114q92 -283 284 -462q193 -179 404 -179q100 0 177 30q74 29 116 76q44 49 70 90q31 49 54 76q26 31 52 31q52 0 52 -111q0 -108 -46 -222
q-46 -113 -131 -217q-83 -101 -217 -167q-133 -66 -288 -66q-361 0 -596 274q-234 273 -234 781z" />
    <glyph glyph-name="F" unicode="F" horiz-adv-x="1492" 
d="M20 2048h1432v-489q0 -82 -47 -82q-21 0 -45 24q-27 27 -50 54q-27 31 -86 55q-60 24 -143 24h-708q-70 0 -112 -52t-42 -116v-127q0 -32 27 -32q12 0 83 38q70 37 154 37q107 0 288 -84t255 -84q56 0 97 40t53 40q51 0 51 -116q0 -56 -21 -113q-23 -63 -59 -111
q-39 -52 -110 -87q-67 -33 -160 -33q-85 0 -163 37q-75 36 -136 93q-66 63 -110 109q-55 58 -104 93q-53 38 -100 38q-16 0 -31 -12q-14 -11 -14 -39q0 -111 30 -203t78 -155q51 -67 106 -119q59 -56 117 -105q56 -47 106 -99q47 -49 78 -118q30 -68 30 -147q0 -74 -39 -140
q-40 -67 -107 -67h-583q71 71 71 242v1564q0 92 -18 148q-18 54 -68 94z" />
    <glyph glyph-name="G" unicode="G" horiz-adv-x="1601" 
d="M51 1024q0 199 46 380q47 185 135 337q89 154 235 246t328 92q73 0 225 -41t246 -41q78 0 151 41t94 41q38 0 47 -47q9 -45 -7 -114q-14 -63 -46 -136q-122 -271 -286 -271q-123 0 -236 39t-183 84q-70 44 -164 84q-93 39 -181 39q-49 0 -84 -27t-53 -70q-15 -35 -24 -80
q-7 -35 -7 -71q0 -163 51 -345t142 -343q92 -162 240 -267t322 -105q105 0 180 38q76 39 117 102q42 66 61 129q19 64 19 136q0 95 -15 142q-15 46 -58 46q-29 0 -64 -44q-34 -44 -69 -96q-36 -54 -102 -96q-70 -44 -157 -44q-168 0 -258 95t-90 241q0 49 28 93q27 42 66 42
q7 0 65 -32t114 -32q63 0 176 46q115 47 219 47q102 0 184 -63t82 -185v-520q-61 -212 -234 -367q-176 -158 -425 -158q-361 0 -596 274q-234 273 -234 781z" />
    <glyph glyph-name="H" unicode="H" horiz-adv-x="1619" 
d="M504 0h-484q72 72 72 242v1564q0 170 -72 242h543q39 0 74 -48q35 -49 35 -102q0 -104 -49 -175q-50 -73 -120 -110q-69 -37 -141 -68t-118 -69q-49 -40 -49 -96q0 -17 11 -28q13 -13 27 -13q26 0 90 35q66 36 185 71q123 36 297 36q172 0 298 -36q122 -35 191 -71
q67 -35 92 -35q15 0 28 13q11 11 11 28q0 56 -49 96q-46 37 -120 69q-69 29 -140 68q-69 38 -119 110q-49 71 -49 175q0 53 35 102q35 48 74 48h542q-71 -71 -71 -242v-1564q0 -171 71 -242h-483q-114 0 -163 54q-50 55 -50 128q0 112 54 224t130 203q68 81 153 173
q80 86 131 160q54 78 54 135q0 35 -30 35q-19 0 -62 -27t-96 -57t-171 -57q-119 -27 -269 -27q-152 0 -266 27q-112 27 -161 57q-48 30 -87 57t-58 27q-30 0 -30 -35q0 -57 54 -135t130 -160q75 -81 152 -173q81 -97 132 -203q54 -112 54 -224q0 -73 -50 -128
q-49 -54 -163 -54z" />
    <glyph glyph-name="I" unicode="I" horiz-adv-x="727" 
d="M20 0q72 72 72 242v1564q0 170 -72 242h687q-72 -72 -72 -242v-1564q0 -170 72 -242h-687z" />
    <glyph glyph-name="J" unicode="J" horiz-adv-x="841" 
d="M311 -31q-119 0 -205 56t-86 129q0 34 29 34q158 0 158 228v1390q0 170 -72 242h686q-71 -71 -71 -242v-1321q0 -253 -121 -384q-121 -132 -318 -132z" />
    <glyph glyph-name="K" unicode="K" horiz-adv-x="1628" 
d="M563 0h-543q72 72 72 242v1564q0 170 -72 242h570q114 0 163 -54q50 -55 50 -128q0 -109 -61 -205q-60 -94 -145 -160q-76 -59 -171 -122q-93 -62 -146 -115q-61 -61 -61 -117q0 -64 66 -64q61 0 187 73q122 70 248 180q123 107 217 252q93 144 93 267q0 105 -57 193h432
q64 0 112 -54t48 -136q0 -162 -109 -291q-107 -126 -263 -202q-144 -70 -308 -131q-158 -59 -262 -108q-109 -51 -109 -102q0 -46 117 -39q50 4 191 51q141 46 222 45q46 0 83 -22q39 -23 62 -51q21 -25 47 -80q20 -43 35 -89q4 -14 14 -47.5t15 -51.5q6 -20 15.5 -49
t11.5 -38q110 -323 171 -466q59 -139 130 -187h-440q-132 0 -186 42t-84 148q-89 309 -146 426q-63 132 -160 222q-95 89 -206 88q-95 -1 -143 -49q-46 -46 -46 -103q0 -73 47 -131q45 -55 114 -99t133 -89q68 -48 114 -125q47 -79 47 -180q0 -53 -35 -102q-35 -48 -74 -48z
" />
    <glyph glyph-name="L" unicode="L" horiz-adv-x="1501" 
d="M1112 0h-1092q72 72 72 242v1564q0 170 -72 242h629q113 0 163 -54q50 -55 50 -128q0 -83 -61 -184q-56 -93 -149 -202q-97 -113 -174 -212q-86 -109 -148 -246q-62 -136 -62 -266q0 -87 35 -197t97 -213q63 -105 168 -174q107 -70 229 -70q104 0 187 52q81 51 81 141
q0 74 -36 137t-86 113q-11 11 -31.5 31t-37.5 37t-32 33q-52 53 -87 131q-36 79 -36 175q0 116 83 207q82 90 197 90q121 0 293 -71q174 -72 174 -154q0 -78 -69 -125q-68 -46 -155 -64t-155 -61q-69 -44 -69 -117q0 -49 48 -89q43 -36 116 -72q68 -33 135 -72
q68 -39 116 -105t48 -151q0 -41 -14 -72q-14 -32 -36 -48q-21 -16 -56 -29q-28 -11 -68 -14q-50 -4 -76 -5q-39 -2 -78 0h-41z" />
    <glyph glyph-name="M" unicode="M" horiz-adv-x="2125" 
d="M92 1806q0 170 -72 242h652q42 0 71 -13q32 -14 58 -48q26 -33 45 -76q21 -48 43 -117q30 -96 45 -147q44 -151 57 -193q43 -138 74 -231q31 93 74 231q13 42 57 193q15 51 45 147q22 69 43 117q19 43 45 76q27 35 57 48q29 13 72 13h647q-71 -71 -71 -242v-1564
q0 -171 71 -242h-686q72 72 72 242v1192q0 223 -76 223q-96 0 -285 -778q-19 -73 -47 -197q-22 -99 -46 -194q-14 -57 -39 -139q-23 -78 -45 -110q-21 -32 -44 -32q-13 0 -31 18q-17 17 -39 63q-24 50 -38 84q-20 48 -42 114q-25 75 -42 123q-2 6 -46 140q-10 32 -24.5 77
t-19.5 59q0 2 -2.5 9.5t-8 23t-10.5 30.5q-6 19 -16.5 50t-14.5 43q-25 80 -35 107q-28 80 -42 119q-6 18 -21 56.5t-22 57.5q-22 60 -46 109q-21 44 -44 85q-22 39 -42 61q-19 21 -36 21q-76 0 -76 -223q0 -182 48 -352q47 -166 116 -290q74 -134 136 -229
q70 -108 117 -205q48 -99 48 -178q0 -87 -65 -134q-64 -46 -162 -46h-429q72 72 72 242v1564z" />
    <glyph glyph-name="N" unicode="N" horiz-adv-x="1699" 
d="M20 0q72 72 72 242v1564q0 170 -72 242h611q48 0 77 -13t59 -43q27 -27 63 -107q29 -65 71 -175q29 -76 96 -276l193 -574q9 -31 20 -61q13 -40 32 -93t22 -62q17 -48 47 -122q29 -70 53 -100q25 -31 49 -31q76 0 76 223q0 183 -48 352q-47 166 -116 290
q-74 134 -136 229q-70 108 -117 205q-48 99 -48 178q0 87 65 134q64 46 162 46h428q-71 -71 -71 -242v-1564q0 -171 71 -242h-536q-70 0 -127 33q-60 35 -92 71q-34 39 -75 126q-37 79 -58 139q-21 58 -56 166q-24 76 -117 341q-35 100 -70 202.5t-38 109.5q-5 19 -21 61
q-10 31 -53 155q-17 48 -47 122q-29 70 -53 100q-25 31 -49 31q-76 0 -76 -223q0 -182 48 -352q47 -166 116 -290q74 -134 136 -229q70 -108 117 -205q48 -99 48 -178q0 -87 -65 -134q-64 -46 -162 -46h-429z" />
    <glyph glyph-name="O" unicode="O" horiz-adv-x="1714" 
d="M51 1024q0 475 221 765t586 290q361 0 583 -290q222 -289 222 -765t-222 -765q-222 -290 -583 -290q-365 0 -586 290t-221 765zM692 1939q-151 0 -172 -346q-24 -364 88 -823q112 -457 266 -608q56 -53 109 -53q214 0 226 457q12 458 -150 916q-162 457 -367 457z" />
    <glyph glyph-name="P" unicode="P" horiz-adv-x="1574" 
d="M20 2048h826q354 0 521 -162t167 -430q0 -123 -38 -239q-37 -113 -113 -213q-74 -98 -205 -158q-130 -60 -301 -60q-126 0 -238 37q-115 38 -180 82q-62 42 -124 82q-58 37 -83 37q-47 0 -47 -51q0 -72 56 -140q59 -71 136 -131q91 -70 160 -129q78 -67 136 -162
q57 -94 57 -204q0 -74 -39 -140q-40 -67 -107 -67h-584q72 72 72 242v1564q0 170 -72 242zM727 1620q-530 0 -530 -203q0 -64 53 -108t151 -63q95 -19 191 -25q107 -7 219 -7t219 7q98 6 192 25q100 20 152 63q53 44 53 108q0 203 -700 203z" />
    <glyph glyph-name="Q" unicode="Q" horiz-adv-x="1722" 
d="M51 1024q0 475 221 765t586 290q361 0 583 -290q222 -289 222 -765q0 -512 -254 -805q-88 -112 -176 -194q-87 -81 -150 -118q-61 -36 -111 -60q-13 -6 -29.5 -14t-27.5 -13t-18 -9q-25 -14 -25 -34q0 -23 33 -36q32 -13 76 -13q136 0 228 43t127 93q13 19 36 52.5
t28 40.5q30 43 54 43q14 0 25 -4q14 -5 25 -14q13 -10 22 -19q2 -2 22 -26q6 -7 14 -17l7 -10q2 -3 21 -31q12 -18 20 -26q92 -134 92 -213q0 -81 -104 -144t-236 -63q-111 0 -232 56q-122 56 -214 123q-95 69 -201 123q-109 56 -197 56q-16 0 -16 49q0 51 22 51
q21 0 72 -15t94 -15q90 0 162 24t72 60q0 24 -66 24q-365 0 -586 290t-221 765zM692 1939q-151 0 -172 -346q-24 -364 88 -823q112 -457 266 -608q56 -53 109 -53q214 0 226 457q12 458 -150 916q-162 457 -367 457z" />
    <glyph glyph-name="R" unicode="R" horiz-adv-x="1585" 
d="M20 2048h826q354 0 521 -162t167 -430q0 -125 -33 -236q-33 -112 -99 -206q-65 -94 -180 -151q-112 -56 -261 -56q-107 0 -200 35q-91 34 -150 84q-54 45 -104 99q-55 58 -85 85q-40 35 -70 35q-69 0 -69 -66q0 -74 133 -146q139 -75 362 -161q329 -124 455 -199
q280 -166 280 -387q0 -100 -30 -143t-105 -43h-442q-59 0 -59 47q0 35 17 92t17 115q0 94 -91 215q-93 123 -209 213q-127 98 -227 157q-109 64 -148 64q-20 0 -28 -14q-9 -15 -9 -27q0 -55 57 -106q60 -54 138 -100q90 -53 162 -104q82 -57 138 -145q58 -90 58 -200
q0 -74 -39 -140q-40 -67 -107 -67h-583q71 71 71 242v350l-2 432v782q0 170 -72 242zM727 1620q-530 0 -530 -203q0 -64 53 -108t151 -63q95 -19 191 -25q107 -7 219 -7t219 7q98 6 192 25q100 20 152 63q53 44 53 108q0 203 -700 203z" />
    <glyph glyph-name="S" unicode="S" horiz-adv-x="1515" 
d="M653 -31q-253 0 -443 143t-190 328q0 57 103 137q100 78 221 133q118 54 172 52q48 -1 81 -34q31 -32 24 -87q-3 -23 -7.5 -55.5t-5.5 -41.5q-4 -36 -6 -98q-2 -65 5 -98q8 -40 25 -84q19 -49 47 -73q31 -26 80 -44t116 -18q120 0 209 80q90 81 90 197q0 143 -104 229
q-104 85 -282 141q-124 39 -171 55q-55 19 -154 59q-85 35 -142 71q-56 36 -115 86t-94 108t-56 134q-21 77 -21 167q0 257 187 440q188 183 446 183q73 0 225 -41t246 -41q78 0 151 41t94 41q67 0 46 -133q-24 -158 -130 -299q-101 -135 -208 -136q-100 0 -208 39
q-109 39 -185 84q-77 46 -178 84q-102 39 -193 39q-58 0 -98 -42q-40 -41 -40 -101q0 -45 24 -84q24 -40 58 -66q32 -25 97 -49q64 -23 113 -36q49 -12 133 -25q103 -15 135 -18q17 -1 62.5 -5.5t74.5 -7.5q259 -24 419 -182q158 -157 158 -393q0 -144 -48 -277
q-49 -135 -142 -248q-96 -116 -255 -184q-163 -70 -366 -70z" />
    <glyph glyph-name="T" unicode="T" horiz-adv-x="1673" 
d="M86 1251q-45 0 -45 49v748h1591v-748q0 -49 -45 -49q-34 0 -90 109q-54 106 -106 238t-114 239q-64 109 -106 109q-63 0 -63 -131v-1573q0 -170 72 -242h-686q71 71 71 242v1573q0 131 -63 131q-42 0 -106 -109q-59 -102 -113 -239q-49 -124 -107 -238q-56 -109 -90 -109
z" />
    <glyph glyph-name="U" unicode="U" horiz-adv-x="1689" 
d="M106 1806q0 92 -18 148q-18 54 -68 94h611q60 0 95 -56q36 -57 36 -122q0 -125 -57 -248q-55 -118 -139 -221q-83 -102 -163 -196q-81 -95 -139 -209q-57 -111 -57 -222q0 -122 77 -207q75 -82 179 -116q102 -33 217 -33q161 0 265 101q106 103 106 282v1005
q0 89 -19 148q-18 55 -67 94h704q-49 -39 -67 -94q-19 -59 -19 -148v-1050q0 -182 -49 -323q-50 -143 -125 -227t-178 -140q-100 -54 -197 -76q-94 -21 -192 -21q-99 0 -193 21t-194 76t-176 140t-124 227q-49 145 -49 323v1050z" />
    <glyph glyph-name="V" unicode="V" horiz-adv-x="1841" 
d="M0 2048h846q-74 -85 -74 -223q0 -118 55 -447q55 -328 152 -654q96 -323 184 -323q142 0 142 318q0 135 -49 297q-50 165 -104 279q-53 112 -104 269q-49 152 -49 267q0 88 34 152q35 65 116 65h692q-39 -33 -75 -103q-35 -68 -52 -123q-3 -9 -20.5 -67t-32.5 -104
q-115 -381 -181 -680q-69 -313 -151 -764q-24 -139 45 -207h-907q69 68 45 207q-82 451 -151 764q-66 299 -181 680q-15 46 -32.5 104t-20.5 67q-17 55 -52 123q-36 70 -75 103z" />
    <glyph glyph-name="W" unicode="W" horiz-adv-x="2922" 
d="M180 1651q-15 46 -32.5 104t-20.5 67q-17 55 -52 123q-36 70 -75 103h846q-74 -85 -74 -223q0 -118 55 -447q55 -328 152 -654q96 -323 184 -323q76 0 122 121q46 120 58 290q13 185 9 336q-5 169 -25 273q-40 146 -65 230q-38 119 -54 171q-17 55 -52 123
q-36 70 -75 103h846q-74 -85 -74 -223q0 -113 56 -447q56 -335 151 -654q96 -323 185 -323q141 0 141 318q0 138 -48 297t-105 279q-53 112 -104 269q-48 148 -48 267q0 88 34 152q35 65 115 65h692q-38 -32 -74 -103q-35 -68 -52 -123q-16 -52 -54 -171
q-115 -381 -181 -680q-69 -313 -151 -764q-24 -139 46 -207h-908q69 68 45 207q-78 434 -131 680q-57 -247 -133 -680q-24 -139 45 -207h-907q69 68 45 207q-84 461 -150 757q-69 308 -182 687z" />
    <glyph glyph-name="X" unicode="X" horiz-adv-x="1781" 
d="M330 1548q-109 220 -192 353q-76 123 -138 147h815q-39 -12 -42 -78q-3 -67 13 -90q17 -38 45 -97.5t38 -81.5q7 -15 25.5 -55t25.5 -56q18 -42 28 -62q3 -7 9 -20t16.5 -36.5t19.5 -43.5q35 -76 51 -111q24 -49 43 -86q28 -52 47 -73q20 -21 33 -21q22 0 40 38
q17 36 22 74l6 39q0 107 -95 305q-96 200 -96 273q0 71 32 127q31 55 91 55h605q-22 -5 -49 -36q-24 -28 -61 -89q-31 -51 -67 -120q-27 -52 -71 -148q-61 -133 -70 -154q-41 -92 -68 -156q-11 -26 -21.5 -52.5t-20.5 -51.5t-14 -34q-20 -48 -45 -114q-26 -67 -28 -69
q-20 -47 -20 -74q0 -20 32 -90q40 -87 100 -201q20 -38 38.5 -73t30 -58t14.5 -28q114 -227 192 -350q81 -127 138 -150h-815q39 12 42 78q3 65 -14 90q-17 38 -45 97.5t-38 81.5q-40 87 -50 111q-18 42 -28 62q-27 58 -46 100q-34 76 -51 111q-24 49 -43 86q-29 55 -46 73
q-20 21 -34 21q-22 0 -40 -38q-16 -34 -21 -74l-6 -39q0 -107 95 -305t95 -273q0 -72 -31 -127t-92 -55h-604q35 6 93 97q56 87 127 239q75 159 122 270q80 186 111 265q16 40 31.5 78.5t22 55t7.5 19.5q3 18 5 53q2 26 -16 74q-28 77 -31 85q-15 40 -40 90q-10 20 -24 49
t-19 38q-24 48 -39 77q-5 9 -10.5 19.5t-8.5 17t-6 12.5t-5 9z" />
    <glyph glyph-name="Y" unicode="Y" horiz-adv-x="1679" 
d="M0 2048h551q135 0 201 -105q65 -103 65 -247q0 -88 -30 -174q-33 -93 -65 -147q-36 -59 -66 -146q-29 -83 -29 -172q0 -85 65 -146t185 -59q94 0 160 33q67 34 97 87q30 54 42 104t12 108q0 89 -47 201q-45 107 -105 199t-104 185q-47 100 -47 162q0 49 33 83t81 34h478
q161 0 161 -301q0 -171 -64 -333q-63 -159 -157 -284q-78 -104 -184 -227q-95 -110 -157 -203q-64 -95 -64 -168q0 -105 31 -188t69 -127q42 -49 69 -86q31 -43 31 -74q0 -57 -106 -57h-498q-61 0 -94 60t-33 137q0 74 48 143q49 71 117 121q79 59 137 95q67 42 117 86
q48 42 48 75q0 31 -26 31q-13 0 -80 -26t-152 -26q-110 0 -189 40q-78 40 -122 113q-42 70 -64 146q-19 65 -30 168l-1 10q-1 10 -3.5 33t-4.5 49q-7 84 -11 110q-1 7 -13 104q-10 82 -20 117q-6 21 -25 104q-16 69 -35 109q-17 35 -44 91q-26 52 -57 90q-32 38 -71 68z" />
    <glyph glyph-name="Z" unicode="Z" horiz-adv-x="1572" 
d="M20 453q0 164 77 306q74 137 199 237q120 97 269 180q137 77 295 143q161 68 269 118q130 61 199 115q77 60 77 123q0 90 -137 90q-90 0 -195 -40t-193 -87q-87 -46 -213 -87q-124 -40 -249 -40q-50 0 -100 28q-45 26 -85 73q-31 38 -60 86q-24 40 -42 84q-21 48 -37 102
q-13 43 -18 95q-5 44 8 72q12 28 41 28q21 0 94 -41t152 -41q93 0 356 41t336 41q133 0 233 -35t146 -90q45 -53 67 -109q21 -53 21 -106q0 -89 -64 -199q-63 -108 -142 -190q-36 -37 -171 -179q-95 -100 -127 -147q-73 -83 -185 -206q-38 -42 -101.5 -111t-88.5 -96
q-67 -73 -155 -175q-76 -88 -118 -153q-40 -62 -40 -99q0 -35 24 -59q25 -25 60 -25q79 0 167 46q92 48 173 112q68 54 172 131q88 66 188 112q99 46 195 46q79 0 147 -44t68 -118v-385h-1237q-96 0 -161 73t-89 170q-25 102 -25 210z" />
    <glyph glyph-name="bracketleft" unicode="[" horiz-adv-x="497" 
d="M41 2458h416v-86h-314v-2696h314v-86h-416v2868z" />
    <glyph glyph-name="backslash" unicode="\" horiz-adv-x="1239" 
d="M1198 -31h-55l-1102 2110h55z" />
    <glyph glyph-name="bracketright" unicode="]" horiz-adv-x="497" 
d="M41 -410v86h313v2696h-313v86h416v-2868h-416z" />
    <glyph glyph-name="underscore" unicode="_" horiz-adv-x="1105" 
d="M41 102h1024v-102h-1024v102z" />
    <glyph glyph-name="grave" unicode="`" horiz-adv-x="604" 
d="M41 2359q0 41 21 85t57 44q22 0 46 -27q51 -58 69 -76q47 -48 110 -83q94 -49 143 -64q21 -6 41 -6q23 0 28 -1q7 -1 7 -9q0 -24 -47 -39q-43 -14 -106 -14q-121 0 -244 65q-125 66 -125 125z" />
    <glyph glyph-name="a" unicode="a" horiz-adv-x="1525" 
d="M51 319q0 158 66 287q67 130 179 216q113 86 245 144q125 55 284 89q74 15 74 90q0 41 -7 72q-7 33 -25 65q-18 33 -55 51q-40 19 -91 19q-71 -1 -139 -45q-69 -45 -119 -106q-55 -68 -96 -124q-42 -57 -87 -104q-42 -43 -77 -43q-25 0 -44 19q-20 20 -20 46v113
q0 19 -1 40q-2 32 0 45q0 1 1.5 14t2.5 23q3 22 14 40q10 16 24 30q173 164 572 164q170 0 306 -54q134 -53 218 -143q80 -86 125 -197q43 -107 43 -220v-608q0 -170 72 -242h-502q-91 0 -107 88q-12 72 -53 72q-26 0 -64 -30q-49 -39 -77 -65q-39 -36 -118 -66t-179 -30
q-149 0 -257 102t-108 248zM825 922q-106 0 -195 -116t-89 -294q0 -283 194 -283q79 0 123 65q43 64 43 169q0 99 -1 167t-1 165q0 70 -16 98q-17 29 -58 29z" />
    <glyph glyph-name="b" unicode="b" horiz-adv-x="1648" 
d="M-20 1829q0 14 22 26q4 2 16.5 7.5t38.5 18t51 23.5q3 1 170 77q93 42 169 67q95 31 133 31q27 0 43 -14q15 -13 16 -26q2 -18 2 -40v-676q7 -20 33 -20q14 0 40 25t61 55q37 32 99 56q65 25 144 25q148 0 260 -68q115 -69 182 -183q70 -117 103 -247q34 -132 34 -278
q0 -310 -155 -514q-156 -205 -424 -205q-207 0 -340 211q-23 38 -35 21q-2 -6 -2 -13v-20q0 -82 -25 -126q-24 -42 -88 -42h-501q71 71 71 242v1400q0 128 -88 158q-30 10 -30 29zM641 549q0 -324 180 -324q79 0 131 44q52 45 73 132q23 97 27 159q5 78 5 185
q0 504 -269 504q-44 0 -76 -30q-31 -30 -45 -82q-14 -54 -20 -97q-6 -45 -6 -92v-399z" />
    <glyph glyph-name="c" unicode="c" horiz-adv-x="1409" 
d="M51 678q0 160 47 303q46 140 138 250q91 109 236 171t333 62q162 0 325 -87q164 -87 164 -163q0 -12 -8 -31q-6 -14 -31 -41q-27 -29 -35 -36q-24 -21 -50 -43q-30 -25 -44 -39q-2 -2 -20 -18t-32 -29q-36 -33 -57 -51q-42 -36 -48 -41q-29 -24 -44 -33q-17 -10 -26 -10
q-21 0 -30 20q-6 13 -23 67q-15 47 -43 85q-67 95 -161 159t-187 64q-87 0 -134 -59q-49 -61 -49 -154q0 -158 137 -322q138 -165 322 -263q186 -99 338 -99q85 0 142 27q59 28 84 53q26 26 40 26q33 0 33 -43q0 -61 -35 -134t-100 -141q-67 -70 -179 -114
q-114 -45 -253 -45q-300 0 -526 206q-224 205 -224 503z" />
    <glyph glyph-name="d" unicode="d" horiz-adv-x="1632" 
d="M631 -31q-268 0 -424 205q-156 206 -156 514q0 143 35 278q34 133 102 247q67 113 183 183q112 68 260 68q78 0 143 -25q62 -24 99 -56q47 -41 62 -55q26 -25 40 -25q33 0 33 53v286q0 128 -88 158q-31 11 -31 29q0 14 22 26q4 2 16.5 7.5t38.5 18t51 23.5q3 1 170 77
q90 41 170 67q95 31 132 31q27 0 43 -14q15 -13 16 -26q2 -18 2 -40v-1757q0 -170 72 -242h-502q-64 0 -88 42t-24 126v20q0 32 -25 9l-12 -17q-129 -211 -340 -211zM860 1249q-268 0 -268 -504q0 -107 5 -185q4 -62 27 -159q21 -89 72 -132q52 -44 131 -44q181 0 181 324
v399q0 39 -7 92q-7 51 -19 97q-14 52 -45 82t-77 30z" />
    <glyph glyph-name="e" unicode="e" horiz-adv-x="1409" 
d="M51 678q0 347 194 567q193 219 541 219q263 0 417 -161q155 -163 155 -385q0 -70 -24 -121q-25 -52 -74 -80q-49 -27 -105 -45q-54 -17 -137 -20q-93 -3 -148 -2q-140 3 -162 4q-99 3 -157 3q-47 0 -47 -32q0 -37 90 -105q88 -66 227 -124q134 -56 248 -56q85 0 142 27
q59 28 84 53q26 26 40 26q33 0 33 -43q0 -61 -35 -134t-100 -141q-67 -70 -179 -114q-114 -45 -253 -45q-300 0 -526 206q-224 205 -224 503zM281 1053q0 -121 58 -209t175 -88q77 0 149 5q68 5 131 19q67 15 103 47q37 33 37 82q0 149 -135 240q-136 92 -283 92
q-93 0 -164 -52t-71 -136z" />
    <glyph glyph-name="f" unicode="f" horiz-adv-x="1089" 
d="M707 0h-687q72 72 72 242v1214q0 128 33 236q33 107 99 196q66 88 182 140q114 51 266 51q126 0 252 -47q125 -47 125 -107q0 -76 -74 -229q-6 -12 -18 -39q-15 -33 -17 -37l-15 -26q-9 -15 -20 -20q-12 -5 -22 -5q-43 0 -108 41q-64 40 -122 89q-59 50 -136 89
q-80 41 -148 41q-39 0 -70 -26t-31 -68q0 -108 86 -205q85 -96 211 -96h264v-103h-194v-1089q0 -170 72 -242z" />
    <glyph glyph-name="g" unicode="g" horiz-adv-x="1626" 
d="M453 270q-187 83 -295 229q-107 145 -107 339q0 280 209 453t549 173q50 0 149 -15t125 -15q78 0 135 22q58 22 91 55q31 31 57 65q22 28 49 54q25 23 51 23q58 0 109 -76q51 -77 51 -143q0 -38 -40 -63t-95 -25q-91 0 -166 23q-80 25 -139 26q180 -73 279 -218
q100 -145 100 -339q0 -246 -160 -417q-159 -170 -428 -200q-33 -5 -33 -37q0 -34 62 -57q59 -22 149 -43q93 -22 176 -53q87 -33 150 -106q61 -71 61 -181q0 -185 -183 -287t-458 -102q-193 0 -382 53q-184 52 -320 163q-133 109 -133 249q0 33 65 89q62 54 160 105
q155 82 244 82q37 0 66 -25q30 -25 30 -69q0 -18 -19 -88q-18 -66 -18 -158q0 -114 61 -182q62 -70 168 -70q110 0 174 59t64 171q0 60 -13 108q-13 47 -30 86q-17 38 -56 73q-34 30 -70 59q-34 27 -91 55q-53 26 -101 48q-37 17 -119 52q-109 47 -128 55zM809 1368
q-101 0 -161 -155t-60 -408q0 -255 60 -408t161 -153q99 0 159 153t60 408q0 253 -60 408t-159 155z" />
    <glyph glyph-name="h" unicode="h" horiz-adv-x="1593" 
d="M10 1800q-30 10 -30 29q0 14 22 26q460 224 578 224q27 0 43 -14q15 -13 16 -26q2 -18 2 -40v-819h14q24 0 47 29q4 5 24.5 30.5t33.5 41.5q36 46 76 83q45 42 119 71t173 29q351 0 351 -481l2 -391v-350q0 -171 71 -242h-686q72 72 72 242v665q0 183 -117 183
q-180 0 -180 -291v-557q0 -170 72 -242h-686q71 71 71 242v1400v11v16q0 11 -1 20q-1 13 -3 21q-2 10 -6 22q-5 15 -11 22q-10 12 -17 19q-8 8 -21 16q-9 5 -29 11z" />
    <glyph glyph-name="i" unicode="i" horiz-adv-x="722" 
d="M0 1214q0 15 23 27q2 0 7.5 3t17.5 9l24 12q15 7 40 20t36 18q10 5 23.5 11.5t33 15.5l32.5 15q54 25 99 45q19 8 93 36q43 16 87 28q37 10 64 10q29 0 43 -13t16 -27q2 -18 2 -40v-1142q0 -170 72 -242h-686q71 71 71 242v786v12v20q0 11 -1 21q-1 13 -3 25q0 1 -7 24
q-5 15 -12 24q-8 10 -19 18q-14 11 -25 14q-31 11 -31 28zM365 2169q135 0 217 -82t82 -217t-82 -217t-217 -82q-136 0 -218 82q-81 81 -81 217t81 217q82 82 218 82z" />
    <glyph glyph-name="j" unicode="j" horiz-adv-x="729" 
d="M227 -645q-97 0 -177 34q-81 35 -81 76q0 17 13 22t34 5q19 0 33 2q70 17 70 144v1390v12v20q0 11 -1 21q-1 13 -3 25q0 1 -7 24q-4 13 -13 24q-10 12 -18 18q-14 10 -26 14q-31 11 -31 28q0 15 23 27q3 1 144 69q134 65 242 107q120 47 171 47q29 0 43 -13t16 -27
q3 -27 3 -40v-1368q0 -124 -20 -236q-20 -113 -65 -210q-46 -100 -136 -158q-89 -57 -214 -57zM90 1870q0 135 82 217t217 82t217 -82t82 -217t-82 -217t-217 -82t-217 82t-82 217z" />
    <glyph glyph-name="k" unicode="k" horiz-adv-x="1527" 
d="M10 1800q-30 10 -30 29q0 14 22 26q4 2 16.5 7.5t38.5 18t51 23.5q3 1 170 77q93 42 169 67q95 31 133 31q27 0 43 -14q15 -13 16 -26q2 -18 2 -40v-903q83 166 244 268q158 100 360 100q83 0 156 -24q74 -24 74 -68v-344q0 -96 -70 -96q-54 0 -119 31q-69 33 -152 61
q-91 31 -208 31q-144 0 -216 -60q-73 -61 -73 -149q0 -135 134 -248t337 -113q89 0 157 20q67 20 107 39q39 19 70 19q5 0 15 -2q5 -1 11 -7q4 -4 8 -10q3 -5 5 -15q0 -3 1 -5.5t2 -5.5t1 -4q2 -8 2 -19v-20v-20v-21v-395q0 -32 -31 -49q-32 -18 -59 -19q-38 -2 -78 -2
q-209 0 -398 142t-280 356v-225q0 -170 72 -242h-686q71 71 71 242v1400v11v16q0 11 -1 20q-1 13 -3 21q-2 10 -6 22q-5 15 -11 22q-10 12 -17 19q-8 8 -21 16q-9 5 -29 11z" />
    <glyph glyph-name="l" unicode="l" horiz-adv-x="733" 
d="M10 1800q-30 10 -30 29q0 14 22 26q460 224 578 224q27 0 43 -14q15 -13 16 -26q2 -18 2 -40v-1757q0 -170 72 -242h-502q-64 0 -88 42q-25 44 -25 126v1474v11v16q0 11 -1 20q-1 13 -3 21q-2 10 -6 22q-5 15 -11 22q-10 12 -17 19q-8 8 -21 16q-9 5 -29 11z" />
    <glyph glyph-name="m" unicode="m" horiz-adv-x="2414" 
d="M727 0h-686q72 72 72 242v950q0 170 -72 242h502q64 0 88 -43q24 -44 24 -127v-35q0 -49 15 -49q24 0 47 29q24 30 57 72q36 46 76 83q44 41 120 71q74 29 173 29q258 0 325 -262q12 -22 39 -22q24 0 47 29q4 5 24.5 30.5t33.5 41.5q36 46 76 83q45 42 119 71t173 29
q351 0 351 -481l2 -391v-350q0 -171 71 -242h-686q72 72 72 242v665q0 183 -117 183q-168 0 -180 -254l2 -244v-350q0 -170 72 -242h-686q71 71 71 242v665q0 183 -116 183q-181 0 -181 -291v-557q0 -170 72 -242z" />
    <glyph glyph-name="n" unicode="n" 
d="M707 0h-687q72 72 72 242v950q0 170 -72 242h502q64 0 88 -43q25 -45 25 -127v-35q0 -49 14 -49q24 0 47 29q4 5 24.5 30.5t33.5 41.5q39 49 75 83q44 41 120 71q74 29 173 29q351 0 351 -481l2 -391v-350q0 -171 71 -242h-686q72 72 72 242v665q0 183 -117 183
q-180 0 -180 -291v-557q0 -170 72 -242z" />
    <glyph glyph-name="o" unicode="o" horiz-adv-x="1579" 
d="M260 180q-214 218 -209 526t225 531q225 225 535 225q300 0 508 -211q213 -214 208 -523q-4 -307 -224 -531q-225 -228 -535 -228q-300 0 -508 211zM690 1354q-100 -15 -142 -214q-42 -198 -1 -468q41 -266 140 -444q99 -177 200 -160q99 16 139 214q41 199 2 468
q-39 266 -138 443q-99 178 -200 161z" />
    <glyph glyph-name="p" unicode="p" horiz-adv-x="1648" 
d="M-20 1214q0 15 22 27q19 6 150 68q130 61 252 108q123 47 176 47q29 0 43 -13t16 -27q2 -18 2 -40v-61q7 -20 33 -20q14 0 40 25t61 55q37 32 99 56q65 25 144 25q148 0 260 -68q115 -69 182 -183q70 -117 103 -247q34 -132 34 -278q0 -310 -155 -514
q-156 -205 -424 -205q-207 0 -340 211q-23 38 -35 21q-2 -6 -2 -13v-634q0 -82 -25 -126q-24 -42 -88 -42h-501q71 71 71 241v1401q0 128 -88 158q-30 10 -30 28zM641 948v-399q0 -324 180 -324q79 0 131 44q52 45 73 132q23 97 27 159q5 78 5 185q0 504 -269 504
q-44 0 -76 -30q-31 -30 -45 -82q-14 -54 -20 -97q-6 -45 -6 -92z" />
    <glyph glyph-name="q" unicode="q" horiz-adv-x="1669" 
d="M51 688q0 143 35 278q34 133 102 247q67 113 183 183q112 68 260 68q78 0 143 -25q62 -24 99 -56q47 -41 62 -55q26 -25 40 -25q27 0 39 34q17 97 106 97h502q-72 -72 -72 -242v-1401q0 -128 88 -158q31 -11 31 -28q0 -15 -22 -27q-27 -9 -150 -67q-137 -65 -253 -109
q-123 -47 -175 -47q-29 0 -43 13t-16 27q-2 18 -2 40v753q0 32 -25 9l-12 -17q-129 -211 -340 -211q-268 0 -424 205q-156 206 -156 514zM860 1249q-268 0 -268 -504q0 -107 5 -185q4 -62 27 -159q21 -89 72 -132q52 -44 131 -44q181 0 181 324v399q0 39 -7 92q-7 51 -19 97
q-14 52 -45 82t-77 30z" />
    <glyph glyph-name="r" unicode="r" horiz-adv-x="1368" 
d="M20 0q72 72 72 242v950q0 170 -72 242h502q64 0 88 -43q25 -45 25 -127v-35q0 -49 14 -49q19 0 42 29q15 18 53 72q31 44 72 83q43 41 114 71q70 29 162 29q95 0 174 -33q82 -34 82 -90q0 -13 -111 -233l-24 -48q-4 -7 -9 -17.5t-8.5 -17t-5.5 -11.5q-3 -6 -10 -19.5
t-11 -20.5q-5 -10 -20 -37q-7 -12 -19 -26q-10 -12 -18 -18t-16 -6q-30 0 -52 27q-18 22 -38 63q-17 35 -62 62q-47 28 -113 28q-196 0 -196 -268v-557q0 -170 72 -242h-687z" />
    <glyph glyph-name="s" unicode="s" horiz-adv-x="1378" 
d="M31 1024q0 124 58 212q59 89 158 137q102 49 209 70q110 21 234 21q266 0 461 -76q197 -77 197 -169q0 -99 -66 -189t-125 -90q-87 0 -191 64q-101 62 -178 138q-78 77 -173 138q-97 63 -183 63q-66 0 -114 -35q-50 -36 -50 -106q0 -69 80 -107q81 -38 230 -65
q126 -22 220 -45t203 -67q111 -45 180 -102t115 -146q47 -91 47 -205q0 -137 -62 -237q-63 -102 -160 -154q-102 -55 -196 -79q-101 -26 -196 -26q-227 0 -459 56q-229 55 -229 129q0 75 70 230q69 153 127 153q38 0 110 -42q56 -33 148 -94q78 -52 198 -93q123 -42 250 -42
q111 0 200 56t89 133q0 63 -86 63q-33 0 -147 -13t-205 -13q-108 0 -207 16q-108 17 -205 56q-103 41 -179 99q-78 60 -125 152q-48 95 -48 209z" />
    <glyph glyph-name="t" unicode="t" horiz-adv-x="874" 
d="M0 1434q70 0 175 66q106 67 192 148q85 81 165 147q81 67 107 67q39 0 39 -50v-378h176v-103h-176v-827v-47v-50q0 -25 1 -48q0 -9 0.5 -20t1 -17.5t0.5 -10.5q3 -30 5 -42q5 -29 9 -43l13 -37q8 -22 16 -34q9 -14 22 -28q12 -14 30 -25q6 -2 53 -12q-8 -53 -76 -87
t-147 -34q-116 0 -197 34q-85 36 -130 86q-48 54 -76 132q-30 83 -37 154q-8 78 -8 168v657q0 38 -1 48t-10 39q-7 24 -28 34q-20 10 -56 10h-63v103z" />
    <glyph glyph-name="u" unicode="u" 
d="M10 1434h686q-71 -71 -71 -242v-666q0 -182 116 -182q181 0 181 291v557q0 170 -72 242h686q-72 -72 -72 -242v-950q0 -170 72 -242h-502q-64 0 -88 43q-24 44 -24 127v35q0 49 -15 49q-23 0 -47 -30q-2 -3 -57 -70q-37 -45 -76 -83q-43 -42 -120 -72t-173 -30
q-350 0 -350 482l-2 391v350q0 170 -72 242z" />
    <glyph glyph-name="v" unicode="v" horiz-adv-x="1591" 
d="M174 1024l-20 70q-16 53 -22 72q-1 5 -5 16.5t-7.5 23.5t-7.5 24q-11 34 -24 63q-14 32 -25 54q-16 31 -29 50q-12 17 -34 37h717q-23 -52 -21 -129q1 -70 13 -125q11 -50 39 -156q3 -11 16 -64t24 -95q27 -104 47 -175q18 -63 45 -162q25 -90 48 -157q21 -61 46 -119
q25 -59 48 -88t43 -29q53 0 100 148q47 149 47 319q0 122 -27 217q-27 93 -69 145q-40 48 -89 87q-43 34 -89 54q-47 21 -69 38q-27 21 -27 43q0 96 156 187q155 91 319 91q114 0 168 -75q55 -76 55 -187q0 -62 -17 -140q-19 -88 -58 -210q-58 -182 -69 -215
q-47 -139 -92 -264q-59 -165 -87 -250q-15 -45 -33 -72q-17 -26 -43 -37q-24 -10 -39 -12q-20 -2 -45 -2h-449q-55 0 -99 38t-77 115t-51 135q-24 76 -43 158q-2 13 -3 14q-1 3 -3 13q-1 3 -2.5 8t-1.5 6q-31 121 -154 537z" />
    <glyph glyph-name="w" unicode="w" horiz-adv-x="2508" 
d="M0 1434h717q-23 -52 -21 -129q1 -70 13 -125q11 -50 39 -156q3 -11 16 -64t24 -95q27 -104 47 -175q18 -63 45 -162q25 -90 48 -157q21 -61 46 -119q25 -59 48 -88t43 -29q55 0 115 172q59 169 34 295h3q-16 59 -59 200q-16 51 -39 129.5t-27 92.5q-4 9 -16 53
q-4 16 -9 35t-6 23q-1 3 -3 11t-5 18.5t-7 21.5q-9 29 -18 53q-14 39 -17 46q-11 28 -21 46q-15 27 -21 38q-11 20 -25 37q-16 20 -26 28h716q-22 -50 -20 -129q1 -75 12 -125q10 -50 39 -156q35 -134 41 -159q35 -138 46 -175q18 -63 45 -162q25 -90 48 -157
q21 -61 46 -119q25 -59 48 -88t43 -29q54 0 101 148q47 149 47 319q0 119 -28 217q-27 95 -68 145q-40 48 -89 87q-42 32 -90 54q-45 20 -68 38q-28 22 -28 43q0 95 157 187q155 91 318 91q114 0 168 -75q56 -77 56 -187q0 -71 -34 -200q-35 -133 -73 -245
q-68 -200 -109 -320q-86 -248 -108 -314q-15 -45 -33 -72q-17 -26 -43 -37q-24 -10 -39 -12q-20 -2 -45 -2h-448q-87 0 -141 88q-53 87 -97 238q-37 -100 -71 -203q-15 -45 -33 -72q-17 -26 -43 -37q-24 -10 -39 -12q-20 -2 -45 -2h-449q-55 0 -99 38t-77 115t-51 135
q-24 76 -43 158q-2 13 -3 14q-1 3 -3 13q-1 3 -2.5 8t-1.5 6q-31 121 -154 537l-20 70q-16 53 -22 72q-1 5 -5 16.5t-7.5 23.5t-7.5 24q-11 34 -24 63q-14 32 -25 54q-16 31 -29 50q-12 17 -34 37z" />
    <glyph glyph-name="x" unicode="x" horiz-adv-x="1503" 
d="M20 1434h717q-43 -105 240 -641q17 -23 39 -23q30 0 53 45q23 46 23 137q0 138 -63 262q-64 126 -165 220h459q56 0 100 -52q43 -50 43 -127q0 -177 -138 -350q-136 -170 -290 -231q139 -254 262 -440q128 -194 183 -234h-717q43 105 -240 641q-17 23 -39 23
q-30 0 -53 -46q-22 -44 -22 -137q0 -139 62 -262q63 -125 165 -219h-459q-56 0 -100 51q-43 50 -43 127q0 178 138 350q137 171 290 232q-136 248 -262 439q-129 195 -183 235z" />
    <glyph glyph-name="y" unicode="y" horiz-adv-x="1591" 
d="M174 1024l-20 70q-16 53 -22 72q-1 5 -5 16.5t-7.5 23.5t-7.5 24q-11 34 -24 63q-14 32 -25 54q-16 31 -29 50q-12 17 -34 37h717q-23 -52 -21 -129q1 -70 13 -125q11 -50 39 -156q3 -11 16 -64t24 -95q27 -104 47 -175q18 -63 45 -162q25 -90 48 -157q21 -61 46 -119
q25 -59 48 -88t43 -29q53 0 100 148q47 149 47 319q0 122 -27 217q-27 93 -69 145q-40 48 -89 87q-43 34 -89 54q-47 21 -69 38q-27 21 -27 43q0 96 156 187q155 91 319 91q114 0 168 -75q55 -76 55 -187q0 -79 -42 -238q-40 -153 -89 -294q-28 -81 -134 -381
q-13 -36 -124 -352l-18 -43q-112 -274 -185 -371q-124 -168 -323 -168q-94 0 -193 39q-98 39 -98 82q0 25 53 190q17 54 26 78q21 56 23 61q16 40 29 53q15 15 29 15q23 0 110 -40t168 -40q125 0 196 59q70 58 70 105q0 43 -77 43h-353q-34 0 -64 15q-29 15 -54 47
q-14 18 -40 64q-15 26 -35 85q-14 40 -28 89t-26 97q-9 36 -23 90q-21 76 -82 272q-12 40 -30.5 98t-30.5 97.5t-21 69.5z" />
    <glyph glyph-name="z" unicode="z" horiz-adv-x="1351" 
d="M31 203q0 122 86 238q87 117 210 199q143 95 246 150q128 69 209 117q86 51 86 78q0 39 -86 39h-467q-78 0 -120 -14q-49 -16 -67 -29q-20 -14 -42 -14t-33 17q-12 18 -12 40v410h1143h19h25q14 0 25 -1q17 -1 27 -6q10 -4 20 -10q12 -7 16 -17q5 -13 5 -26
q0 -70 -69 -161t-167 -179q-12 -11 -196 -178q-95 -86 -167 -182q-69 -92 -69 -164q0 -94 86 -94h287q74 0 120 26q50 28 73 54t38 26q23 0 23 -65q0 -82 -1 -168t-1 -142q0 -116 -8 -129q-10 -18 -60 -18h-1069q-110 0 -110 203z" />
    <glyph glyph-name="braceleft" unicode="{" horiz-adv-x="600" 
d="M41 1044q53 0 90 27t55 76q19 53 26 98q7 46 7 109q0 117 -40 318t-40 335q0 183 103 324q102 139 260 139q28 0 57 -12l-10 -29q-22 8 -41 8q-94 0 -166 -88q-72 -89 -72 -201q0 -153 30 -386q30 -232 30 -408q0 -202 -158 -330q158 -128 158 -330q0 -176 -30 -408
q-30 -233 -30 -386q0 -112 72 -201q72 -88 166 -88q19 0 41 8l10 -29q-29 -12 -57 -12q-158 0 -260 139q-103 141 -103 324q0 134 40 335t40 318q0 63 -7 109q-7 45 -26 98q-18 49 -55 76t-90 27v40z" />
    <glyph glyph-name="bar" unicode="|" horiz-adv-x="184" 
d="M41 -410v2868h102v-2868h-102z" />
    <glyph glyph-name="braceright" unicode="}" horiz-adv-x="600" 
d="M98 -422q-28 0 -57 12l10 29q22 -8 41 -8q94 0 166 88q72 89 72 201q0 153 -30 386q-30 232 -30 408q0 202 158 330q-158 128 -158 330q0 176 30 408q30 233 30 386q0 112 -72 201q-72 88 -166 88q-19 0 -41 -8l-10 29q29 12 57 12q158 0 260 -139q103 -141 103 -324
q0 -134 -40 -335t-40 -318q0 -63 7 -109q7 -45 26 -98q18 -49 55 -76t90 -27v-40q-53 0 -90 -27t-55 -76q-19 -53 -26 -98q-7 -46 -7 -109q0 -117 40 -318t40 -335q0 -183 -103 -324q-102 -139 -260 -139z" />
    <glyph glyph-name="asciitilde" unicode="~" horiz-adv-x="870" 
d="M41 928q0 42 71 69q70 27 164 27q107 0 228 -23q116 -22 194 -22q45 0 66 12q23 13 31 13q13 0 24 -12q10 -11 10 -21q0 -41 -63 -65q-60 -23 -152 -23q-69 0 -194 23q-130 24 -223 24q-63 0 -97 -15q-32 -14 -37 -14q-22 0 -22 27z" />
    <glyph glyph-name="exclamdown" unicode="&#xa1;" horiz-adv-x="716" 
d="M356 -33q-123 0 -219 111t-96 254q0 184 45 350q42 156 116 357q70 190 103 347q12 58 53 58q42 0 54 -58q35 -154 106 -345q70 -190 115 -360q43 -163 43 -349q0 -143 -96 -254t-224 -111zM358 1544q-112 0 -190 78t-78 188q0 113 78 191t190 78q111 0 189 -78t78 -191
q0 -110 -78 -188t-189 -78z" />
    <glyph glyph-name="cent" unicode="&#xa2;" horiz-adv-x="1398" 
d="M686 1772q61 4 109 4q162 0 325 -87q164 -87 164 -163q0 -13 -8 -32q-6 -14 -31 -41q-23 -24 -36 -36q-39 -35 -49 -43q-30 -25 -44 -39q-2 -2 -20 -18t-32 -29q-36 -33 -57 -51q-7 -6 -49 -41q-29 -24 -44 -33q-17 -10 -25 -10q-21 0 -30 21q-7 16 -23 66q-15 47 -43 85
q-51 72 -107 119v-670q207 -123 373 -123q85 0 142 27q59 28 84 53q27 27 40 27q33 0 33 -43q0 -61 -35 -134q-36 -75 -100 -142t-180 -113q-114 -45 -252 -45q-31 0 -105 8v-699h-102v719q-233 66 -388 252q-155 187 -155 428q0 285 138 494q138 208 405 270v705h102v-686z
M262 1335q0 -127 90 -258q88 -128 232 -235v671q-70 35 -140 35q-87 0 -134 -59q-48 -60 -48 -154z" />
    <glyph glyph-name="sterling" unicode="&#xa3;" horiz-adv-x="1644" 
d="M1395 0h-1354q101 60 168 188t67 285q0 148 -47 304q-60 199 -94 320q-47 167 -47 337q0 279 219 462t633 183q144 0 291 -39q149 -40 239 -94q93 -56 93 -103q0 -44 -95 -213q-3 -5 -14.5 -27t-18.5 -34q-20 -33 -26 -48t-18 -35q-4 -7 -10 -16t-6 -10q-5 -8 -12 -15
q-8 -8 -13 -9q-8 -2 -15 -2q-14 0 -51 49q-51 67 -96 119q-62 71 -136 138q-75 68 -197 118q-119 49 -253 49q-148 0 -253 -103q-103 -102 -103 -241q0 -122 102 -263q38 -42 49 -47q10 -2 19 -2q16 0 55 28q40 29 100 56q64 29 142 29q107 0 305 -80t248 -80q44 0 71 11
q32 13 43 25q8 9 26 25q12 11 24 11q13 0 23 -8q9 -7 12 -31q3 -22 3 -34v-44q0 -136 -95 -237t-249 -101q-82 0 -159 36q-76 36 -130 87q-58 55 -103 104q-46 50 -101 88q-51 35 -107 35q-26 0 -34 -11t-1 -25h-2q100 -111 148 -177q54 -74 102 -198q49 -125 47 -264
q-1 -118 -56 -227q-54 -107 -142 -152h166q125 0 238 46q115 47 193 113q74 63 147 147q70 80 112 146q47 73 79 113q36 45 56 45q37 0 22 -59q-33 -136 -74 -318q-24 -105 -75 -315q-8 -35 -55 -35z" />
    <glyph glyph-name="yen" unicode="&#xa5;" horiz-adv-x="1720" 
d="M41 2048h551q135 0 201 -105q65 -103 65 -247q0 -88 -30 -174q-33 -93 -65 -147q-36 -59 -66 -146q-29 -83 -29 -172q0 -85 65 -146t184 -59q95 0 161 33q67 34 97 87q30 54 42 104t12 108q0 89 -47 201q-45 107 -105 199t-104 185q-47 100 -47 162q0 50 32 83
q33 34 82 34h478q161 0 161 -301q0 -176 -71 -346q-71 -171 -158 -282q-72 -92 -196 -240q-107 -128 -150 -199h188v-102h-233q-6 -24 -6 -50l239 2v-102h-229q12 -74 45 -137q34 -65 64 -98q36 -39 57 -71q24 -36 24 -65q0 -57 -106 -57h-498q-61 0 -94 60t-33 137
q0 117 127 229l-182 2v102h317l72 48h-389v102h510q12 18 12 37q0 31 -26 31q-13 0 -80 -26t-152 -26q-110 0 -189 40q-78 40 -122 113q-42 70 -64 146q-19 65 -30 168l-1 10q-1 10 -3.5 33t-4.5 49q-7 84 -11 110q-1 7 -13 104q-10 82 -20 117q-6 21 -25 104
q-16 69 -35 109q-17 35 -44 91q-25 52 -57 90t-71 68z" />
    <glyph glyph-name="brokenbar" unicode="&#xa6;" horiz-adv-x="184" 
d="M143 1210h-102v1248h102v-1248zM41 -410v1248h102v-1248h-102z" />
    <glyph glyph-name="section" unicode="&#xa7;" horiz-adv-x="1398" 
d="M229 1356q-188 136 -188 373q0 124 59 211q62 91 160 138q101 48 211 69q116 22 236 22q260 0 456 -77q195 -76 195 -169q0 -98 -66 -188t-125 -90q-89 0 -191 63q-98 60 -177 138q-81 80 -173 139q-97 63 -184 63q-64 0 -113 -36q-50 -36 -50 -105q0 -71 79 -108
q77 -37 230 -64q136 -24 221 -46q89 -23 203 -68q110 -43 179 -100q70 -58 116 -147q47 -91 47 -205q0 -219 -166 -352q166 -135 166 -352q0 -135 -63 -237t-159 -154q-101 -54 -197 -79q-101 -26 -196 -26q-226 0 -458 56q-230 56 -230 129q0 75 70 230q69 153 127 153
q38 0 110 -42q56 -33 148 -94q77 -51 199 -93q123 -42 249 -42q111 0 200 56t89 133q0 63 -86 63q-32 0 -146 -13t-206 -13q-108 0 -207 16q-108 17 -205 56q-103 41 -179 99q-78 60 -125 152q-48 95 -48 209q0 220 188 332zM319 1300q-40 -37 -40 -98q0 -72 101 -124
q98 -50 217 -72q115 -21 210 -21q128 0 283 50q153 49 153 122q0 66 -86 66q-23 0 -146 -14q-114 -13 -204 -13q-270 0 -488 104z" />
    <glyph glyph-name="dieresis" unicode="&#xa8;" horiz-adv-x="753" 
d="M567 2169q-61 0 -104 43t-43 104q0 60 43 103t104 43q60 0 103 -43t43 -103q0 -61 -43 -104t-103 -43zM41 2316q0 60 43 103t104 43q60 0 103 -43t43 -103q0 -61 -43 -104t-103 -43q-61 0 -104 43t-43 104z" />
    <glyph glyph-name="copyright" unicode="&#xa9;" horiz-adv-x="2191" 
d="M1096 -31q-285 0 -530 142q-243 141 -384 384t-141 529t141 529t384 384q245 142 530 142q284 0 529 -142q243 -141 384 -384t141 -529t-141 -529t-384 -384q-245 -142 -529 -142zM119 1022q0 -262 131 -488t355 -356q226 -131 489 -131q262 0 488 131q224 130 355 356
t131 488q0 263 -131 489q-132 228 -355 357q-226 131 -488 131q-263 0 -489 -131q-223 -129 -355 -357q-131 -226 -131 -489zM1118 272q-299 0 -525 206q-224 205 -224 503q0 160 47 303q47 142 137 250t237 171q145 62 332 62q162 0 326 -87t164 -162q0 -13 -8 -32
q-6 -14 -31 -41q-23 -24 -36 -36q-39 -35 -49 -43q-30 -25 -44 -39q-2 -2 -20 -18t-32 -29q-22 -20 -58 -51q-42 -36 -48 -41q-29 -24 -44 -33q-17 -10 -25 -10q-21 0 -30 20q-10 23 -24 67q-15 47 -43 85q-68 97 -161 160t-187 63q-87 0 -134 -59q-48 -60 -48 -154
q0 -158 136 -321q138 -166 323 -264q186 -99 337 -99q86 0 143 27q59 28 84 53q27 27 40 27q33 0 33 -43q0 -62 -35 -135q-34 -71 -101 -141t-179 -114q-114 -45 -253 -45z" />
    <glyph glyph-name="ordfeminine" unicode="&#xaa;" horiz-adv-x="1124" 
d="M41 1272q0 146 83 261q82 113 202 174t266 89q53 11 53 64q0 62 -27 105t-100 42q-61 0 -122 -47q-62 -48 -98 -103q-36 -54 -79 -104q-41 -47 -69 -47q-19 0 -32 14q-14 16 -14 33v80q0 14 -1 30q-1 24 0 31t3 26q1 15 10 29q7 11 17 21q125 117 408 117q233 0 362 -132
t129 -304v-434q0 -122 51 -173h-356q-59 0 -76 64q-12 51 -39 51q-23 0 -57 -34q-29 -29 -98 -67q-62 -34 -156 -34q-107 0 -183 72q-77 72 -77 176zM592 1702q-76 0 -139 -83q-64 -84 -64 -210q0 -201 139 -201q58 0 88 46q31 48 31 120q0 71 -1 119t-1 117q0 92 -53 92z
" />
    <glyph glyph-name="guillemotleft" unicode="&#xab;" horiz-adv-x="589" 
d="M467 451q0 29 -36 63t-78 60q-39 24 -78 61q-35 34 -35 63q0 36 56 79q19 14 57 43.5t57 44.5q57 43 57 81q0 21 -4 37t-4 23q0 18 20 18q28 0 48 -19q22 -20 22 -49q0 -47 -38 -88t-83 -65q-42 -22 -83 -52q-38 -27 -38 -53q0 -22 38 -51q34 -26 83 -52q45 -24 83 -65
t38 -88q0 -28 -22 -48q-20 -19 -48 -19q-20 0 -20 18q0 7 4 23t4 35zM41 698q0 36 56 79q19 14 57 43.5t57 44.5q57 43 57 81q0 19 -3 37t-3 23q0 18 19 18q28 0 48 -19q21 -20 21 -49q0 -47 -38 -88t-83 -65q-42 -22 -83 -52q-37 -27 -37 -53q0 -23 37 -51q34 -26 83 -52
q45 -24 83 -65t38 -88q0 -28 -21 -48q-20 -19 -48 -19q-19 0 -19 18q0 5 3 23t3 35q0 36 -56 79l-114 87q-57 43 -57 81z" />
    <glyph glyph-name="registered" unicode="&#xae;" horiz-adv-x="1136" 
d="M567 1024q-218 0 -372 154t-154 372q0 219 155 374t371 155q219 0 374 -155t155 -374q0 -216 -155 -371t-374 -155zM80 1550q0 -201 143 -344t344 -143t344 143q144 144 144 344t-144 344t-344 144t-344 -144q-143 -143 -143 -344zM346 1837q0 61 -27 88h299
q129 0 188 -58q60 -58 60 -155q0 -80 -57 -143q-58 -64 -174 -64q-50 0 -105 25q-52 24 -57 24q-12 0 -12 -8q0 -28 164 -90q56 -22 85 -35q19 -9 69 -37q43 -25 61 -57q18 -33 18 -76q0 -67 -49 -67h-160q-20 0 -20 18q0 6 6 27t6 41t-4 36q-5 19 -15 33q-13 18 -20 29
q-5 8 -27 30q-15 15 -27 25q-2 2 -7 6.5t-11.5 10t-13.5 10.5q-20 16 -29 25q-3 2 -23 20q-4 4 -12 11t-11 10l-18 15q-3 2 -5.5 4t-5.5 4t-4 3q-5 4 -11 4q-10 0 -10 -12q0 -39 49 -78q50 -39 99 -87t49 -109q0 -28 -15 -52t-39 -24h-211q27 27 27 88v565zM629 1890
q-89 0 -167 -71q-79 -72 -79 -142q0 -47 34 -72q35 -26 87 -26q93 0 163 67q68 65 68 142q0 48 -28 75q-29 27 -78 27z" />
    <glyph glyph-name="macron" unicode="&#xaf;" horiz-adv-x="653" 
d="M41 2290q0 22 22 22h527q22 0 22 -22v-99q0 -22 -22 -22h-527q-22 0 -22 22v99z" />
    <glyph glyph-name="degree" unicode="&#xb0;" horiz-adv-x="825" 
d="M414 1335q-155 0 -264 109t-109 262q0 155 109 264t264 109q153 0 262 -109q108 -108 108 -264q0 -154 -108 -262q-109 -109 -262 -109zM113 1706q0 -122 87 -211q87 -88 214 -88q123 0 210 88q87 89 87 211q0 124 -86 213q-85 88 -211 88q-127 0 -214 -88
q-87 -89 -87 -213z" />
    <glyph glyph-name="plusminus" unicode="&#xb1;" horiz-adv-x="860" 
d="M481 662h340v-103h-340v-338h-102v338h-338v103h338v337h102v-337zM41 20v103h778v-103h-778z" />
    <glyph glyph-name="uni00B2" unicode="&#xb2;" horiz-adv-x="894" 
d="M41 1796q0 133 124 208t286 75q175 0 288 -91q115 -92 115 -251q0 -115 -54 -196q-53 -80 -137 -118q-74 -34 -179 -67q-102 -32 -178 -49q-80 -18 -137 -60q-54 -41 -54 -102q0 -74 59 -74q51 0 109 41q54 38 103 89q47 49 126 89q80 41 170 41q68 0 116 -39t48 -86
q0 -29 -47 -131q-11 -22 -13 -27q-2 -6 -5 -14t-4 -10q-5 -13 -7 -16q-7 -11 -8 -12q-4 -3 -10 -3q-8 0 -18 13q-12 16 -20 25q-13 14 -39 26q-27 12 -67 12q-54 0 -166 -38t-186 -38q-96 0 -151 55q-54 54 -54 138q0 91 68 173q66 79 164 139q88 53 193 115q100 58 165 125
q68 70 68 142q0 66 -59 105q-57 38 -150 38q-94 0 -156 -52q-63 -53 -63 -134q0 -48 35 -83q36 -36 77 -36q21 -43 -24 -88t-121 -45q-87 0 -147 63t-60 148z" />
    <glyph glyph-name="uni00B3" unicode="&#xb3;" horiz-adv-x="915" 
d="M41 1194q0 62 74 115t137 53q19 0 33 -13t14 -30q0 -32 -14 -88q-15 -60 -15 -86q0 -101 76 -101q78 0 169 108q91 107 91 224q0 46 -32 73q-33 28 -76 28q-47 0 -119 -21q-69 -20 -111 -20q-44 0 -70 24t-26 62q0 61 64 105t155 71q31 9 92 26.5t91 26.5q93 28 155 73
q64 47 64 111q0 54 -50 54q-32 0 -103 -50q-66 -46 -174 -98q-102 -49 -214 -49q-65 0 -115 26q-49 25 -49 64q0 53 37 121q38 70 55 70q9 0 59 -22q48 -21 119 -21q69 0 172 25q107 26 175 26q61 0 102 -42q41 -43 41 -104q0 -82 -41 -149q-40 -65 -99 -100
q-61 -36 -117 -59q-59 -24 -99 -42q-41 -18 -41 -35q0 -22 28 -22q37 0 83 14t106 14q87 0 146 -55q60 -56 60 -143q0 -181 -136 -272t-326 -91q-135 0 -253 60t-118 139z" />
    <glyph glyph-name="acute" unicode="&#xb4;" horiz-adv-x="604" 
d="M41 2222q0 8 7 9q5 1 28 1q20 0 41 6q49 15 143 64q64 34 110 81q32 33 69 77q24 28 46 28q36 0 57 -44t21 -85q0 -59 -125 -125q-123 -65 -243 -65q-64 0 -107 14q-47 15 -47 39z" />
    <glyph glyph-name="cedilla" unicode="&#xb8;" horiz-adv-x="387" 
d="M141 -440q-42 0 -70 17q-30 18 -30 42q0 31 27 31l16 -12q18 -13 51 -13q60 0 101 38q40 37 40 93q0 31 -23 50q-25 20 -54 20q-36 0 -62 -13l-28 -14q-6 0 -27 21q-23 23 -19 28q7 14 40 91q7 16 14 31.5t13.5 30t8.5 19.5h54q-1 -2 -29 -64q-24 -53 -35 -83
q-1 -2 -1 -3l-1 -2q0 -2 8 3q35 18 70 18q66 0 103 -37q38 -38 38 -100q0 -79 -63 -136q-62 -56 -142 -56z" />
    <glyph glyph-name="uni00B9" unicode="&#xb9;" horiz-adv-x="434" 
d="M393 1024h-352q37 37 37 125v725q0 62 -15 70q-20 11 -20 20q0 8 14 12q52 7 123 37q69 29 113 54q46 26 51 26q12 0 12 -43v-901q0 -87 37 -125z" />
    <glyph glyph-name="ordmasculine" unicode="&#xba;" horiz-adv-x="1132" 
d="M190 1165q-151 155 -149 376q1 219 160 378q160 160 383 160q210 0 360 -150q152 -154 149 -374q-3 -219 -161 -377q-159 -162 -383 -162q-213 0 -359 149zM496 2001q-73 -11 -103 -152t0 -333q30 -188 102 -316q71 -125 142 -115q69 11 99 153q30 141 1 333
q-29 191 -99 315q-71 125 -142 115z" />
    <glyph glyph-name="guillemotright" unicode="&#xbb;" horiz-adv-x="589" 
d="M309 375q-28 0 -48 19q-21 20 -21 48q0 47 38 88q39 42 82 65q49 26 83 52q38 29 38 51q0 26 -38 53q-41 30 -83 52q-43 23 -82 65q-38 41 -38 88q0 29 21 49q20 19 48 19q21 0 21 -18q0 -7 -4 -23t-4 -37q0 -29 35 -63q38 -36 78 -62q47 -30 78 -60q36 -35 36 -63
t-36 -63q-39 -37 -78 -61q-45 -27 -78 -59q-35 -34 -35 -62q0 -21 4 -37t4 -23q0 -18 -21 -18zM41 956q0 29 21 49q20 19 49 19q20 0 20 -18q0 -7 -4 -23t-4 -37q0 -38 57 -81q19 -15 57 -44.5t57 -43.5q56 -43 56 -79q0 -28 -36 -63q-41 -39 -77 -61q-45 -27 -78 -59
q-36 -34 -36 -62q0 -21 4 -37t4 -23q0 -18 -20 -18q-29 0 -49 19q-21 20 -21 48q0 47 38 88t83 65q49 26 83 52q38 29 38 51q0 26 -38 53q-41 30 -83 52q-45 24 -83 65t-38 88z" />
    <glyph glyph-name="onequarter" unicode="&#xbc;" horiz-adv-x="1521" 
d="M662 313q0 77 35 160q29 69 73 192q37 104 37 224q0 94 -59 166h301q51 0 75 -38q25 -39 25 -89q0 -91 -65 -191t-143 -166q-77 -65 -143 -136q-65 -70 -65 -111q0 -58 80 -58h299v240q0 86 -37 123h352q-36 -36 -36 -123v-240h92v-53h-92v-88q0 -89 36 -125h-352
q37 37 37 125v88h-332q-50 0 -85 27q-33 26 -33 73zM465 1024h-352q37 37 37 125v725q0 62 -15 70q-20 11 -20 20q0 8 14 12q52 7 123 37q69 29 113 54q46 26 51 26q12 0 12 -43v-901q0 -88 37 -125zM96 -31h-55l1102 2110h55z" />
    <glyph glyph-name="onehalf" unicode="&#xbd;" horiz-adv-x="1521" 
d="M877 592q-88 0 -147 62q-60 63 -60 149q0 133 124 208q123 74 285 74q175 0 288 -91q114 -92 114 -251q0 -113 -55 -195q-54 -81 -136 -118q-87 -40 -178 -68q-108 -34 -178 -49q-81 -18 -136 -59t-55 -102q0 -74 60 -74q49 0 107 41q57 41 104 89q46 48 127 89
q80 41 170 41q67 0 115 -39q49 -40 49 -86q0 -25 -50 -131q-4 -8 -12 -28q-2 -6 -5 -13.5t-4 -9.5q-6 -16 -7 -17q-6 -9 -8 -11q-5 -3 -11 -3q-8 0 -20 18t-41 38t-80 20q-54 0 -166 -38t-188 -38q-97 0 -151 54t-54 141q0 93 67 172t165 138q65 39 195 115q102 60 165 124
q67 68 67 143q0 66 -59 104q-60 39 -150 39q-93 0 -155 -52q-64 -53 -64 -134q0 -47 36 -83t77 -36q18 -43 -26 -88t-119 -45zM113 1055q37 37 37 125v725q0 61 -15 69q-20 11 -20 21q0 8 14 12q52 7 123 37q69 29 113 54q46 26 51 26q12 0 12 -43v-901q0 -88 37 -125h-352z
M96 0h-55l1102 2109h55z" />
    <glyph glyph-name="threequarters" unicode="&#xbe;" horiz-adv-x="1787" 
d="M41 1194q0 62 74 115t137 53q19 0 33 -13t14 -30q0 -32 -14 -88q-15 -60 -15 -86q0 -101 76 -101q78 0 169 108q91 107 91 224q0 46 -32 73q-33 28 -76 28q-47 0 -119 -21q-69 -20 -111 -20q-44 0 -70 24t-26 62q0 61 64 105t155 71q31 9 92 26.5t91 26.5q93 28 155 73
q64 47 64 111q0 54 -50 54q-32 0 -103 -50q-66 -46 -174 -98q-102 -49 -214 -49q-65 0 -115 26q-49 25 -49 64q0 53 37 121q38 70 55 70q9 0 59 -22q48 -21 119 -21q69 0 172 25q107 26 175 26q61 0 102 -42q41 -43 41 -104q0 -82 -41 -149q-40 -65 -99 -100
q-61 -36 -117 -59q-59 -24 -99 -42q-41 -18 -41 -35q0 -22 28 -22q37 0 83 14t106 14q87 0 146 -55q60 -56 60 -143q0 -181 -136 -272t-326 -91q-135 0 -253 60t-118 139zM1044 213q-48 0 -82 27t-34 73q0 74 36 160q23 54 72 192q37 104 37 224q0 89 -59 166h301
q52 0 76 -38q24 -37 24 -89q0 -94 -65 -191q-65 -98 -144 -166q-75 -65 -143 -136q-66 -69 -66 -111q0 -58 82 -58h299v240q0 85 -37 123h353q-37 -37 -37 -123v-240h90v-53h-90v-88q0 -88 37 -125h-353q37 38 37 125v88h-334zM362 0h-55l1100 2109h55z" />
    <glyph glyph-name="questiondown" unicode="&#xbf;" horiz-adv-x="1601" 
d="M41 600q0 122 47 219q45 93 105 153q55 55 174 107q123 53 182 71q63 19 203 54q42 12 55 15q173 45 127 202q-4 10 4 21q7 10 20 10q75 0 121 -76q47 -77 47 -172q0 -106 -68 -187t-165 -142q-111 -70 -194 -123q-94 -61 -165 -161q-69 -98 -69 -224q0 -111 75 -183
q74 -71 191 -71q98 0 164 59t101 159q33 95 47 196t14 202q0 55 26 91q27 38 62 38q51 0 106 -39q130 -89 234 -205q46 -50 60 -83q16 -37 16 -91q0 -200 -229 -336q-228 -135 -535 -135q-191 0 -363 73q-169 72 -281 220t-112 338zM682 1810q0 113 78 191t188 78
q113 0 191 -78t78 -191q0 -110 -78 -188t-191 -78q-110 0 -188 78t-78 188z" />
    <glyph glyph-name="Agrave" unicode="&#xc0;" horiz-adv-x="1841" 
d="M0 0q39 33 75 103q35 68 52 123q3 9 20.5 67t32.5 104q115 381 181 680q69 313 151 764q24 139 -45 207h907q-69 -68 -45 -207q82 -451 151 -764q66 -299 181 -680q15 -46 32.5 -104t20.5 -67q17 -55 52 -123q36 -70 75 -103h-846q74 85 74 223q0 116 -68 504h-301
q50 -122 71 -176q20 -52 47 -159q24 -95 24 -175q0 -88 -34 -152q-35 -65 -116 -65h-692zM661 819h322q-159 828 -305 828q-141 0 -141 -318q0 -202 124 -510zM1022 2169q-121 0 -244 65q-125 66 -125 125q0 39 22 85q21 44 56 44q22 0 46 -27q40 -45 70 -76q48 -50 109 -83
q93 -49 144 -64q21 -6 41 -6q22 0 27 -1q8 -2 8 -9q0 -24 -48 -39q-43 -14 -106 -14z" />
    <glyph glyph-name="Aacute" unicode="&#xc1;" horiz-adv-x="1841" 
d="M0 0q39 33 75 103q35 68 52 123q3 9 20.5 67t32.5 104q115 381 181 680q69 313 151 764q24 139 -45 207h907q-69 -68 -45 -207q82 -451 151 -764q66 -299 181 -680q15 -46 32.5 -104t20.5 -67q17 -55 52 -123q36 -70 75 -103h-846q74 85 74 223q0 116 -68 504h-301
q50 -122 71 -176q20 -52 47 -159q24 -95 24 -175q0 -88 -34 -152q-35 -65 -116 -65h-692zM661 819h322q-159 828 -305 828q-141 0 -141 -318q0 -202 124 -510zM807 2169q-64 0 -107 14q-47 15 -47 39q0 8 7 9q5 1 28 1q20 0 41 6q49 15 143 64q64 34 110 81q39 41 70 77
q24 28 46 28q36 0 57 -44t21 -85q0 -59 -125 -125q-123 -65 -244 -65z" />
    <glyph glyph-name="Acircumflex" unicode="&#xc2;" horiz-adv-x="1841" 
d="M0 0q39 33 75 103q35 68 52 123q3 9 20.5 67t32.5 104q115 381 181 680q69 313 151 764q24 139 -45 207h907q-69 -68 -45 -207q82 -451 151 -764q66 -299 181 -680q15 -46 32.5 -104t20.5 -67q17 -55 52 -123q36 -70 75 -103h-846q74 85 74 223q0 116 -68 504h-301
q50 -122 71 -176q20 -52 47 -159q24 -95 24 -175q0 -88 -34 -152q-35 -65 -116 -65h-692zM661 819h322q-159 828 -305 828q-141 0 -141 -318q0 -202 124 -510zM680 2169q-22 0 -42 41q-19 40 -21 77q-1 36 18 42q1 0 3 -0.5t4 -1.5t5.5 -2t7.5 -2q18 -5 33 -5q40 0 118 58
q76 57 109 57t110 -57q78 -58 118 -58q15 0 33 5q4 1 7.5 2t5.5 2t4 1.5t3 0.5q18 -6 17 -42q-2 -39 -20 -77q-20 -41 -42 -41q-43 0 -85 52q-40 50 -80 106q-38 53 -71 53q-32 0 -70 -53q-40 -56 -80 -106q-42 -52 -85 -52z" />
    <glyph glyph-name="Atilde" unicode="&#xc3;" horiz-adv-x="1841" 
d="M0 0q39 33 75 103q35 68 52 123q3 9 20.5 67t32.5 104q115 381 181 680q69 313 151 764q24 139 -45 207h907q-69 -68 -45 -207q82 -451 151 -764q66 -299 181 -680q15 -46 32.5 -104t20.5 -67q17 -55 52 -123q36 -70 75 -103h-846q74 85 74 223q0 116 -68 504h-301
q50 -122 71 -176q20 -52 47 -159q24 -95 24 -175q0 -88 -34 -152q-35 -65 -116 -65h-692zM661 819h322q-159 828 -305 828q-141 0 -141 -318q0 -202 124 -510zM625 2236q0 67 52 107q53 41 122 41q78 0 168 -35t143 -35q32 0 49 19q17 18 23 18q10 0 17 -16q7 -15 7 -33
q0 -63 -47 -98t-110 -35q-46 0 -145 35q-96 34 -165 34q-45 0 -71 -22l-27 -21q-16 0 -16 41z" />
    <glyph glyph-name="Adieresis" unicode="&#xc4;" horiz-adv-x="1841" 
d="M0 0q39 33 75 103q35 68 52 123q3 9 20.5 67t32.5 104q115 381 181 680q69 313 151 764q24 139 -45 207h907q-69 -68 -45 -207q82 -451 151 -764q66 -299 181 -680q15 -46 32.5 -104t20.5 -67q17 -55 52 -123q36 -70 75 -103h-846q74 85 74 223q0 116 -68 504h-301
q50 -122 71 -176q20 -52 47 -159q24 -95 24 -175q0 -88 -34 -152q-35 -65 -116 -65h-692zM661 819h322q-159 828 -305 828q-141 0 -141 -318q0 -202 124 -510zM727 2169q-59 0 -102 43t-43 104q0 60 43 103t102 43q61 0 103 -43t42 -103t-42 -104q-42 -43 -103 -43z
M961 2316q0 60 43 103t104 43q59 0 102 -43t43 -103q0 -61 -43 -104t-102 -43q-61 0 -104 43t-43 104z" />
    <glyph glyph-name="Aring" unicode="&#xc5;" horiz-adv-x="1841" 
d="M0 0q39 33 75 103q35 68 52 123q3 9 20.5 67t32.5 104q115 381 181 680q69 313 151 764q24 139 -45 207h907q-69 -68 -45 -207q82 -451 151 -764q66 -299 181 -680q15 -46 32.5 -104t20.5 -67q17 -55 52 -123q36 -70 75 -103h-846q74 85 74 223q0 116 -68 504h-301
q50 -122 71 -176q20 -52 47 -159q24 -95 24 -175q0 -88 -34 -152q-35 -65 -116 -65h-692zM661 819h322q-159 828 -305 828q-141 0 -141 -318q0 -202 124 -510zM690 2304q0 94 66 160q65 65 159 65q95 0 160 -65q66 -66 66 -160t-66 -160q-65 -65 -160 -65q-94 0 -159 65
q-66 66 -66 160zM915 2486q-76 0 -129 -53t-53 -129t53 -129t129 -53q75 0 128 53t53 129t-53 129t-128 53z" />
    <glyph glyph-name="AE" unicode="&#xc6;" horiz-adv-x="2711" 
d="M692 0h-692q39 33 75 103q35 68 52 123q3 9 20.5 67t32.5 104q116 381 181 673q69 309 151 771q24 139 -45 207h879q-70 -68 -46 -207q22 -124 23 -129q208 367 580 367q73 0 225 -41t246 -41q78 0 151 41t94 41q37 0 46 -47t-6 -114q-14 -63 -46 -136
q-122 -271 -286 -271q-123 0 -236 39t-183 84q-70 44 -164 84q-93 39 -181 39q-49 0 -84 -27t-53 -70q-15 -35 -24 -80q-7 -35 -7 -71q0 -14 -1 -38t-1 -62q0 -25 3 -60t12 -54t26 -19q22 0 58 27q33 25 94 53q56 26 138 26q106 0 288 -84t255 -84q56 0 97 40t53 40
q47 0 51 -116q0 -56 -21 -113q-23 -63 -59 -111q-39 -52 -110 -87q-67 -33 -160 -33q-85 0 -163 37q-75 36 -136 93q-66 63 -110 109q-55 58 -104 93q-53 38 -100 38q-43 0 -51 -42q-8 -43 8 -72q99 -284 288 -463q188 -178 400 -178q100 0 177 30q74 29 116 76q44 49 70 90
q31 49 54 76q26 31 52 31q51 0 52 -111q0 -105 -48 -223q-46 -112 -133 -216q-84 -100 -231 -167q-145 -66 -322 -66q-367 0 -592 189t-333 569h-312q50 -122 71 -176q20 -52 47 -159q24 -95 24 -175q0 -88 -34 -152q-35 -65 -116 -65zM678 1647q-141 0 -141 -318
q0 -200 125 -510h325q-6 32 -16 68q-123 463 -154 555q-74 204 -139 205z" />
    <glyph glyph-name="Ccedilla" unicode="&#xc7;" horiz-adv-x="1603" 
d="M51 1024q0 199 46 380q47 185 135 337q89 154 235 246t328 92q73 0 225 -41t246 -41q78 0 151 41t94 41q29 0 41 -28q13 -30 9 -72q-5 -47 -19 -95q-16 -54 -37 -102q-39 -89 -90 -156q-21 -27 -103 -115q-87 -94 -127 -158q-44 -71 -44 -139q0 -52 33 -90q33 -37 86 -37
q22 0 38 11q14 10 23 10q22 0 34 -37q11 -34 11 -76q0 -115 -98 -204q-100 -91 -228 -91q-124 0 -215 86q-90 86 -90 209q0 86 44 159q43 72 106 119q60 46 124 82q65 37 106 64q44 29 44 51q0 40 -57 50q-116 18 -231 78q-134 70 -216 110q-99 49 -200 49q-49 0 -84 -27
t-53 -70q-15 -35 -24 -80q-7 -35 -7 -71q0 -163 51 -345t142 -343q92 -162 240 -267t322 -105q100 0 177 30q74 29 116 76q44 49 70 90q31 49 54 76q26 31 52 31q52 0 52 -111q0 -103 -46 -216q-48 -116 -128 -216q-84 -104 -215 -170q-136 -69 -287 -70q-2 -5 -20 -45
q-13 -30 -21 -51q0 -1 -1 -3l-1 -2q0 -2 8 3q34 18 70 18q66 0 103 -37q38 -38 38 -100q0 -78 -64 -136q-62 -56 -141 -56q-43 0 -71 17q-29 17 -29 42q0 31 26 31l17 -12q18 -13 51 -13q59 0 100 38t41 93q0 31 -23 50q-25 20 -55 20q-35 0 -61 -13q-28 -14 -29 -14
q-5 0 -26 21q-23 23 -19 28q9 16 56 121q-347 18 -566 290q-219 271 -219 765z" />
    <glyph glyph-name="Egrave" unicode="&#xc8;" horiz-adv-x="1603" 
d="M881 -31q-361 0 -596 274q-234 273 -234 781q0 199 46 380q47 185 135 337q89 154 235 246t328 92q73 0 225 -41t246 -41q78 0 151 41t94 41q29 0 41 -28q13 -30 9 -72q-5 -47 -19 -95q-16 -54 -37 -102q-18 -44 -42 -84q-29 -48 -60 -86q-40 -47 -85 -73
q-50 -28 -99 -28q-123 0 -236 39t-183 84q-70 44 -164 84q-93 39 -181 39q-49 0 -84 -27t-53 -70q-15 -35 -24 -80q-7 -35 -7 -71q0 -14 -1 -38t-1 -62q0 -25 3 -60t12 -54t26 -19q22 0 58 27q33 25 94 53q56 26 138 26q106 0 288 -84t255 -84q56 0 97 40t53 40
q51 0 51 -116q0 -56 -21 -113q-23 -63 -59 -111q-39 -52 -110 -87q-67 -33 -160 -33q-85 0 -163 37q-75 36 -136 93q-66 63 -110 109q-55 58 -104 93q-53 38 -100 38q-78 0 -43 -114q92 -283 284 -462q193 -179 404 -179q100 0 177 30q74 29 116 76q44 49 70 90q31 49 54 76
q26 31 52 31q52 0 52 -111q0 -108 -46 -222q-46 -113 -131 -217q-83 -101 -217 -167q-133 -66 -288 -66zM637 2359q0 41 21 85t57 44q22 0 46 -27q51 -58 69 -76q47 -48 110 -83q94 -49 143 -64q21 -6 41 -6q23 0 28 -1q7 -1 7 -9q0 -24 -47 -39q-43 -14 -106 -14
q-121 0 -244 65q-125 66 -125 125z" />
    <glyph glyph-name="Eacute" unicode="&#xc9;" horiz-adv-x="1603" 
d="M881 -31q-361 0 -596 274q-234 273 -234 781q0 199 46 380q47 185 135 337q89 154 235 246t328 92q73 0 225 -41t246 -41q78 0 151 41t94 41q29 0 41 -28q13 -30 9 -72q-5 -47 -19 -95q-16 -54 -37 -102q-18 -44 -42 -84q-29 -48 -60 -86q-40 -47 -85 -73
q-50 -28 -99 -28q-123 0 -236 39t-183 84q-70 44 -164 84q-93 39 -181 39q-49 0 -84 -27t-53 -70q-15 -35 -24 -80q-7 -35 -7 -71q0 -14 -1 -38t-1 -62q0 -25 3 -60t12 -54t26 -19q22 0 58 27q33 25 94 53q56 26 138 26q106 0 288 -84t255 -84q56 0 97 40t53 40
q51 0 51 -116q0 -56 -21 -113q-23 -63 -59 -111q-39 -52 -110 -87q-67 -33 -160 -33q-85 0 -163 37q-75 36 -136 93q-66 63 -110 109q-55 58 -104 93q-53 38 -100 38q-78 0 -43 -114q92 -283 284 -462q193 -179 404 -179q100 0 177 30q74 29 116 76q44 49 70 90q31 49 54 76
q26 31 52 31q52 0 52 -111q0 -108 -46 -222q-46 -113 -131 -217q-83 -101 -217 -167q-133 -66 -288 -66zM637 2222q0 8 7 9q5 1 28 1q20 0 41 6q49 15 143 64q64 34 110 81q32 33 69 77q24 28 46 28q37 0 58 -44q20 -41 20 -85q0 -59 -125 -125q-123 -65 -243 -65
q-64 0 -107 14q-47 15 -47 39z" />
    <glyph glyph-name="Ecircumflex" unicode="&#xca;" horiz-adv-x="1603" 
d="M881 -31q-361 0 -596 274q-234 273 -234 781q0 199 46 380q47 185 135 337q89 154 235 246t328 92q73 0 225 -41t246 -41q78 0 151 41t94 41q29 0 41 -28q13 -30 9 -72q-5 -47 -19 -95q-16 -54 -37 -102q-18 -44 -42 -84q-29 -48 -60 -86q-40 -47 -85 -73
q-50 -28 -99 -28q-123 0 -236 39t-183 84q-70 44 -164 84q-93 39 -181 39q-49 0 -84 -27t-53 -70q-15 -35 -24 -80q-7 -35 -7 -71q0 -14 -1 -38t-1 -62q0 -25 3 -60t12 -54t26 -19q22 0 58 27q33 25 94 53q56 26 138 26q106 0 288 -84t255 -84q56 0 97 40t53 40
q51 0 51 -116q0 -56 -21 -113q-23 -63 -59 -111q-39 -52 -110 -87q-67 -33 -160 -33q-85 0 -163 37q-75 36 -136 93q-66 63 -110 109q-55 58 -104 93q-53 38 -100 38q-78 0 -43 -114q92 -283 284 -462q193 -179 404 -179q100 0 177 30q74 29 116 76q44 49 70 90q31 49 54 76
q26 31 52 31q52 0 52 -111q0 -108 -46 -222q-46 -113 -131 -217q-83 -101 -217 -167q-133 -66 -288 -66zM664 2169q-22 0 -42 41q-19 40 -21 77q-1 36 18 42q1 0 3 -0.5t4 -1.5t5.5 -2t7.5 -2q18 -5 33 -5q40 0 118 58q76 57 109 57q34 0 110 -57q78 -58 117 -58q15 0 33 5
q4 1 9 2.5t8 2.5t4 1q18 -6 17 -42q-2 -39 -20 -77q-20 -41 -42 -41q-43 0 -85 52q-40 50 -80 106q-38 53 -71 53t-71 -53q-48 -68 -79 -106q-42 -52 -85 -52z" />
    <glyph glyph-name="Edieresis" unicode="&#xcb;" horiz-adv-x="1603" 
d="M881 -31q-361 0 -596 274q-234 273 -234 781q0 199 46 380q47 185 135 337q89 154 235 246t328 92q73 0 225 -41t246 -41q78 0 151 41t94 41q29 0 41 -28q13 -30 9 -72q-5 -47 -19 -95q-16 -54 -37 -102q-18 -44 -42 -84q-29 -48 -60 -86q-40 -47 -85 -73
q-50 -28 -99 -28q-123 0 -236 39t-183 84q-70 44 -164 84q-93 39 -181 39q-49 0 -84 -27t-53 -70q-15 -35 -24 -80q-7 -35 -7 -71q0 -14 -1 -38t-1 -62q0 -25 3 -60t12 -54t26 -19q22 0 58 27q33 25 94 53q56 26 138 26q106 0 288 -84t255 -84q56 0 97 40t53 40
q51 0 51 -116q0 -56 -21 -113q-23 -63 -59 -111q-39 -52 -110 -87q-67 -33 -160 -33q-85 0 -163 37q-75 36 -136 93q-66 63 -110 109q-55 58 -104 93q-53 38 -100 38q-78 0 -43 -114q92 -283 284 -462q193 -179 404 -179q100 0 177 30q74 29 116 76q44 49 70 90q31 49 54 76
q26 31 52 31q52 0 52 -111q0 -108 -46 -222q-46 -113 -131 -217q-83 -101 -217 -167q-133 -66 -288 -66zM711 2169q-60 0 -103 43t-43 104q0 60 43 103t103 43q61 0 103 -43t42 -103t-42 -104q-42 -43 -103 -43zM944 2316q0 60 43 103t105 43q59 0 102 -43t43 -103
q0 -61 -43 -104t-102 -43q-62 0 -105 43t-43 104z" />
    <glyph glyph-name="Igrave" unicode="&#xcc;" horiz-adv-x="727" 
d="M20 0q72 72 72 242v1564q0 170 -72 242h687q-72 -72 -72 -242v-1564q0 -170 72 -242h-687zM471 2169q-121 0 -244 65q-125 66 -125 125q0 41 21 85t57 44q22 0 46 -27q40 -45 70 -76q47 -48 110 -83q94 -49 143 -64q21 -6 41 -6q22 0 27 -1q8 -2 8 -9q0 -24 -47 -39
q-43 -14 -107 -14z" />
    <glyph glyph-name="Iacute" unicode="&#xcd;" horiz-adv-x="727" 
d="M20 0q72 72 72 242v1564q0 170 -72 242h687q-72 -72 -72 -242v-1564q0 -170 72 -242h-687zM256 2169q-63 0 -106 14q-48 15 -48 39q0 7 8 9q5 1 27 1q20 0 41 6q51 15 144 64q62 32 109 81q39 41 70 77q24 28 46 28q35 0 56 -44q22 -46 22 -85q0 -59 -125 -125
q-123 -65 -244 -65z" />
    <glyph glyph-name="Icircumflex" unicode="&#xce;" horiz-adv-x="727" 
d="M20 0q72 72 72 242v1564q0 170 -72 242h687q-72 -72 -72 -242v-1564q0 -170 72 -242h-687zM129 2169q-22 0 -42 41q-18 38 -20 77q-1 36 17 42l2 -1q3 -1 8 -2.5t10 -2.5q20 -5 33 -5q40 0 118 58q77 57 110 57t109 -57q78 -58 118 -58q13 0 33 5q5 1 10 2.5t7 2.5l3 1
q19 -6 18 -42q-2 -37 -21 -77q-20 -41 -42 -41q-43 0 -85 52q-40 50 -80 106q-38 53 -70 53q-33 0 -71 -53q-40 -56 -80 -106q-42 -52 -85 -52z" />
    <glyph glyph-name="Idieresis" unicode="&#xcf;" horiz-adv-x="727" 
d="M20 0q72 72 72 242v1564q0 170 -72 242h687q-72 -72 -72 -242v-1564q0 -170 72 -242h-687zM31 2316q0 60 43 103t102 43q62 0 104 -43t42 -103t-42 -104q-42 -43 -104 -43q-59 0 -102 43t-43 104zM410 2316q0 60 43 103t104 43q59 0 102 -43t43 -103q0 -61 -43 -104
t-102 -43q-61 0 -104 43t-43 104z" />
    <glyph glyph-name="Eth" unicode="&#xd0;" horiz-adv-x="1601" 
d="M113 922h-93v102h93v782q0 170 -72 242h629q180 0 330 -84q151 -85 250 -218q101 -136 169 -306q73 -181 101 -342q30 -169 30 -332q0 -224 -42 -375q-41 -149 -128 -236q-86 -85 -198 -120q-114 -35 -271 -35h-870q72 72 72 242v680zM799 922h-154v-308q0 -275 34 -392
q34 -118 118 -118q115 0 166 227q51 226 51 689q0 84 -2 206q-1 71 -10 205q-8 125 -21 195q-15 82 -36 156q-21 73 -56 111t-80 38q-95 0 -129 -110q-35 -113 -35 -387v-410h154v-102z" />
    <glyph glyph-name="Ntilde" unicode="&#xd1;" horiz-adv-x="1699" 
d="M20 2048h611q48 0 77 -13t59 -43q27 -27 63 -107q29 -65 71 -175q29 -76 96 -276l193 -574q9 -31 20 -61q13 -40 32 -93t22 -62q17 -48 47 -122q29 -70 53 -100q25 -31 49 -31q76 0 76 223q0 183 -48 352q-47 166 -116 290q-74 134 -136 229q-70 108 -117 205
q-48 99 -48 178q0 87 65 134q64 46 162 46h428q-71 -71 -71 -242v-1564q0 -171 71 -242h-536q-70 0 -127 33q-60 35 -92 71q-34 39 -75 126q-37 79 -58 139q-21 58 -56 166q-24 76 -117 341q-35 100 -70 202.5t-38 109.5q-5 19 -21 61q-10 31 -53 155q-17 48 -47 122
q-29 70 -53 100q-25 31 -49 31q-76 0 -76 -223q0 -182 48 -352q47 -166 116 -290q74 -134 136 -229q70 -108 117 -205q48 -99 48 -178q0 -87 -65 -134q-64 -46 -162 -46h-429q72 72 72 242v1564q0 170 -72 242zM575 2195q-16 0 -16 41q0 67 52 107q53 41 122 41
q78 0 168 -35t143 -35q33 0 50 19q16 18 22 18q11 0 18 -16q7 -15 7 -33q0 -63 -47 -98t-111 -35q-45 0 -144 35q-96 34 -165 34q-46 0 -72 -22z" />
    <glyph glyph-name="Ograve" unicode="&#xd2;" horiz-adv-x="1714" 
d="M51 1024q0 475 221 765t586 290q361 0 583 -290q222 -289 222 -765t-222 -765q-222 -290 -583 -290q-365 0 -586 290t-221 765zM692 1939q-151 0 -172 -346q-24 -364 88 -823q112 -457 266 -608q56 -53 109 -53q214 0 226 457q12 458 -150 916q-162 457 -367 457z
M911 2169q-120 0 -243 65q-125 66 -125 125q0 41 21 85t57 44q22 0 46 -27q51 -58 69 -76q47 -48 110 -83q94 -49 143 -64q21 -6 41 -6q23 0 28 -1q7 -1 7 -9q0 -24 -47 -39q-43 -14 -107 -14z" />
    <glyph glyph-name="Oacute" unicode="&#xd3;" horiz-adv-x="1714" 
d="M858 -31q-365 0 -586 290t-221 765t221 765t586 290q361 0 583 -290q222 -289 222 -765t-222 -765q-222 -290 -583 -290zM692 1939q-151 0 -172 -346q-24 -364 88 -823q112 -457 266 -608q56 -53 109 -53q214 0 226 457q12 458 -150 916q-162 457 -367 457zM543 2222
q0 8 7 9q5 1 28 1q19 0 40 6q51 15 144 64q62 32 109 81q39 41 70 77q24 28 46 28q36 0 57 -44t21 -85q0 -59 -125 -125q-123 -65 -244 -65q-63 0 -106 14q-47 15 -47 39z" />
    <glyph glyph-name="Ocircumflex" unicode="&#xd4;" horiz-adv-x="1714" 
d="M51 1024q0 475 221 765t586 290q361 0 583 -290q222 -289 222 -765t-222 -765q-222 -290 -583 -290q-365 0 -586 290t-221 765zM692 1939q-151 0 -172 -346q-24 -364 88 -823q112 -457 266 -608q56 -53 109 -53q214 0 226 457q12 458 -150 916q-162 457 -367 457z
M569 2169q-22 0 -42 41q-18 38 -20 77q-1 36 17 42q1 0 4 -1t8 -2.5t9 -2.5q18 -5 33 -5q39 0 117 58q77 57 110 57t109 -57q78 -58 118 -58q15 0 33 5q4 1 7.5 2t5.5 2t4 1.5t3 0.5q19 -6 18 -42q-2 -37 -21 -77q-20 -41 -42 -41q-43 0 -85 52q-31 38 -79 106
q-38 53 -71 53t-71 -53q-40 -56 -80 -106q-42 -52 -85 -52z" />
    <glyph glyph-name="Otilde" unicode="&#xd5;" horiz-adv-x="1714" 
d="M51 1024q0 475 221 765t586 290q361 0 583 -290q222 -289 222 -765t-222 -765q-222 -290 -583 -290q-365 0 -586 290t-221 765zM692 1939q-151 0 -172 -346q-24 -364 88 -823q112 -457 266 -608q56 -53 109 -53q214 0 226 457q12 458 -150 916q-162 457 -367 457z
M514 2236q0 67 52 107q53 41 122 41q78 0 168 -35t143 -35q33 0 50 19q17 18 22 18q11 0 18 -16q7 -15 7 -33q0 -63 -47 -98t-111 -35q-45 0 -144 35q-96 34 -165 34q-46 0 -72 -22l-27 -21q-16 0 -16 41z" />
    <glyph glyph-name="Odieresis" unicode="&#xd6;" horiz-adv-x="1714" 
d="M51 1024q0 475 221 765t586 290q361 0 583 -290q222 -289 222 -765t-222 -765q-222 -290 -583 -290q-365 0 -586 290t-221 765zM692 1939q-151 0 -172 -346q-24 -364 88 -823q112 -457 266 -608q56 -53 109 -53q214 0 226 457q12 458 -150 916q-162 457 -367 457z
M471 2316q0 60 43 103t102 43q62 0 104 -43t42 -103t-42 -104q-42 -43 -104 -43q-59 0 -102 43t-43 104zM850 2316q0 60 43 103t104 43q60 0 103 -43t43 -103q0 -61 -43 -104t-103 -43q-61 0 -104 43t-43 104z" />
    <glyph glyph-name="multiply" unicode="&#xd7;" horiz-adv-x="704" 
d="M352 1044l240 240l72 -72l-240 -239l240 -240l-72 -71l-240 239l-239 -239l-72 71l240 240l-240 239l72 72z" />
    <glyph glyph-name="Oslash" unicode="&#xd8;" horiz-adv-x="1714" 
d="M373 150q-154 138 -238 362q-84 225 -84 512q0 475 221 765t586 290q254 0 445 -150l77 150h56l-95 -183q154 -138 238 -362q84 -225 84 -510q0 -476 -222 -765q-222 -290 -583 -290q-256 0 -446 150l-78 -150h-55zM657 590q68 -220 153 -350q86 -131 173 -131
q105 0 162 125q56 125 61 319q5 195 -28 419q-32 220 -97 429zM639 657l422 809q-77 215 -171 344t-198 129q-114 0 -154 -209q-41 -210 -9 -503q31 -292 110 -570z" />
    <glyph glyph-name="Ugrave" unicode="&#xd9;" horiz-adv-x="1689" 
d="M106 1806q0 92 -18 148q-18 54 -68 94h611q60 0 95 -56q36 -57 36 -122q0 -125 -57 -248q-55 -118 -139 -221q-83 -102 -163 -196q-81 -95 -139 -209q-57 -111 -57 -222q0 -122 77 -207q75 -82 179 -116q102 -33 217 -33q161 0 265 101q106 103 106 282v1005
q0 89 -19 148q-18 55 -67 94h704q-49 -39 -67 -94q-19 -59 -19 -148v-1050q0 -182 -49 -323q-50 -143 -125 -227t-178 -140q-100 -54 -197 -76q-94 -21 -192 -21q-99 0 -193 21t-194 76t-176 140t-124 227q-49 145 -49 323v1050zM926 2169q-121 0 -244 65q-125 66 -125 125
q0 41 21 85t57 44q22 0 46 -27q40 -45 70 -76q48 -50 109 -83q93 -49 144 -64q21 -6 40 -6q23 0 28 -1q7 -1 7 -9q0 -24 -47 -39q-43 -14 -106 -14z" />
    <glyph glyph-name="Uacute" unicode="&#xda;" horiz-adv-x="1689" 
d="M106 1806q0 92 -18 148q-18 54 -68 94h611q60 0 95 -56q36 -57 36 -122q0 -125 -57 -248q-55 -118 -139 -221q-83 -102 -163 -196q-81 -95 -139 -209q-57 -111 -57 -222q0 -122 77 -207q75 -82 179 -116q102 -33 217 -33q161 0 265 101q106 103 106 282v1005
q0 89 -19 148q-18 55 -67 94h704q-49 -39 -67 -94q-19 -59 -19 -148v-1050q0 -182 -49 -323q-50 -143 -125 -227t-178 -140q-100 -54 -197 -76q-94 -21 -192 -21q-99 0 -193 21t-194 76t-176 140t-124 227q-49 145 -49 323v1050zM711 2169q-64 0 -107 14q-47 15 -47 39
q0 8 7 9q5 1 28 1q20 0 41 6q49 15 143 64q64 34 110 81q32 33 69 77q24 28 46 28q36 0 57 -44t21 -85q0 -59 -125 -125q-123 -65 -243 -65z" />
    <glyph glyph-name="Ucircumflex" unicode="&#xdb;" horiz-adv-x="1689" 
d="M106 1806q0 92 -18 148q-18 54 -68 94h611q60 0 95 -56q36 -57 36 -122q0 -125 -57 -248q-55 -118 -139 -221q-83 -102 -163 -196q-81 -95 -139 -209q-57 -111 -57 -222q0 -122 77 -207q75 -82 179 -116q102 -33 217 -33q161 0 265 101q106 103 106 282v1005
q0 89 -19 148q-18 55 -67 94h704q-49 -39 -67 -94q-19 -59 -19 -148v-1050q0 -182 -49 -323q-50 -143 -125 -227t-178 -140q-100 -54 -197 -76q-94 -21 -192 -21q-99 0 -193 21t-194 76t-176 140t-124 227q-49 145 -49 323v1050zM584 2169q-22 0 -42 41q-19 40 -21 77
q-1 36 18 42l3 -1q2 -1 7 -2.5t10 -2.5q20 -5 33 -5q40 0 118 58q76 57 109 57t110 -57q78 -58 118 -58q12 0 32 5q5 1 10 2.5t8 2.5l3 1q18 -6 17 -42q-2 -39 -20 -77q-20 -41 -42 -41q-43 0 -85 52q-40 50 -80 106q-38 53 -71 53q-32 0 -70 -53q-40 -56 -80 -106
q-42 -52 -85 -52z" />
    <glyph glyph-name="Udieresis" unicode="&#xdc;" horiz-adv-x="1689" 
d="M106 1806q0 92 -18 148q-18 54 -68 94h611q60 0 95 -56q36 -57 36 -122q0 -125 -57 -248q-55 -118 -139 -221q-83 -102 -163 -196q-81 -95 -139 -209q-57 -111 -57 -222q0 -122 77 -207q75 -82 179 -116q102 -33 217 -33q161 0 265 101q106 103 106 282v1005
q0 89 -19 148q-18 55 -67 94h704q-49 -39 -67 -94q-19 -59 -19 -148v-1050q0 -182 -49 -323q-50 -143 -125 -227t-178 -140q-100 -54 -197 -76q-94 -21 -192 -21q-99 0 -193 21t-194 76t-176 140t-124 227q-49 145 -49 323v1050zM631 2169q-60 0 -103 43t-43 104
q0 60 43 103t103 43q61 0 103 -43t42 -103t-42 -104q-42 -43 -103 -43zM1012 2169q-62 0 -105 43t-43 104q0 60 43 103t105 43q59 0 102 -43t43 -103q0 -61 -43 -104t-102 -43z" />
    <glyph glyph-name="Yacute" unicode="&#xdd;" horiz-adv-x="1679" 
d="M0 2048h551q135 0 201 -105q65 -103 65 -247q0 -88 -30 -174q-33 -93 -65 -147q-36 -59 -66 -146q-29 -83 -29 -172q0 -85 65 -146t185 -59q94 0 160 33q67 34 97 87q30 54 42 104t12 108q0 89 -47 201q-45 107 -105 199t-104 185q-47 100 -47 162q0 49 33 83t81 34h478
q161 0 161 -301q0 -171 -64 -333q-63 -159 -157 -284q-78 -104 -184 -227q-95 -110 -157 -203q-64 -95 -64 -168q0 -105 31 -188t69 -127q42 -49 69 -86q31 -43 31 -74q0 -57 -106 -57h-498q-61 0 -94 60t-33 137q0 74 48 143q49 71 117 121q79 59 137 95q67 42 117 86
q48 42 48 75q0 31 -26 31q-13 0 -80 -26t-152 -26q-110 0 -189 40q-78 40 -122 113q-42 70 -64 146q-19 65 -30 168l-1 10q-1 10 -3.5 33t-4.5 49q-7 84 -11 110q-1 7 -13 104q-10 82 -20 117q-6 21 -25 104q-16 69 -35 109q-17 35 -44 91q-26 52 -57 90q-32 38 -71 68z
M565 2222q0 8 7 9q5 1 28 1q20 0 41 6q49 15 143 64q64 34 110 81q39 41 70 77q24 28 46 28q35 0 56 -44t21 -85q0 -59 -124 -125q-123 -65 -244 -65q-64 0 -107 14q-47 15 -47 39z" />
    <glyph glyph-name="germandbls" unicode="&#xdf;" horiz-adv-x="1636" 
d="M41 2048h1221q110 0 169 -59q60 -60 60 -154q0 -120 -98 -214q-100 -96 -238 -155q-133 -57 -279 -110q-138 -50 -239 -108q-98 -56 -98 -118q0 -28 21 -45q20 -16 52 -16q53 0 123 38q71 38 131 84q62 47 162 84q102 38 207 38q166 0 263 -127t97 -324q0 -222 -87 -424
t-254 -336q-166 -133 -369 -133q-63 0 -101 27q-36 26 -36 57q0 19 30 25q146 24 254 225q109 203 109 410q0 137 -72 224t-197 87q-62 0 -142 -33t-152 -33q-62 0 -107 42t-45 104q0 72 63 148q62 75 142 132q75 54 141 113q64 58 64 92q0 29 -26 44q-27 16 -60 19
q-35 3 -99 3q-92 0 -162 -1t-112 -1q-44 0 -75 -17q-30 -16 -43 -31q-12 -13 -20 -57q-8 -43 -8 -53v-61q0 -179 49 -352q48 -169 115 -290q74 -134 136 -229q70 -108 117 -205q48 -99 48 -178q0 -88 -64 -134t-163 -46h-428q72 72 72 242v1564q0 170 -72 242z" />
    <glyph glyph-name="agrave" unicode="&#xe0;" horiz-adv-x="1525" 
d="M51 319q0 158 66 287q67 130 179 216q113 86 245 144q125 55 284 89q74 15 74 90q0 41 -7 72q-7 33 -25 65q-18 33 -55 51q-40 19 -91 19q-71 -1 -139 -45q-69 -45 -119 -106q-55 -68 -96 -124q-42 -57 -87 -104q-42 -43 -77 -43q-25 0 -44 19q-20 20 -20 46v113
q0 19 -1 40q-2 32 0 45q0 1 1.5 14t2.5 23q3 22 14 40q10 16 24 30q173 164 572 164q170 0 306 -54q134 -53 218 -143q80 -86 125 -197q43 -107 43 -220v-608q0 -170 72 -242h-502q-91 0 -107 88q-12 72 -53 72q-26 0 -64 -30q-49 -39 -77 -65q-39 -36 -118 -66t-179 -30
q-149 0 -257 102t-108 248zM541 512q0 -283 194 -283q79 0 123 65q43 64 43 169q0 99 -1 167t-1 165q0 70 -16 98q-17 29 -58 29q-106 0 -195 -116t-89 -294zM848 1554q-120 0 -244 66q-125 66 -125 125q0 41 21 85t57 44q21 0 46 -28q40 -45 70 -76q46 -48 109 -82
q93 -49 144 -64q21 -6 41 -6q22 0 27 -1q7 -1 7 -9q0 -24 -47 -39q-46 -15 -106 -15z" />
    <glyph glyph-name="aacute" unicode="&#xe1;" horiz-adv-x="1525" 
d="M51 319q0 158 66 287q67 130 179 216q113 86 245 144q125 55 284 89q74 15 74 90q0 41 -7 72q-7 33 -25 65q-18 33 -55 51q-40 19 -91 19q-71 -1 -139 -45q-69 -45 -119 -106q-55 -68 -96 -124q-42 -57 -87 -104q-42 -43 -77 -43q-25 0 -44 19q-20 20 -20 46v113
q0 19 -1 40q-2 32 0 45q0 1 1.5 14t2.5 23q3 22 14 40q10 16 24 30q173 164 572 164q170 0 306 -54q134 -53 218 -143q80 -86 125 -197q43 -107 43 -220v-608q0 -170 72 -242h-502q-91 0 -107 88q-12 72 -53 72q-26 0 -64 -30q-49 -39 -77 -65q-39 -36 -118 -66t-179 -30
q-149 0 -257 102t-108 248zM541 512q0 -283 194 -283q79 0 123 65q43 64 43 169q0 99 -1 167t-1 165q0 70 -16 98q-17 29 -58 29q-106 0 -195 -116t-89 -294zM479 1608q0 8 7 9q5 1 28 1q20 0 41 6q49 15 143 64q66 35 110 80q39 41 70 77q24 29 46 29q35 0 56 -44t21 -85
q0 -59 -124 -125q-125 -66 -244 -66q-61 0 -107 15q-47 15 -47 39z" />
    <glyph glyph-name="acircumflex" unicode="&#xe2;" horiz-adv-x="1525" 
d="M416 -31q-149 0 -257 102t-108 248q0 158 66 287q67 130 179 216q113 86 245 144q125 55 284 89q74 15 74 90q0 41 -7 72q-7 33 -25 65q-18 33 -55 51q-40 19 -91 19q-71 -1 -139 -45q-69 -45 -119 -106q-55 -68 -96 -124q-42 -57 -87 -104q-42 -43 -77 -43q-25 0 -44 19
q-20 20 -20 46v113q0 19 -1 40q-2 32 0 45q0 1 1.5 14t2.5 23q3 22 14 40q10 16 24 30q173 164 572 164q170 0 306 -54q134 -53 218 -143q80 -86 125 -197q43 -107 43 -220v-608q0 -170 72 -242h-502q-91 0 -107 88q-12 72 -53 72q-26 0 -64 -30q-49 -39 -77 -65
q-39 -36 -118 -66t-179 -30zM825 922q-106 0 -195 -116t-89 -294q0 -283 194 -283q79 0 123 65q43 64 43 169q0 99 -1 167t-1 165q0 70 -16 98q-17 29 -58 29zM506 1554q-22 0 -42 41q-19 40 -21 77q-1 36 18 42q1 0 21 -5t32 -5q42 0 118 57q78 58 109 58q32 0 110 -58
q76 -57 118 -57q13 0 33 5l20 5q18 -6 17 -42q-2 -39 -20 -77q-20 -41 -42 -41q-43 0 -85 53q-47 58 -80 105q-38 53 -71 53q-32 0 -70 -53q-33 -47 -80 -105q-42 -53 -85 -53z" />
    <glyph glyph-name="atilde" unicode="&#xe3;" horiz-adv-x="1525" 
d="M416 -31q-149 0 -257 102t-108 248q0 158 66 287q67 130 179 216q113 86 245 144q125 55 284 89q74 15 74 90q0 41 -7 72q-7 33 -25 65q-18 33 -55 51q-40 19 -91 19q-71 -1 -139 -45q-69 -45 -119 -106q-55 -68 -96 -124q-42 -57 -87 -104q-42 -43 -77 -43q-25 0 -44 19
q-20 20 -20 46v113q0 19 -1 40q-2 32 0 45q0 1 1.5 14t2.5 23q3 22 14 40q10 16 24 30q173 164 572 164q170 0 306 -54q134 -53 218 -143q80 -86 125 -197q43 -107 43 -220v-608q0 -170 72 -242h-502q-91 0 -107 88q-12 72 -53 72q-26 0 -64 -30q-49 -39 -77 -65
q-39 -36 -118 -66t-179 -30zM825 922q-106 0 -195 -116t-89 -294q0 -283 194 -283q79 0 123 65q43 64 43 169q0 99 -1 167t-1 165q0 70 -16 98q-17 29 -58 29zM451 1622q0 67 52 107t122 40q81 0 168 -34q90 -35 143 -35q32 0 49 18q17 19 23 19q9 0 17 -17q7 -15 7 -32
q0 -64 -47 -99t-110 -35q-46 0 -145 35t-165 35q-45 0 -71 -22l-27 -21q-16 0 -16 41z" />
    <glyph glyph-name="adieresis" unicode="&#xe4;" horiz-adv-x="1525" 
d="M51 319q0 158 66 287q67 130 179 216q113 86 245 144q125 55 284 89q74 15 74 90q0 41 -7 72q-7 33 -25 65q-18 33 -55 51q-40 19 -91 19q-71 -1 -139 -45q-69 -45 -119 -106q-55 -68 -96 -124q-42 -57 -87 -104q-42 -43 -77 -43q-25 0 -44 19q-20 20 -20 46v113
q0 19 -1 40q-2 32 0 45q0 1 1.5 14t2.5 23q3 22 14 40q10 16 24 30q173 164 572 164q170 0 306 -54q134 -53 218 -143q80 -86 125 -197q43 -107 43 -220v-608q0 -170 72 -242h-502q-91 0 -107 88q-12 72 -53 72q-26 0 -64 -30q-49 -39 -77 -65q-39 -36 -118 -66t-179 -30
q-149 0 -257 102t-108 248zM825 922q-106 0 -195 -116t-89 -294q0 -283 194 -283q79 0 123 65q43 64 43 169q0 99 -1 167t-1 165q0 70 -16 98q-17 29 -58 29zM408 1702q0 59 43 102t102 43q61 0 103 -43t42 -102q0 -62 -42 -105t-103 -43q-59 0 -102 43t-43 105zM786 1702
q0 59 43 102t105 43q59 0 102 -43t43 -102q0 -62 -43 -105t-102 -43q-62 0 -105 43t-43 105z" />
    <glyph glyph-name="aring" unicode="&#xe5;" horiz-adv-x="1525" 
d="M416 -31q-149 0 -257 102t-108 248q0 158 66 287q67 130 179 216q113 86 245 144q125 55 284 89q74 15 74 90q0 41 -7 72q-7 33 -25 65q-18 33 -55 51q-40 19 -91 19q-71 -1 -139 -45q-69 -45 -119 -106q-55 -68 -96 -124q-42 -57 -87 -104q-42 -43 -77 -43q-25 0 -44 19
q-20 20 -20 46v113q0 19 -1 40q-2 32 0 45q0 1 1.5 14t2.5 23q3 22 14 40q10 16 24 30q157 151 502 162q-115 67 -115 199q0 94 66 160q65 65 160 65q94 0 159 -65q66 -66 66 -160q0 -68 -37 -123q-38 -57 -96 -84q179 -24 311 -121q130 -96 189 -221q59 -126 59 -262v-608
q0 -170 72 -242h-502q-91 0 -107 88q-12 72 -53 72q-26 0 -64 -30q-49 -39 -77 -65q-39 -36 -118 -66t-179 -30zM825 922q-106 0 -195 -116t-89 -294q0 -283 194 -283q79 0 123 65q43 64 43 169q0 99 -1 167t-1 165q0 70 -16 98q-17 29 -58 29zM610 1661q0 -75 54 -129
q53 -53 129 -53q75 0 128 53q52 52 52 129t-52 129q-53 53 -128 53q-76 0 -129 -53q-54 -54 -54 -129z" />
    <glyph glyph-name="ae" unicode="&#xe6;" horiz-adv-x="2551" 
d="M416 -31q-149 0 -257 102t-108 248q0 158 66 287q67 130 179 216q113 86 245 144q125 55 284 89q74 15 74 90q0 41 -7 72q-7 33 -25 65q-18 33 -55 51q-40 19 -91 19q-71 -1 -139 -45q-69 -45 -119 -106q-55 -68 -96 -124q-42 -57 -87 -104q-42 -43 -77 -43q-25 0 -44 19
q-20 20 -20 46v113q0 19 -1 40q-2 32 0 45q0 1 1.5 14t2.5 23q3 22 14 40q10 16 24 30q176 164 572 164q210 0 359 -79q153 -81 237 -209q210 288 602 288q222 0 389 -167q166 -166 164 -379q0 -68 -25 -121q-24 -51 -75 -80q-48 -28 -103 -45q-54 -17 -138 -20
q-94 -3 -148 -2q-140 3 -162 4q-99 3 -156 3q-19 0 -24 -1q-9 -2 -15 -8q-8 -8 -8 -23q-2 -38 89 -105q90 -66 228 -124q134 -56 248 -56q68 0 117 16q51 17 73 37t43 37q20 16 33 16q33 0 33 -43q0 -62 -35 -135q-34 -71 -100 -140q-67 -70 -179 -114q-114 -45 -253 -45
q-159 0 -308 64q-147 63 -254 176q-56 0 -108 -33t-87 -72q-32 -36 -81 -71q-46 -33 -94 -33q-86 0 -107 88q-17 72 -53 72q-26 0 -64 -30q-49 -39 -77 -65q-39 -36 -118 -66t-179 -30zM1425 1053q-1 -121 58 -209q60 -88 176 -88q76 0 148 5q68 5 132 19q70 15 104 47
q36 33 36 82q-2 147 -138 240q-136 92 -280 92q-93 0 -164 -52q-72 -53 -72 -136zM825 922q-106 0 -195 -116t-89 -294q0 -283 194 -283q79 0 123 65q43 64 43 169q0 99 -1 167t-1 165q0 70 -16 98q-17 29 -58 29z" />
    <glyph glyph-name="ccedilla" unicode="&#xe7;" horiz-adv-x="1409" 
d="M51 678q0 160 47 303q46 140 138 250q91 109 236 171t333 62q163 0 326 -87t163 -163q0 -12 -8 -31q-6 -14 -31 -41q-27 -29 -35 -36q-24 -21 -50 -43q-30 -25 -44 -39q-2 -2 -20 -18t-32 -29q-36 -33 -57 -51q-42 -36 -48 -41q-29 -24 -44 -33q-17 -10 -26 -10
q-21 0 -30 20q-6 13 -23 67q-15 47 -43 85q-67 95 -161 159t-187 64q-87 0 -134 -59q-49 -61 -49 -154q0 -158 137 -322q138 -165 322 -263q186 -99 338 -99q85 0 142 27q59 28 84 53q26 26 40 26q33 0 33 -43q0 -61 -35 -134t-100 -141q-67 -70 -179 -114
q-114 -45 -253 -45q-30 0 -74 4q-30 -67 -51 -118q0 -1 -1 -3t-1 -3t8 4q34 18 70 18q65 0 103 -38t38 -99q0 -78 -64 -136q-63 -57 -141 -57q-41 0 -71 18q-29 17 -29 42q0 30 26 30l17 -12q17 -12 51 -12q59 0 100 38t41 93q0 31 -23 50t-55 19q-35 0 -61 -13t-29 -13
q-6 0 -26 20q-23 23 -19 29q20 37 66 150q-263 44 -444 238t-181 460z" />
    <glyph glyph-name="egrave" unicode="&#xe8;" horiz-adv-x="1409" 
d="M51 678q0 347 194 567q193 219 541 219q263 0 417 -161q155 -163 155 -385q0 -70 -24 -121q-25 -52 -74 -80q-49 -27 -105 -45q-54 -17 -137 -20q-93 -3 -148 -2q-140 3 -162 4q-99 3 -157 3q-47 0 -47 -32q0 -37 90 -105q88 -66 227 -124q134 -56 248 -56q85 0 142 27
q59 28 84 53q26 26 40 26q33 0 33 -43q0 -61 -35 -134t-100 -141q-67 -70 -179 -114q-114 -45 -253 -45q-300 0 -526 206q-224 205 -224 503zM281 1053q0 -121 58 -209t175 -88q77 0 149 5q68 5 131 19q67 15 103 47q37 33 37 82q0 149 -135 240q-136 92 -283 92
q-93 0 -164 -52t-71 -136zM449 1745q0 41 21 85t56 44q21 0 46 -28q40 -45 70 -76q45 -46 110 -82q94 -49 143 -64q21 -6 41 -6q23 0 28 -1q7 -1 7 -9q0 -24 -47 -39t-107 -15q-119 0 -244 66q-124 66 -124 125z" />
    <glyph glyph-name="eacute" unicode="&#xe9;" horiz-adv-x="1409" 
d="M51 678q0 347 194 567q193 219 541 219q263 0 417 -161q155 -163 155 -385q0 -70 -24 -121q-25 -52 -74 -80q-49 -27 -105 -45q-54 -17 -137 -20q-93 -3 -148 -2q-140 3 -162 4q-99 3 -157 3q-47 0 -47 -32q0 -37 90 -105q88 -66 227 -124q134 -56 248 -56q85 0 142 27
q59 28 84 53q26 26 40 26q33 0 33 -43q0 -61 -35 -134t-100 -141q-67 -70 -179 -114q-114 -45 -253 -45q-300 0 -526 206q-224 205 -224 503zM281 1053q0 -121 58 -209t175 -88q77 0 149 5q68 5 131 19q67 15 103 47q37 33 37 82q0 149 -135 240q-136 92 -283 92
q-93 0 -164 -52t-71 -136zM449 1608q0 8 7 9q5 1 27 1q20 0 41 6q51 15 144 64q64 33 109 80q39 41 70 77q24 29 46 29q36 0 57 -44t21 -85q0 -59 -125 -125t-244 -66q-60 0 -106 15q-47 15 -47 39z" />
    <glyph glyph-name="ecircumflex" unicode="&#xea;" horiz-adv-x="1409" 
d="M51 678q0 347 194 567q193 219 541 219q263 0 417 -161q155 -163 155 -385q0 -70 -24 -121q-25 -52 -74 -80q-49 -27 -105 -45q-54 -17 -137 -20q-93 -3 -148 -2q-140 3 -162 4q-99 3 -157 3q-47 0 -47 -32q0 -37 90 -105q88 -66 227 -124q134 -56 248 -56q85 0 142 27
q59 28 84 53q26 26 40 26q33 0 33 -43q0 -61 -35 -134t-100 -141q-67 -70 -179 -114q-114 -45 -253 -45q-300 0 -526 206q-224 205 -224 503zM516 1241q-93 0 -164 -52t-71 -136q0 -121 58 -209t175 -88q77 0 149 5q68 5 131 19q67 15 103 47q37 33 37 82q0 149 -135 240
q-136 92 -283 92zM475 1554q-22 0 -42 41q-18 38 -20 77q-1 36 17 42l20 -5q20 -5 33 -5q41 0 118 57q78 58 110 58q31 0 109 -58q76 -57 118 -57q12 0 32 5t21 5q19 -6 18 -42q-2 -37 -21 -77q-20 -41 -42 -41q-43 0 -85 53q-47 58 -80 105q-38 53 -70 53q-33 0 -71 -53
q-33 -47 -80 -105q-42 -53 -85 -53z" />
    <glyph glyph-name="edieresis" unicode="&#xeb;" horiz-adv-x="1409" 
d="M51 678q0 347 194 567q193 219 541 219q263 0 417 -161q155 -163 155 -385q0 -70 -24 -121q-25 -52 -74 -80q-49 -27 -105 -45q-54 -17 -137 -20q-93 -3 -148 -2q-140 3 -162 4q-99 3 -157 3q-47 0 -47 -32q0 -37 90 -105q88 -66 227 -124q134 -56 248 -56q85 0 142 27
q59 28 84 53q26 26 40 26q33 0 33 -43q0 -61 -35 -134t-100 -141q-67 -70 -179 -114q-114 -45 -253 -45q-300 0 -526 206q-224 205 -224 503zM281 1053q0 -121 58 -209t175 -88q77 0 149 5q68 5 131 19q67 15 103 47q37 33 37 82q0 149 -135 240q-136 92 -283 92
q-93 0 -164 -52t-71 -136zM522 1554q-59 0 -102 43t-43 105q0 59 43 102t102 43q62 0 104 -43t42 -102q0 -62 -42 -105t-104 -43zM756 1702q0 59 43 102t104 43q60 0 103 -43t43 -102q0 -62 -43 -105t-103 -43q-61 0 -104 43t-43 105z" />
    <glyph glyph-name="igrave" unicode="&#xec;" horiz-adv-x="722" 
d="M0 1214q0 15 23 27q2 0 7.5 3t17.5 9l24 12q15 7 40 20t36 18q10 5 23.5 11.5t33 15.5l32.5 15q54 25 99 45q19 8 93 36q43 16 87 28q37 10 64 10q29 0 43 -13t16 -27q2 -18 2 -40v-1142q0 -170 72 -242h-686q71 71 71 242v786v12v20q0 11 -1 21q-1 13 -3 25q0 1 -7 24
q-5 15 -12 24q-8 10 -19 18q-14 11 -25 14q-31 11 -31 28zM84 1745q0 41 21 85t57 44q21 0 46 -28q51 -58 69 -76q45 -46 110 -82q94 -49 143 -64q21 -6 41 -6q23 0 28 -1q7 -1 7 -9q0 -24 -47 -39t-106 -15q-119 0 -244 66t-125 125z" />
    <glyph glyph-name="iacute" unicode="&#xed;" horiz-adv-x="722" 
d="M0 1214q0 15 23 27q2 0 7.5 3t17.5 9l24 12q15 7 40 20t36 18q10 5 23.5 11.5t33 15.5l32.5 15q54 25 99 45q19 8 93 36q43 16 87 28q37 10 64 10q29 0 43 -13t16 -27q2 -18 2 -40v-1142q0 -170 72 -242h-686q71 71 71 242v786v12v20q0 11 -1 21q-1 13 -3 25q0 1 -7 24
q-5 15 -12 24q-8 10 -19 18q-14 11 -25 14q-31 11 -31 28zM84 1608q0 8 7 9q5 1 28 1q20 0 41 6q49 15 143 64q66 35 110 80q32 33 69 77q24 29 46 29q37 0 58 -44q20 -41 20 -85q0 -59 -125 -125t-243 -66q-60 0 -107 15t-47 39z" />
    <glyph glyph-name="icircumflex" unicode="&#xee;" horiz-adv-x="722" 
d="M0 1214q0 15 23 27q2 0 7.5 3t17.5 9l24 12q15 7 40 20t36 18q10 5 23.5 11.5t33 15.5l32.5 15q54 25 99 45q19 8 93 36q43 16 87 28q37 10 64 10q29 0 43 -13t16 -27q2 -18 2 -40v-1142q0 -170 72 -242h-686q71 71 71 242v786v12v20q0 11 -1 21q-1 13 -3 25q0 1 -7 24
q-5 15 -12 24q-8 10 -19 18q-14 11 -25 14q-31 11 -31 28zM111 1554q-22 0 -42 41q-19 40 -21 77q-1 36 18 42q2 0 20 -5t33 -5q41 0 118 57q78 58 109 58q32 0 110 -58q76 -57 117 -57q15 0 33 5t21 5q18 -6 17 -42q-2 -39 -20 -77q-20 -41 -42 -41q-43 0 -85 53
q-47 58 -80 105q-38 53 -71 53t-71 -53q-42 -58 -79 -105q-42 -53 -85 -53z" />
    <glyph glyph-name="idieresis" unicode="&#xef;" horiz-adv-x="722" 
d="M31 1186q-31 11 -31 28q0 15 23 27q2 0 7.5 3t17.5 9l24 12q15 7 40 20t36 18q10 5 23.5 11.5t33 15.5l32.5 15q54 25 99 45q19 8 93 36q43 16 87 28q37 10 64 10q29 0 43 -13t16 -27q2 -18 2 -40v-1142q0 -170 72 -242h-686q71 71 71 242v786v14v24q0 15 -1 27
q-1 17 -6 29q-5 14 -12 26q-6 11 -20 23q-12 11 -28 15zM158 1554q-60 0 -103 43t-43 105q0 59 43 102t103 43q61 0 103 -43q42 -44 42 -102q0 -62 -42 -105t-103 -43zM391 1702q0 59 43 102t105 43q59 0 102 -43t43 -102q0 -62 -43 -105t-102 -43q-62 0 -105 43t-43 105z
" />
    <glyph glyph-name="ntilde" unicode="&#xf1;" 
d="M707 0h-687q72 72 72 242v950q0 170 -72 242h502q64 0 88 -43q25 -45 25 -127v-35q0 -49 14 -49q24 0 47 29q4 5 24.5 30.5t33.5 41.5q39 49 75 83q44 41 120 71q74 29 173 29q351 0 351 -481l2 -391v-350q0 -171 71 -242h-686q72 72 72 242v665q0 183 -117 183
q-180 0 -180 -291v-557q0 -170 72 -242zM459 1581q-17 0 -17 41q0 66 53 107q52 40 121 40q81 0 168 -34q90 -35 144 -35q32 0 49 18q17 19 22 19q10 0 18 -17q7 -15 7 -32q0 -64 -47 -99t-111 -35q-45 0 -144 35t-165 35q-46 0 -72 -22z" />
    <glyph glyph-name="ograve" unicode="&#xf2;" horiz-adv-x="1579" 
d="M260 180q-214 218 -209 526t225 531q225 225 535 225q300 0 508 -211q213 -214 208 -523q-4 -307 -224 -531q-225 -228 -535 -228q-300 0 -508 211zM690 1354q-100 -15 -142 -214q-42 -198 -1 -468q41 -266 140 -444q99 -177 200 -160q99 16 139 214q41 199 2 468
q-39 266 -138 443q-99 178 -200 161zM508 1745q0 44 20 85q21 44 58 44q21 0 46 -28q51 -58 69 -76q45 -46 110 -82q94 -49 143 -64q21 -6 41 -6q23 0 28 -1q7 -1 7 -9q0 -24 -47 -39t-106 -15q-119 0 -244 66t-125 125z" />
    <glyph glyph-name="oacute" unicode="&#xf3;" horiz-adv-x="1579" 
d="M260 180q-214 218 -209 526t225 531q225 225 535 225q300 0 508 -211q213 -214 208 -523q-4 -307 -224 -531q-225 -228 -535 -228q-300 0 -508 211zM690 1354q-100 -15 -142 -214q-42 -198 -1 -468q41 -266 140 -444q99 -177 200 -160q99 16 139 214q41 199 2 468
q-39 266 -138 443q-99 178 -200 161zM508 1608q0 8 7 9q5 1 28 1q20 0 41 6q49 15 143 64q66 35 110 80q32 33 69 77q24 29 46 29q36 0 57 -44t21 -85q0 -59 -125 -125t-243 -66q-60 0 -107 15t-47 39z" />
    <glyph glyph-name="ocircumflex" unicode="&#xf4;" horiz-adv-x="1579" 
d="M260 180q-214 218 -209 526t225 531q225 225 535 225q300 0 508 -211q213 -214 208 -523q-4 -307 -224 -531q-225 -228 -535 -228q-300 0 -508 211zM690 1354q-100 -15 -142 -214q-42 -198 -1 -468q41 -266 140 -444q99 -177 200 -160q99 16 139 214q41 199 2 468
q-39 266 -138 443q-99 178 -200 161zM535 1554q-22 0 -42 41q-19 40 -21 77q-1 36 17 42q1 0 21 -5t33 -5q41 0 117 57q78 58 110 58t110 -58q76 -57 117 -57q13 0 33 5t21 5q18 -6 17 -42q-2 -39 -20 -77q-20 -41 -42 -41q-43 0 -85 53q-47 58 -80 105q-38 53 -71 53
t-71 -53q-42 -58 -79 -105q-42 -53 -85 -53z" />
    <glyph glyph-name="otilde" unicode="&#xf5;" horiz-adv-x="1579" 
d="M260 180q-214 218 -209 526t225 531q225 225 535 225q300 0 508 -211q213 -214 208 -523q-4 -307 -224 -531q-225 -228 -535 -228q-300 0 -508 211zM690 1354q-100 -15 -142 -214q-42 -198 -1 -468q41 -266 140 -444q99 -177 200 -160q99 16 139 214q41 199 2 468
q-39 266 -138 443q-99 178 -200 161zM496 1581q-17 0 -17 41q0 67 52 107t122 40q81 0 168 -34q90 -35 144 -35q32 0 49 18q17 19 22 19q10 0 18 -17q7 -15 7 -32q0 -64 -47 -99t-111 -35q-45 0 -144 35t-165 35q-46 0 -72 -22z" />
    <glyph glyph-name="odieresis" unicode="&#xf6;" horiz-adv-x="1579" 
d="M260 180q-214 218 -209 526t225 531q225 225 535 225q300 0 508 -211q213 -214 208 -523q-4 -307 -224 -531q-225 -228 -535 -228q-300 0 -508 211zM690 1354q-100 -15 -142 -214q-42 -198 -1 -468q41 -266 140 -444q99 -177 200 -160q99 16 139 214q41 199 2 468
q-39 266 -138 443q-99 178 -200 161zM436 1702q0 59 43 102t103 43q61 0 103 -43t42 -102q0 -62 -42 -105t-103 -43q-60 0 -103 43t-43 105zM963 1554q-62 0 -105 43t-43 105q0 59 43 102t105 43q59 0 102 -43t43 -102q0 -62 -43 -105t-102 -43z" />
    <glyph glyph-name="divide" unicode="&#xf7;" horiz-adv-x="860" 
d="M432 1073q-112 0 -190 78t-78 190q0 111 78 189t190 78q111 0 189 -78q77 -77 77 -189q0 -113 -77 -190q-78 -78 -189 -78zM164 614q0 111 78 189t190 78q111 0 189 -78q77 -77 77 -189q0 -113 -77 -190q-78 -78 -189 -78q-112 0 -190 78t-78 190zM819 922h-778v102h778
v-102z" />
    <glyph glyph-name="oslash" unicode="&#xf8;" horiz-adv-x="1558" 
d="M250 180q-214 218 -209 526t225 531q225 225 535 225q218 0 401 -123l90 125h56l-109 -149q30 -24 70 -64q213 -214 208 -523q-4 -306 -225 -531q-223 -228 -536 -228q-226 0 -408 127l-92 -127h-55l112 154q-35 29 -63 57zM975 952l-383 -522q56 -174 133 -274
q78 -100 152 -88q98 15 139 213q41 200 2 469q-10 67 -43 202zM578 483l380 523q-56 167 -130 262q-75 96 -148 86q-100 -15 -142 -214q-42 -198 -1 -468q17 -104 41 -189z" />
    <glyph glyph-name="ugrave" unicode="&#xf9;" 
d="M82 1192q0 170 -72 242h686q-71 -71 -71 -242v-666q0 -182 116 -182q181 0 181 291v557q0 170 -72 242h686q-72 -72 -72 -242v-950q0 -170 72 -242h-502q-64 0 -88 43q-24 44 -24 127v35q0 49 -15 49q-23 0 -47 -30q-2 -3 -57 -70q-37 -45 -76 -83q-43 -42 -120 -72
t-173 -30q-350 0 -350 482l-2 391v350zM872 1554q-118 0 -243 66t-125 125q0 44 20 85q21 44 58 44q21 0 46 -28q51 -58 69 -76q45 -46 110 -82q94 -49 143 -64q21 -6 41 -6q23 0 28 -1q7 -1 7 -9q0 -24 -47 -39t-107 -15z" />
    <glyph glyph-name="uacute" unicode="&#xfa;" 
d="M10 1434h686q-71 -71 -71 -242v-666q0 -182 116 -182q181 0 181 291v557q0 170 -72 242h686q-72 -72 -72 -242v-950q0 -170 72 -242h-502q-64 0 -88 43q-24 44 -24 127v35q0 49 -15 49q-23 0 -47 -30q-2 -3 -57 -70q-37 -45 -76 -83q-43 -42 -120 -72t-173 -30
q-350 0 -350 482l-2 391v350q0 170 -72 242zM504 1608q0 8 7 9q5 1 28 1q20 0 41 6q49 15 143 64q66 35 110 80q32 33 69 77q24 29 46 29q36 0 57 -44t21 -85q0 -59 -125 -125q-124 -66 -244 -66q-59 0 -106 15t-47 39z" />
    <glyph glyph-name="ucircumflex" unicode="&#xfb;" 
d="M10 1434h686q-71 -71 -71 -242v-666q0 -182 116 -182q181 0 181 291v557q0 170 -72 242h686q-72 -72 -72 -242v-950q0 -170 72 -242h-502q-64 0 -88 43q-24 44 -24 127v35q0 49 -15 49q-23 0 -47 -30q-2 -3 -57 -70q-37 -45 -76 -83q-43 -42 -120 -72t-173 -30
q-350 0 -350 482l-2 391v350q0 170 -72 242zM530 1554q-22 0 -42 41q-18 38 -20 77q-1 36 17 42q2 0 22 -5t32 -5q41 0 117 57q78 58 110 58t110 -58q76 -57 117 -57q12 0 32 5t22 5q18 -6 17 -42q-2 -37 -21 -77q-20 -41 -42 -41q-43 0 -85 53q-37 47 -79 105
q-38 53 -71 53t-71 -53q-33 -47 -80 -105q-42 -53 -85 -53z" />
    <glyph glyph-name="udieresis" unicode="&#xfc;" 
d="M10 1434h686q-71 -71 -71 -242v-666q0 -182 116 -182q181 0 181 291v557q0 170 -72 242h686q-72 -72 -72 -242v-950q0 -170 72 -242h-502q-64 0 -88 43q-24 44 -24 127v35q0 49 -15 49q-23 0 -47 -30q-2 -3 -57 -70q-37 -45 -76 -83q-43 -42 -120 -72t-173 -30
q-350 0 -350 482l-2 391v350q0 170 -72 242zM432 1702q0 59 43 102t103 43q61 0 103 -43t42 -102q0 -62 -42 -105t-103 -43q-60 0 -103 43t-43 105zM958 1554q-61 0 -104 43t-43 105q0 59 43 102t104 43q60 0 103 -43t43 -102q0 -62 -43 -105t-103 -43z" />
    <glyph glyph-name="yacute" unicode="&#xfd;" horiz-adv-x="1591" 
d="M174 1024l-20 70q-16 53 -22 72q-1 5 -5 16.5t-7.5 23.5t-7.5 24q-11 34 -24 63q-14 32 -25 54q-16 31 -29 50q-12 17 -34 37h717q-23 -52 -21 -129q1 -70 13 -125q11 -50 39 -156q3 -11 16 -64t24 -95q27 -104 47 -175q18 -63 45 -162q25 -90 48 -157q21 -61 46 -119
q25 -59 48 -88t43 -29q53 0 100 148q47 149 47 319q0 122 -27 217q-27 93 -69 145q-40 48 -89 87q-43 34 -89 54q-47 21 -69 38q-27 21 -27 43q0 96 156 187q155 91 319 91q114 0 168 -75q55 -76 55 -187q0 -79 -42 -238q-40 -153 -89 -294q-28 -81 -134 -381
q-13 -36 -124 -352l-18 -43q-112 -274 -185 -371q-124 -168 -323 -168q-94 0 -193 39q-98 39 -98 82q0 25 53 190q17 54 26 78q21 56 23 61q16 40 29 53q15 15 29 15q23 0 110 -40t168 -40q125 0 196 59q70 58 70 105q0 43 -77 43h-353q-34 0 -64 15q-29 15 -54 47
q-14 18 -40 64q-15 26 -35 85q-14 40 -28 89t-26 97q-9 36 -23 90q-21 76 -82 272q-12 40 -30.5 98t-30.5 97.5t-21 69.5zM563 1608q0 8 7 9q5 1 28 1q20 0 41 6q49 15 143 64q66 35 110 80q39 41 70 77q24 29 46 29q36 0 57 -44q20 -41 20 -85q0 -59 -124 -125
q-125 -66 -244 -66q-61 0 -107 15q-47 15 -47 39z" />
    <glyph glyph-name="ydieresis" unicode="&#xff;" horiz-adv-x="1591" 
d="M174 1024l-20 70q-16 53 -22 72q-1 5 -5 16.5t-7.5 23.5t-7.5 24q-11 34 -24 63q-14 32 -25 54q-16 31 -29 50q-12 17 -34 37h717q-23 -52 -21 -129q1 -70 13 -125q11 -50 39 -156q3 -11 16 -64t24 -95q27 -104 47 -175q18 -63 45 -162q25 -90 48 -157q21 -61 46 -119
q25 -59 48 -88t43 -29q53 0 100 148q47 149 47 319q0 122 -27 217q-27 93 -69 145q-40 48 -89 87q-43 34 -89 54q-47 21 -69 38q-27 21 -27 43q0 96 156 187q155 91 319 91q114 0 168 -75q55 -76 55 -187q0 -79 -42 -238q-40 -153 -89 -294q-28 -81 -134 -381
q-13 -36 -124 -352l-18 -43q-112 -274 -185 -371q-124 -168 -323 -168q-94 0 -193 39q-98 39 -98 82q0 25 53 190q17 54 26 78q21 56 23 61q16 40 29 53q15 15 29 15q23 0 110 -40t168 -40q125 0 196 59q70 58 70 105q0 43 -77 43h-353q-34 0 -64 15q-29 15 -54 47
q-14 18 -40 64q-15 26 -35 85q-14 40 -28 89t-26 97q-9 36 -23 90q-21 76 -82 272q-12 40 -30.5 98t-30.5 97.5t-21 69.5zM492 1702q0 59 43 102t102 43q61 0 103 -43t42 -102q0 -62 -42 -105t-103 -43q-59 0 -102 43t-43 105zM1018 1554q-62 0 -105 43t-43 105q0 59 43 102
t105 43q59 0 102 -43t43 -102q0 -62 -43 -105t-102 -43z" />
    <glyph glyph-name="Amacron" unicode="&#x100;" horiz-adv-x="1841" 
d="M0 0q39 33 75 103q35 68 52 123q3 9 20.5 67t32.5 104q115 381 181 680q69 313 151 764q24 139 -45 207h907q-69 -68 -45 -207q82 -451 151 -764q66 -299 181 -680q15 -46 32.5 -104t20.5 -67q17 -55 52 -123q36 -70 75 -103h-846q74 85 74 223q0 116 -68 504h-301
q50 -122 71 -176q20 -52 47 -159q24 -95 24 -175q0 -88 -34 -152q-35 -65 -116 -65h-692zM661 819h322q-159 828 -305 828q-141 0 -141 -318q0 -202 124 -510zM653 2169q-22 0 -22 22v99q0 22 22 22h527q22 0 22 -22v-99q0 -22 -22 -22h-527z" />
    <glyph glyph-name="amacron" unicode="&#x101;" horiz-adv-x="1525" 
d="M416 -31q-149 0 -257 102t-108 248q0 158 66 287q67 130 179 216q113 86 245 144q125 55 284 89q74 15 74 90q0 41 -7 72q-7 33 -25 65q-18 33 -55 51q-40 19 -91 19q-71 -1 -139 -45q-69 -45 -119 -106q-55 -68 -96 -124q-42 -57 -87 -104q-42 -43 -77 -43q-25 0 -44 19
q-20 20 -20 46v113q0 19 -1 40q-2 32 0 45q0 1 1.5 14t2.5 23q3 22 14 40q10 16 24 30q173 164 572 164q170 0 306 -54q134 -53 218 -143q80 -86 125 -197q43 -107 43 -220v-608q0 -170 72 -242h-502q-91 0 -107 88q-12 72 -53 72q-26 0 -64 -30q-49 -39 -77 -65
q-39 -36 -118 -66t-179 -30zM825 922q-106 0 -195 -116t-89 -294q0 -283 194 -283q79 0 123 65q43 64 43 169q0 99 -1 167t-1 165q0 70 -16 98q-17 29 -58 29zM479 1554q-22 0 -22 23v98q0 23 22 23h527q22 0 22 -23v-98q0 -23 -22 -23h-527z" />
    <glyph glyph-name="Abreve" unicode="&#x102;" horiz-adv-x="1841" 
d="M0 0q39 33 75 103q35 68 52 123q3 9 20.5 67t32.5 104q115 381 181 680q69 313 151 764q24 139 -45 207h907q-69 -68 -45 -207q82 -451 151 -764q66 -299 181 -680q15 -46 32.5 -104t20.5 -67q17 -55 52 -123q36 -70 75 -103h-846q74 85 74 223q0 116 -68 504h-301
q50 -122 71 -176q20 -52 47 -159q24 -95 24 -175q0 -88 -34 -152q-35 -65 -116 -65h-692zM661 819h322q-159 828 -305 828q-141 0 -141 -318q0 -202 124 -510zM610 2394q0 62 23 62q9 0 14 -7q3 -4 8 -17q5 -12 21 -30q18 -19 43 -39q67 -49 196 -49q130 0 197 49
q25 20 43 39q17 18 21 30q5 13 8 17q5 7 14 7q23 0 23 -62q0 -99 -88 -162q-89 -63 -218 -63t-217 63t-88 162z" />
    <glyph glyph-name="abreve" unicode="&#x103;" horiz-adv-x="1525" 
d="M416 -31q-149 0 -257 102t-108 248q0 158 66 287q67 130 179 216q113 86 245 144q125 55 284 89q74 15 74 90q0 41 -7 72q-7 33 -25 65q-18 33 -55 51q-40 19 -91 19q-71 -1 -139 -45q-69 -45 -119 -106q-55 -68 -96 -124q-42 -57 -87 -104q-42 -43 -77 -43q-25 0 -44 19
q-20 20 -20 46v113q0 19 -1 40q-2 32 0 45q0 1 1.5 14t2.5 23q3 22 14 40q10 16 24 30q173 164 572 164q170 0 306 -54q134 -53 218 -143q80 -86 125 -197q43 -107 43 -220v-608q0 -170 72 -242h-502q-91 0 -107 88q-12 72 -53 72q-26 0 -64 -30q-49 -39 -77 -65
q-39 -36 -118 -66t-179 -30zM825 922q-106 0 -195 -116t-89 -294q0 -283 194 -283q79 0 123 65q43 64 43 169q0 99 -1 167t-1 165q0 70 -16 98q-17 29 -58 29zM741 1554q-127 0 -217 64q-88 63 -88 162q0 61 23 61q9 0 14 -6q3 -4 8 -17q5 -12 21 -30q18 -19 43 -39
q67 -49 196 -49q130 0 197 49q25 20 43 39q15 16 20 30q4 10 9 17q4 6 14 6q23 0 23 -61q0 -99 -89 -162q-90 -64 -217 -64z" />
    <glyph glyph-name="Aogonek" unicode="&#x104;" horiz-adv-x="1841" 
d="M0 0q39 33 75 103q35 68 52 123q3 9 20.5 67t32.5 104q115 381 181 680q69 313 151 764q24 139 -45 207h907q-69 -68 -45 -207q82 -451 151 -764q66 -299 181 -680q15 -46 32.5 -104t20.5 -67q17 -55 52 -123q36 -70 75 -103h-397q-70 -113 -70 -203q0 -153 99 -153
q43 0 62 20q21 22 26 41q6 21 18 21q31 0 31 -50q0 -48 -41 -83q-39 -33 -94 -33q-166 0 -166 209q0 133 77 231h-391q74 85 74 223q0 116 -68 504h-301q50 -122 71 -176q20 -52 47 -159q24 -95 24 -175q0 -88 -34 -152q-35 -65 -116 -65h-692zM661 819h322
q-159 828 -305 828q-141 0 -141 -318q0 -202 124 -510z" />
    <glyph glyph-name="aogonek" unicode="&#x105;" horiz-adv-x="1525" 
d="M51 319q0 158 66 287q67 130 179 216q113 86 245 144q125 55 284 89q74 15 74 90q0 41 -7 72q-7 33 -25 65q-18 33 -55 51q-40 19 -91 19q-71 -1 -139 -45q-69 -45 -119 -106q-55 -68 -96 -124q-42 -57 -87 -104q-42 -43 -77 -43q-25 0 -44 19q-20 20 -20 46v113
q0 19 -1 40q-2 32 0 45q0 1 1.5 14t2.5 23q3 22 14 40q10 16 24 30q173 164 572 164q170 0 306 -54q134 -53 218 -143q80 -86 125 -197q43 -107 43 -220v-608q0 -170 72 -242h-299q-70 -113 -70 -203q0 -153 98 -153q44 0 63 20q19 21 25 41q6 21 19 21q30 0 30 -50
q0 -48 -41 -83q-39 -33 -94 -33q-166 0 -166 209q0 132 78 231h-145q-91 0 -107 88q-12 72 -53 72q-26 0 -64 -30q-49 -39 -77 -65q-39 -36 -118 -66t-179 -30q-149 0 -257 102t-108 248zM541 512q0 -283 194 -283q79 0 123 65q43 64 43 169q0 99 -1 167t-1 165q0 70 -16 98
q-17 29 -58 29q-106 0 -195 -116t-89 -294z" />
    <glyph glyph-name="Cacute" unicode="&#x106;" horiz-adv-x="1603" 
d="M881 -31q-361 0 -596 274q-234 273 -234 781q0 199 46 380q47 185 135 337q89 154 235 246t328 92q73 0 225 -41t246 -41q78 0 151 41t94 41q29 0 41 -28q13 -30 9 -72q-5 -47 -19 -95q-16 -54 -37 -102q-39 -89 -90 -156q-21 -27 -103 -115q-87 -94 -127 -158
q-44 -71 -44 -139q0 -52 33 -90q33 -37 86 -37q22 0 38 11q14 10 23 10q22 0 34 -37q11 -34 11 -76q0 -115 -98 -204q-100 -91 -228 -91q-124 0 -215 86q-90 86 -90 209q0 86 44 159q43 72 106 119q60 46 124 82q65 37 106 64q44 29 44 51q0 40 -57 50q-116 18 -231 78
q-134 70 -216 110q-99 49 -200 49q-49 0 -84 -27t-53 -70q-15 -35 -24 -80q-7 -35 -7 -71q0 -163 51 -345t142 -343q92 -162 240 -267t322 -105q100 0 177 30q74 29 116 76q44 49 70 90q31 49 54 76q26 31 52 31q52 0 52 -111q0 -104 -46 -217q-47 -116 -129 -217t-218 -170
q-134 -68 -289 -68zM659 2222q0 7 8 9q5 1 27 1q20 0 41 6q51 15 144 64q62 32 109 81q39 41 70 77q24 28 46 28q35 0 56 -44q22 -46 22 -85q0 -59 -125 -125q-123 -65 -244 -65q-63 0 -106 14q-48 15 -48 39z" />
    <glyph glyph-name="cacute" unicode="&#x107;" horiz-adv-x="1409" 
d="M51 678q0 160 47 303q46 140 138 250q91 109 236 171t333 62q162 0 325 -87q164 -87 164 -163q0 -12 -8 -31q-6 -14 -31 -41q-27 -29 -35 -36q-24 -21 -50 -43q-30 -25 -44 -39q-2 -2 -20 -18t-32 -29q-36 -33 -57 -51q-42 -36 -48 -41q-29 -24 -44 -33q-17 -10 -26 -10
q-21 0 -30 20q-6 13 -23 67q-15 47 -43 85q-67 95 -161 159t-187 64q-87 0 -134 -59q-49 -61 -49 -154q0 -158 137 -322q138 -165 322 -263q186 -99 338 -99q85 0 142 27q59 28 84 53q26 26 40 26q33 0 33 -43q0 -61 -35 -134t-100 -141q-67 -70 -179 -114
q-114 -45 -253 -45q-300 0 -526 206q-224 205 -224 503zM449 1608q0 8 7 9q5 1 27 1q20 0 41 6q51 15 144 64q64 33 109 80q39 41 70 77q24 29 46 29q36 0 57 -44t21 -85q0 -59 -125 -125t-244 -66q-60 0 -106 15q-47 15 -47 39z" />
    <glyph glyph-name="Ccircumflex" unicode="&#x108;" horiz-adv-x="1603" 
d="M881 -31q-361 0 -596 274q-234 273 -234 781q0 199 46 380q47 185 135 337q89 154 235 246t328 92q73 0 225 -41t246 -41q78 0 151 41t94 41q29 0 41 -28q13 -30 9 -72q-5 -47 -19 -95q-16 -54 -37 -102q-39 -89 -90 -156q-21 -27 -103 -115q-87 -94 -127 -158
q-44 -71 -44 -139q0 -52 33 -90q33 -37 86 -37q22 0 38 11q14 10 23 10q22 0 34 -37q11 -34 11 -76q0 -115 -98 -204q-100 -91 -228 -91q-124 0 -215 86q-90 86 -90 209q0 86 44 159q43 72 106 119q60 46 124 82q65 37 106 64q44 29 44 51q0 40 -57 50q-116 18 -231 78
q-134 70 -216 110q-99 49 -200 49q-49 0 -84 -27t-53 -70q-15 -35 -24 -80q-7 -35 -7 -71q0 -163 51 -345t142 -343q92 -162 240 -267t322 -105q100 0 177 30q74 29 116 76q44 49 70 90q31 49 54 76q26 31 52 31q52 0 52 -111q0 -104 -46 -217q-47 -116 -129 -217t-218 -170
q-134 -68 -289 -68zM686 2169q-22 0 -42 41q-18 38 -20 77q-1 36 17 42l3 -1q3 -1 8 -2.5t10 -2.5q20 -5 32 -5q40 0 118 58q76 57 110 57q32 0 109 -57q78 -58 118 -58q13 0 33 5q5 1 10 2.5t8 2.5l2 1q19 -6 18 -42q-2 -37 -21 -77q-20 -41 -42 -41q-43 0 -85 52
q-40 50 -80 106q-38 53 -70 53q-33 0 -71 -53q-40 -56 -80 -106q-42 -52 -85 -52z" />
    <glyph glyph-name="ccircumflex" unicode="&#x109;" horiz-adv-x="1409" 
d="M51 678q0 160 47 303q46 140 138 250q91 109 236 171t333 62q162 0 325 -87q164 -87 164 -163q0 -12 -8 -31q-6 -14 -31 -41q-27 -29 -35 -36q-24 -21 -50 -43q-30 -25 -44 -39q-2 -2 -20 -18t-32 -29q-36 -33 -57 -51q-42 -36 -48 -41q-29 -24 -44 -33q-17 -10 -26 -10
q-21 0 -30 20q-6 13 -23 67q-15 47 -43 85q-67 95 -161 159t-187 64q-87 0 -134 -59q-49 -61 -49 -154q0 -158 137 -322q138 -165 322 -263q186 -99 338 -99q85 0 142 27q59 28 84 53q26 26 40 26q33 0 33 -43q0 -61 -35 -134t-100 -141q-67 -70 -179 -114
q-114 -45 -253 -45q-300 0 -526 206q-224 205 -224 503zM475 1554q-22 0 -42 41q-18 38 -20 77q-1 36 17 42l20 -5q20 -5 33 -5q41 0 118 57q78 58 110 58q31 0 109 -58q76 -57 118 -57q12 0 32 5t21 5q19 -6 18 -42q-2 -37 -21 -77q-20 -41 -42 -41q-43 0 -85 53
q-47 58 -80 105q-38 53 -70 53q-33 0 -71 -53q-33 -47 -80 -105q-42 -53 -85 -53z" />
    <glyph glyph-name="Cdotaccent" unicode="&#x10a;" horiz-adv-x="1603" 
d="M51 1024q0 199 46 380q47 185 135 337q89 154 235 246t328 92q73 0 225 -41t246 -41q78 0 151 41t94 41q29 0 41 -28q13 -30 9 -72q-5 -47 -19 -95q-16 -54 -37 -102q-39 -89 -90 -156q-21 -27 -103 -115q-87 -94 -127 -158q-44 -71 -44 -139q0 -52 33 -90q33 -37 86 -37
q22 0 38 11q14 10 23 10q22 0 34 -37q11 -34 11 -76q0 -115 -98 -204q-100 -91 -228 -91q-124 0 -215 86q-90 86 -90 209q0 86 44 159q43 72 106 119q60 46 124 82q65 37 106 64q44 29 44 51q0 40 -57 50q-116 18 -231 78q-134 70 -216 110q-99 49 -200 49q-49 0 -84 -27
t-53 -70q-15 -35 -24 -80q-7 -35 -7 -71q0 -163 51 -345t142 -343q92 -162 240 -267t322 -105q100 0 177 30q74 29 116 76q44 49 70 90q31 49 54 76q26 31 52 31q52 0 52 -111q0 -104 -46 -217q-47 -116 -129 -217t-218 -170q-134 -68 -289 -68q-361 0 -596 274
q-234 273 -234 781zM774 2316q0 60 42 103t104 43q59 0 102 -43t43 -103q0 -61 -43 -104t-102 -43q-62 0 -104 43q-42 44 -42 104z" />
    <glyph glyph-name="cdotaccent" unicode="&#x10b;" horiz-adv-x="1409" 
d="M51 678q0 160 47 303q46 140 138 250q91 109 236 171t333 62q162 0 325 -87q164 -87 164 -163q0 -12 -8 -31q-6 -14 -31 -41q-27 -29 -35 -36q-24 -21 -50 -43q-30 -25 -44 -39q-2 -2 -20 -18t-32 -29q-36 -33 -57 -51q-42 -36 -48 -41q-29 -24 -44 -33q-17 -10 -26 -10
q-21 0 -30 20q-6 13 -23 67q-15 47 -43 85q-67 95 -161 159t-187 64q-87 0 -134 -59q-49 -61 -49 -154q0 -158 137 -322q138 -165 322 -263q186 -99 338 -99q85 0 142 27q59 28 84 53q26 26 40 26q33 0 33 -43q0 -61 -35 -134t-100 -141q-67 -70 -179 -114
q-114 -45 -253 -45q-300 0 -526 206q-224 205 -224 503zM709 1554q-62 0 -104 43t-42 105q0 58 42 102q42 43 104 43q59 0 102 -43t43 -102q0 -62 -43 -105t-102 -43z" />
    <glyph glyph-name="Ccaron" unicode="&#x10c;" horiz-adv-x="1603" 
d="M881 -31q-361 0 -596 274q-234 273 -234 781q0 199 46 380q47 185 135 337q89 154 235 246t328 92q73 0 225 -41t246 -41q78 0 151 41t94 41q29 0 41 -28q13 -30 9 -72q-5 -47 -19 -95q-16 -54 -37 -102q-39 -89 -90 -156q-21 -27 -103 -115q-87 -94 -127 -158
q-44 -71 -44 -139q0 -52 33 -90q33 -37 86 -37q22 0 38 11q14 10 23 10q22 0 34 -37q11 -34 11 -76q0 -115 -98 -204q-100 -91 -228 -91q-124 0 -215 86q-90 86 -90 209q0 86 44 159q43 72 106 119q60 46 124 82q65 37 106 64q44 29 44 51q0 40 -57 50q-116 18 -231 78
q-134 70 -216 110q-99 49 -200 49q-49 0 -84 -27t-53 -70q-15 -35 -24 -80q-7 -35 -7 -71q0 -163 51 -345t142 -343q92 -162 240 -267t322 -105q100 0 177 30q74 29 116 76q44 49 70 90q31 49 54 76q26 31 52 31q52 0 52 -111q0 -104 -46 -217q-47 -116 -129 -217t-218 -170
q-134 -68 -289 -68zM641 2273q-18 6 -17 42q2 39 20 77q20 41 42 41q43 0 85 -53q40 -50 80 -106q37 -52 71 -52q33 0 70 52q40 56 80 106q42 53 85 53q22 0 42 -41q19 -40 21 -77q1 -36 -18 -42l-20 5q-24 6 -33 6q-40 0 -118 -58q-77 -57 -109 -57q-34 0 -110 57
q-78 58 -118 58q-8 0 -32 -6q-20 -5 -21 -5z" />
    <glyph glyph-name="ccaron" unicode="&#x10d;" horiz-adv-x="1409" 
d="M51 678q0 160 47 303q46 140 138 250q91 109 236 171t333 62q162 0 325 -87q164 -87 164 -163q0 -12 -8 -31q-6 -14 -31 -41q-27 -29 -35 -36q-24 -21 -50 -43q-30 -25 -44 -39q-2 -2 -20 -18t-32 -29q-36 -33 -57 -51q-42 -36 -48 -41q-29 -24 -44 -33q-17 -10 -26 -10
q-21 0 -30 20q-6 13 -23 67q-15 47 -43 85q-67 95 -161 159t-187 64q-87 0 -134 -59q-49 -61 -49 -154q0 -158 137 -322q138 -165 322 -263q186 -99 338 -99q85 0 142 27q59 28 84 53q26 26 40 26q33 0 33 -43q0 -61 -35 -134t-100 -141q-67 -70 -179 -114
q-114 -45 -253 -45q-300 0 -526 206q-224 205 -224 503zM430 1659q-18 6 -17 42q2 39 20 77q20 41 42 41q42 0 85 -54q47 -58 80 -105q37 -52 71 -52q33 0 70 52q33 47 80 105q43 54 85 54q22 0 42 -41q19 -40 21 -77q1 -36 -18 -42q-1 0 -21 5t-32 5q-42 0 -118 -57
q-78 -58 -109 -58q-32 0 -110 58q-76 57 -118 57q-13 0 -33 -5z" />
    <glyph glyph-name="Dcaron" unicode="&#x10e;" horiz-adv-x="1482" 
d="M-78 2048h629q181 0 331 -84q151 -85 250 -218q99 -134 168 -306q73 -181 101 -342q31 -175 31 -332q0 -224 -42 -375q-41 -149 -128 -236q-85 -85 -199 -120t-270 -35h-871q72 72 72 242v1564q0 170 -72 242zM690 1931q-95 0 -129 -110q-35 -113 -35 -387v-410v-410
q0 -275 34 -392q34 -118 118 -118q115 0 166 227q51 226 51 689q0 84 -2 206q-1 91 -9 205q-8 116 -22 195q-15 82 -36 156q-21 73 -56 111t-80 38zM322 2273q-19 6 -18 42q2 37 21 77q20 41 42 41q43 0 85 -53q31 -38 79 -106q37 -52 71 -52t71 52q40 56 80 106
q42 53 85 53q22 0 42 -41q18 -38 20 -77q1 -36 -17 -42q-1 0 -21 5q-24 6 -33 6q-39 0 -117 -58q-76 -57 -110 -57q-32 0 -109 57q-78 58 -118 58q-9 0 -33 -6z" />
    <glyph glyph-name="dcaron" unicode="&#x10f;" horiz-adv-x="2248" 
d="M51 688q0 143 35 278q34 133 102 247q67 113 183 183q112 68 260 68q78 0 143 -25q62 -24 99 -56q47 -41 62 -55q26 -25 40 -25q33 0 33 53v286q0 128 -88 158q-31 11 -31 29q0 14 22 26q4 2 16.5 7.5t38.5 18t51 23.5q3 1 170 77q90 41 170 67q95 31 132 31q27 0 43 -14
q15 -13 16 -26q2 -18 2 -40v-1757q0 -170 72 -242h-502q-64 0 -88 42t-24 126v20q0 32 -25 9l-12 -17q-129 -211 -340 -211q-268 0 -424 205q-156 206 -156 514zM860 1249q-268 0 -268 -504q0 -107 5 -185q4 -62 27 -159q21 -89 72 -132q52 -44 131 -44q181 0 181 324v399
q0 39 -7 92q-7 51 -19 97q-14 52 -45 82t-77 30zM1888 1550q-93 18 -154 91t-61 171q0 111 78 189t190 78q115 0 191 -87q76 -86 76 -239q0 -151 -93 -284q-93 -134 -239 -134q-22 0 -48 9t-26 24q0 6 6 8q1 0 4.5 1t7.5 2l8 2q9 2 23 8q22 12 40 42t18 66q0 37 -21 53z" />
    <glyph glyph-name="Dcroat" unicode="&#x110;" horiz-adv-x="1601" 
d="M113 922h-93v102h93v782q0 170 -72 242h629q180 0 330 -84q151 -85 250 -218q101 -136 169 -306q73 -181 101 -342q30 -169 30 -332q0 -224 -42 -375q-41 -149 -128 -236q-86 -85 -198 -120q-114 -35 -271 -35h-870q72 72 72 242v680zM799 922h-154v-308q0 -275 34 -392
q34 -118 118 -118q115 0 166 227q51 226 51 689q0 84 -2 206q-1 71 -10 205q-8 125 -21 195q-15 82 -36 156q-21 73 -56 111t-80 38q-95 0 -129 -110q-35 -113 -35 -387v-410h154v-102z" />
    <glyph glyph-name="dcroat" unicode="&#x111;" horiz-adv-x="1638" 
d="M51 688q0 143 35 278q34 133 102 247q67 113 183 183q112 68 260 68q78 0 143 -25q62 -24 99 -56q47 -41 62 -55q26 -25 40 -25q33 0 33 53v147h-158v103h158v36q0 128 -88 158q-31 11 -31 29q0 14 22 26q4 2 16.5 7.5t38.5 18t51 23.5q3 1 170 77q90 41 170 67
q95 31 132 31q27 0 43 -14q15 -13 16 -26q2 -18 2 -40v-393h78v-103h-78v-1261q0 -170 72 -242h-502q-64 0 -88 42t-24 126v20q0 32 -25 9l-12 -17q-129 -211 -340 -211q-268 0 -424 205q-156 206 -156 514zM860 1249q-268 0 -268 -504q0 -107 5 -185q4 -62 27 -159
q21 -89 72 -132q52 -44 131 -44q181 0 181 324v399q0 39 -7 92q-7 51 -19 97q-14 52 -45 82t-77 30z" />
    <glyph glyph-name="Emacron" unicode="&#x112;" horiz-adv-x="1603" 
d="M881 -31q-361 0 -596 274q-234 273 -234 781q0 199 46 380q47 185 135 337q89 154 235 246t328 92q73 0 225 -41t246 -41q78 0 151 41t94 41q29 0 41 -28q13 -30 9 -72q-5 -47 -19 -95q-16 -54 -37 -102q-18 -44 -42 -84q-29 -48 -60 -86q-40 -47 -85 -73
q-50 -28 -99 -28q-123 0 -236 39t-183 84q-70 44 -164 84q-93 39 -181 39q-49 0 -84 -27t-53 -70q-15 -35 -24 -80q-7 -35 -7 -71q0 -14 -1 -38t-1 -62q0 -25 3 -60t12 -54t26 -19q22 0 58 27q33 25 94 53q56 26 138 26q106 0 288 -84t255 -84q56 0 97 40t53 40
q51 0 51 -116q0 -56 -21 -113q-23 -63 -59 -111q-39 -52 -110 -87q-67 -33 -160 -33q-85 0 -163 37q-75 36 -136 93q-66 63 -110 109q-55 58 -104 93q-53 38 -100 38q-78 0 -43 -114q92 -283 284 -462q193 -179 404 -179q100 0 177 30q74 29 116 76q44 49 70 90q31 49 54 76
q26 31 52 31q52 0 52 -111q0 -108 -46 -222q-46 -113 -131 -217q-83 -101 -217 -167q-133 -66 -288 -66zM637 2169q-23 0 -23 22v99q0 22 23 22h526q23 0 23 -22v-99q0 -22 -23 -22h-526z" />
    <glyph glyph-name="emacron" unicode="&#x113;" horiz-adv-x="1409" 
d="M51 678q0 347 194 567q193 219 541 219q263 0 417 -161q155 -163 155 -385q0 -70 -24 -121q-25 -52 -74 -80q-49 -27 -105 -45q-54 -17 -137 -20q-93 -3 -148 -2q-140 3 -162 4q-99 3 -157 3q-47 0 -47 -32q0 -37 90 -105q88 -66 227 -124q134 -56 248 -56q85 0 142 27
q59 28 84 53q26 26 40 26q33 0 33 -43q0 -61 -35 -134t-100 -141q-67 -70 -179 -114q-114 -45 -253 -45q-300 0 -526 206q-224 205 -224 503zM516 1241q-93 0 -164 -52t-71 -136q0 -121 58 -209t175 -88q77 0 149 5q68 5 131 19q67 15 103 47q37 33 37 82q0 149 -135 240
q-136 92 -283 92zM426 1675q0 23 23 23h526q22 0 22 -23v-98q0 -23 -22 -23h-526q-23 0 -23 23v98z" />
    <glyph glyph-name="Ebreve" unicode="&#x114;" horiz-adv-x="1603" 
d="M881 -31q-361 0 -596 274q-234 273 -234 781q0 199 46 380q47 185 135 337q89 154 235 246t328 92q73 0 225 -41t246 -41q78 0 151 41t94 41q29 0 41 -28q13 -30 9 -72q-5 -47 -19 -95q-16 -54 -37 -102q-18 -44 -42 -84q-29 -48 -60 -86q-40 -47 -85 -73
q-50 -28 -99 -28q-123 0 -236 39t-183 84q-70 44 -164 84q-93 39 -181 39q-49 0 -84 -27t-53 -70q-15 -35 -24 -80q-7 -35 -7 -71q0 -14 -1 -38t-1 -62q0 -25 3 -60t12 -54t26 -19q22 0 58 27q33 25 94 53q56 26 138 26q106 0 288 -84t255 -84q56 0 97 40t53 40
q51 0 51 -116q0 -56 -21 -113q-23 -63 -59 -111q-39 -52 -110 -87q-67 -33 -160 -33q-85 0 -163 37q-75 36 -136 93q-66 63 -110 109q-55 58 -104 93q-53 38 -100 38q-78 0 -43 -114q92 -283 284 -462q193 -179 404 -179q100 0 177 30q74 29 116 76q44 49 70 90q31 49 54 76
q26 31 52 31q52 0 52 -111q0 -108 -46 -222q-46 -113 -131 -217q-83 -101 -217 -167q-133 -66 -288 -66zM594 2394q0 62 22 62q10 0 15 -7q3 -4 8 -17q5 -14 20 -30q18 -19 43 -39q67 -49 197 -49t197 49q25 20 43 39q15 16 20 30q5 13 8 17q5 7 15 7q22 0 22 -62
q0 -99 -88 -162t-217 -63t-217 63t-88 162z" />
    <glyph glyph-name="ebreve" unicode="&#x115;" horiz-adv-x="1409" 
d="M51 678q0 347 194 567q193 219 541 219q263 0 417 -161q155 -163 155 -385q0 -70 -24 -121q-25 -52 -74 -80q-49 -27 -105 -45q-54 -17 -137 -20q-93 -3 -148 -2q-140 3 -162 4q-99 3 -157 3q-47 0 -47 -32q0 -37 90 -105q88 -66 227 -124q134 -56 248 -56q85 0 142 27
q59 28 84 53q26 26 40 26q33 0 33 -43q0 -61 -35 -134t-100 -141q-67 -70 -179 -114q-114 -45 -253 -45q-300 0 -526 206q-224 205 -224 503zM516 1241q-93 0 -164 -52t-71 -136q0 -121 58 -209t175 -88q77 0 149 5q68 5 131 19q67 15 103 47q37 33 37 82q0 149 -135 240
q-136 92 -283 92zM406 1780q0 61 22 61q9 0 14 -6q5 -7 9 -17q5 -14 20 -30q18 -19 43 -39q67 -49 197 -49q129 0 196 49q25 20 43 39q16 18 21 30q5 13 8 17q5 6 14 6q23 0 23 -61q0 -99 -88 -162q-90 -64 -217 -64t-217 64q-88 63 -88 162z" />
    <glyph glyph-name="Edotaccent" unicode="&#x116;" horiz-adv-x="1603" 
d="M881 -31q-361 0 -596 274q-234 273 -234 781q0 199 46 380q47 185 135 337q89 154 235 246t328 92q73 0 225 -41t246 -41q78 0 151 41t94 41q29 0 41 -28q13 -30 9 -72q-5 -47 -19 -95q-16 -54 -37 -102q-18 -44 -42 -84q-29 -48 -60 -86q-40 -47 -85 -73
q-50 -28 -99 -28q-123 0 -236 39t-183 84q-70 44 -164 84q-93 39 -181 39q-49 0 -84 -27t-53 -70q-15 -35 -24 -80q-7 -35 -7 -71q0 -14 -1 -38t-1 -62q0 -25 3 -60t12 -54t26 -19q22 0 58 27q33 25 94 53q56 26 138 26q106 0 288 -84t255 -84q56 0 97 40t53 40
q51 0 51 -116q0 -56 -21 -113q-23 -63 -59 -111q-39 -52 -110 -87q-67 -33 -160 -33q-85 0 -163 37q-75 36 -136 93q-66 63 -110 109q-55 58 -104 93q-53 38 -100 38q-78 0 -43 -114q92 -283 284 -462q193 -179 404 -179q100 0 177 30q74 29 116 76q44 49 70 90q31 49 54 76
q26 31 52 31q52 0 52 -111q0 -108 -46 -222q-46 -113 -131 -217q-83 -101 -217 -167q-133 -66 -288 -66zM897 2169q-61 0 -103 43q-42 44 -42 104t42 103t103 43q59 0 102 -43t43 -103q0 -61 -43 -104t-102 -43z" />
    <glyph glyph-name="edotaccent" unicode="&#x117;" horiz-adv-x="1409" 
d="M51 678q0 347 194 567q193 219 541 219q263 0 417 -161q155 -163 155 -385q0 -70 -24 -121q-25 -52 -74 -80q-49 -27 -105 -45q-54 -17 -137 -20q-93 -3 -148 -2q-140 3 -162 4q-99 3 -157 3q-47 0 -47 -32q0 -37 90 -105q88 -66 227 -124q134 -56 248 -56q85 0 142 27
q59 28 84 53q26 26 40 26q33 0 33 -43q0 -61 -35 -134t-100 -141q-67 -70 -179 -114q-114 -45 -253 -45q-300 0 -526 206q-224 205 -224 503zM516 1241q-93 0 -164 -52t-71 -136q0 -121 58 -209t175 -88q77 0 149 5q68 5 131 19q67 15 103 47q37 33 37 82q0 149 -135 240
q-136 92 -283 92zM709 1554q-62 0 -104 43t-42 105q0 58 42 102q42 43 104 43q59 0 102 -43t43 -102q0 -62 -43 -105t-102 -43z" />
    <glyph glyph-name="Eogonek" unicode="&#x118;" horiz-adv-x="1593" 
d="M821 -29q-344 18 -562 290t-218 763q0 199 46 380q47 185 135 337q89 154 235 246t327 92q74 0 226 -41t245 -41q79 0 152 41t94 41q29 0 41 -28q13 -28 8 -72q-5 -52 -18 -95q-16 -54 -37 -102q-18 -44 -42 -84q-29 -48 -60 -86q-40 -47 -85 -73q-50 -28 -100 -28
q-122 0 -235 39t-183 84q-70 44 -164 84q-93 39 -182 39q-50 0 -84 -27q-33 -26 -52 -70q-15 -35 -24 -80q-8 -40 -8 -71q0 -14 -1 -38t-1 -62q0 -14 4 -60q3 -35 12 -54t25 -19q23 0 59 27q33 25 94 53q56 26 138 26q106 0 288 -84t255 -84q56 0 97 40t52 40q52 0 52 -116
q0 -56 -21 -113q-23 -63 -59 -111q-39 -52 -110 -87q-67 -33 -161 -33q-84 0 -162 37q-77 36 -137 93q-57 54 -109 109q-53 55 -105 93q-53 38 -99 38q-77 0 -43 -114q92 -283 284 -462q193 -179 404 -179q100 0 176 30q75 29 117 76q44 49 70 90q31 49 54 76q26 31 52 31
q51 0 51 -111q0 -108 -46 -221q-48 -117 -128 -215q-83 -101 -213 -167q-134 -68 -284 -69q-64 -107 -64 -192q0 -154 98 -154q43 0 63 21q21 22 26 41q6 20 18 20q31 0 31 -49q0 -48 -41 -83q-40 -34 -94 -34q-166 0 -166 209q0 118 69 223z" />
    <glyph glyph-name="eogonek" unicode="&#x119;" horiz-adv-x="1409" 
d="M51 678q0 347 194 567q193 219 541 219q263 0 417 -161q155 -163 155 -385q0 -70 -24 -121q-25 -52 -74 -80q-49 -27 -105 -45q-54 -17 -137 -20q-93 -3 -148 -2q-140 3 -162 4q-99 3 -157 3q-47 0 -47 -32q0 -37 90 -105q88 -66 227 -124q134 -56 248 -56q85 0 142 27
q59 28 84 53q26 26 40 26q33 0 33 -43q0 -61 -35 -134t-100 -141q-67 -70 -179 -114q-114 -45 -253 -45q-33 0 -80 4q-64 -107 -64 -192q0 -154 99 -154q42 0 62 21q21 22 26 41q6 20 18 20q31 0 31 -49q0 -48 -41 -83q-40 -34 -94 -34q-166 0 -166 209q0 129 76 230
q-262 45 -439 239q-178 194 -178 457zM281 1053q0 -121 58 -209t175 -88q77 0 149 5q68 5 131 19q67 15 103 47q37 33 37 82q0 149 -135 240q-136 92 -283 92q-93 0 -164 -52t-71 -136z" />
    <glyph glyph-name="Ecaron" unicode="&#x11a;" horiz-adv-x="1603" 
d="M881 -31q-361 0 -596 274q-234 273 -234 781q0 199 46 380q47 185 135 337q89 154 235 246t328 92q73 0 225 -41t246 -41q78 0 151 41t94 41q29 0 41 -28q13 -30 9 -72q-5 -47 -19 -95q-16 -54 -37 -102q-18 -44 -42 -84q-29 -48 -60 -86q-40 -47 -85 -73
q-50 -28 -99 -28q-123 0 -236 39t-183 84q-70 44 -164 84q-93 39 -181 39q-49 0 -84 -27t-53 -70q-15 -35 -24 -80q-7 -35 -7 -71q0 -14 -1 -38t-1 -62q0 -25 3 -60t12 -54t26 -19q22 0 58 27q33 25 94 53q56 26 138 26q106 0 288 -84t255 -84q56 0 97 40t53 40
q51 0 51 -116q0 -56 -21 -113q-23 -63 -59 -111q-39 -52 -110 -87q-67 -33 -160 -33q-85 0 -163 37q-75 36 -136 93q-66 63 -110 109q-55 58 -104 93q-53 38 -100 38q-78 0 -43 -114q92 -283 284 -462q193 -179 404 -179q100 0 177 30q74 29 116 76q44 49 70 90q31 49 54 76
q26 31 52 31q52 0 52 -111q0 -108 -46 -222q-46 -113 -131 -217q-83 -101 -217 -167q-133 -66 -288 -66zM619 2273q-19 6 -18 42q2 37 21 77q20 41 42 41q43 0 85 -53q31 -38 79 -106q37 -52 71 -52t71 52q40 56 80 106q42 53 85 53q22 0 42 -41q18 -38 20 -77
q1 -36 -17 -42q-3 0 -21 5q-22 6 -33 6q-39 0 -117 -58q-76 -57 -110 -57q-33 0 -109 57q-78 58 -118 58q-11 0 -33 -6q-18 -5 -20 -5z" />
    <glyph glyph-name="ecaron" unicode="&#x11b;" horiz-adv-x="1409" 
d="M51 678q0 347 194 567q193 219 541 219q263 0 417 -161q155 -163 155 -385q0 -70 -24 -121q-25 -52 -74 -80q-49 -27 -105 -45q-54 -17 -137 -20q-93 -3 -148 -2q-140 3 -162 4q-99 3 -157 3q-47 0 -47 -32q0 -37 90 -105q88 -66 227 -124q134 -56 248 -56q85 0 142 27
q59 28 84 53q26 26 40 26q33 0 33 -43q0 -61 -35 -134t-100 -141q-67 -70 -179 -114q-114 -45 -253 -45q-300 0 -526 206q-224 205 -224 503zM516 1241q-93 0 -164 -52t-71 -136q0 -121 58 -209t175 -88q77 0 149 5q68 5 131 19q67 15 103 47q37 33 37 82q0 149 -135 240
q-136 92 -283 92zM430 1659q-18 6 -17 42q2 39 20 77q20 41 42 41q42 0 85 -54q47 -58 80 -105q37 -52 71 -52q33 0 70 52q33 47 80 105q43 54 85 54q22 0 42 -41q19 -40 21 -77q1 -36 -18 -42q-1 0 -21 5t-32 5q-42 0 -118 -57q-78 -58 -109 -58q-32 0 -110 58
q-76 57 -118 57q-13 0 -33 -5z" />
    <glyph glyph-name="Gcircumflex" unicode="&#x11c;" horiz-adv-x="1601" 
d="M51 1024q0 199 46 380q47 185 135 337q89 154 235 246t328 92q73 0 225 -41t246 -41q78 0 151 41t94 41q38 0 47 -47q9 -45 -7 -114q-14 -63 -46 -136q-122 -271 -286 -271q-123 0 -236 39t-183 84q-70 44 -164 84q-93 39 -181 39q-49 0 -84 -27t-53 -70q-15 -35 -24 -80
q-7 -35 -7 -71q0 -163 51 -345t142 -343q92 -162 240 -267t322 -105q105 0 180 38q76 39 117 102q42 66 61 129q19 64 19 136q0 95 -15 142q-15 46 -58 46q-29 0 -64 -44q-34 -44 -69 -96q-36 -54 -102 -96q-70 -44 -157 -44q-168 0 -258 95t-90 241q0 49 28 93q27 42 66 42
q7 0 65 -32t114 -32q63 0 176 46q115 47 219 47q102 0 184 -63t82 -185v-520q-61 -212 -234 -367q-176 -158 -425 -158q-361 0 -596 274q-234 273 -234 781zM688 2169q-22 0 -42 41q-18 38 -20 77q-1 36 17 42q1 0 4 -1t8 -2.5t9 -2.5q18 -5 32 -5q40 0 118 58q76 57 110 57
q32 0 109 -57q78 -58 118 -58q15 0 33 5q4 1 7.5 2t5.5 2t4 1.5t3 0.5q19 -6 18 -42q-2 -37 -21 -77q-20 -41 -42 -41q-43 0 -85 52q-40 50 -80 106q-38 53 -70 53q-33 0 -71 -53q-40 -56 -80 -106q-42 -52 -85 -52z" />
    <glyph glyph-name="gcircumflex" unicode="&#x11d;" horiz-adv-x="1626" 
d="M453 270q-187 83 -295 229q-107 145 -107 339q0 280 209 453t549 173q50 0 149 -15t125 -15q78 0 135 22q58 22 91 55q31 31 57 65q22 28 49 54q25 23 51 23q58 0 109 -76q51 -77 51 -143q0 -38 -40 -63t-95 -25q-91 0 -166 23q-80 25 -139 26q180 -73 279 -218
q100 -145 100 -339q0 -246 -160 -417q-159 -170 -428 -200q-33 -5 -33 -37q0 -34 62 -57q59 -22 149 -43q93 -22 176 -53q87 -33 150 -106q61 -71 61 -181q0 -185 -183 -287t-458 -102q-193 0 -382 53q-184 52 -320 163q-133 109 -133 249q0 33 65 89q62 54 160 105
q155 82 244 82q37 0 66 -25q30 -25 30 -69q0 -18 -19 -88q-18 -66 -18 -158q0 -114 61 -182q62 -70 168 -70q110 0 174 59t64 171q0 60 -13 108q-13 47 -30 86q-17 38 -56 73q-34 30 -70 59q-34 27 -91 55q-53 26 -101 48q-37 17 -119 52q-109 47 -128 55zM588 805
q0 -255 60 -408t161 -153q99 0 159 153t60 408q0 253 -60 408t-159 155q-101 0 -161 -155t-60 -408zM573 1554q-22 0 -42 41q-18 38 -20 77q-1 36 17 42q3 0 21 -5t33 -5q40 0 117 57q78 58 110 58t110 -58q77 -57 117 -57q15 0 33 5t21 5q18 -6 17 -42q-2 -37 -21 -77
q-20 -41 -42 -41q-43 0 -85 53q-37 47 -79 105q-38 53 -71 53t-71 -53q-33 -47 -80 -105q-42 -53 -85 -53z" />
    <glyph glyph-name="Gbreve" unicode="&#x11e;" horiz-adv-x="1601" 
d="M51 1024q0 199 46 380q47 185 135 337q89 154 235 246t328 92q73 0 225 -41t246 -41q78 0 151 41t94 41q38 0 47 -47q9 -45 -7 -114q-14 -63 -46 -136q-122 -271 -286 -271q-123 0 -236 39t-183 84q-70 44 -164 84q-93 39 -181 39q-49 0 -84 -27t-53 -70q-15 -35 -24 -80
q-7 -35 -7 -71q0 -163 51 -345t142 -343q92 -162 240 -267t322 -105q105 0 180 38q76 39 117 102q42 66 61 129q19 64 19 136q0 95 -15 142q-15 46 -58 46q-29 0 -64 -44q-34 -44 -69 -96q-36 -54 -102 -96q-70 -44 -157 -44q-168 0 -258 95t-90 241q0 49 28 93q27 42 66 42
q7 0 65 -32t114 -32q63 0 176 46q115 47 219 47q102 0 184 -63t82 -185v-520q-61 -212 -234 -367q-176 -158 -425 -158q-361 0 -596 274q-234 273 -234 781zM618 2394q0 62 23 62q9 0 14 -7t9 -17q5 -14 20 -30q18 -19 43 -39q67 -49 197 -49q129 0 196 49q25 20 43 39
q17 18 21 30q5 13 8 17q5 7 14 7q23 0 23 -62q0 -99 -88 -162q-89 -63 -217 -63t-217 63t-89 162z" />
    <glyph glyph-name="gbreve" unicode="&#x11f;" horiz-adv-x="1626" 
d="M51 838q0 280 209 453t549 173q50 0 149 -15t125 -15q78 0 135 22q58 22 91 55q31 31 57 65q22 28 49 54q25 23 51 23q58 0 109 -76q51 -77 51 -143q0 -38 -40 -63t-95 -25q-91 0 -166 23q-80 25 -139 26q180 -73 279 -218q100 -145 100 -339q0 -246 -160 -417
q-159 -170 -428 -200q-33 -5 -33 -37q0 -34 62 -57q59 -22 149 -43q93 -22 176 -53q87 -33 150 -106q61 -71 61 -181q0 -185 -183 -287t-458 -102q-193 0 -382 53q-184 52 -320 163q-133 109 -133 249q0 33 65 89q62 54 160 105q155 82 244 82q37 0 66 -25q30 -25 30 -69
q0 -18 -19 -88q-18 -66 -18 -158q0 -114 61 -182q62 -70 168 -70q110 0 174 59t64 171q0 60 -13 108q-13 47 -30 86q-17 38 -56 73q-34 30 -70 59q-34 27 -91 55q-53 26 -101 48q-37 17 -119 52q-109 47 -128 55q-187 83 -295 229q-107 145 -107 339zM588 805
q0 -255 60 -408t161 -153q99 0 159 153t60 408q0 253 -60 408t-159 155q-101 0 -161 -155t-60 -408zM504 1780q0 61 22 61q10 0 15 -6q3 -4 8 -17q5 -14 20 -30q18 -19 43 -39q67 -49 197 -49t197 49q25 20 43 39q15 16 20 30q5 13 8 17q5 6 15 6q22 0 22 -61
q0 -99 -88 -162q-90 -64 -217 -64t-217 64q-88 63 -88 162z" />
    <glyph glyph-name="Gdotaccent" unicode="&#x120;" horiz-adv-x="1601" 
d="M51 1024q0 199 46 380q47 185 135 337q89 154 235 246t328 92q73 0 225 -41t246 -41q78 0 151 41t94 41q38 0 47 -47q9 -45 -7 -114q-14 -63 -46 -136q-122 -271 -286 -271q-123 0 -236 39t-183 84q-70 44 -164 84q-93 39 -181 39q-49 0 -84 -27t-53 -70q-15 -35 -24 -80
q-7 -35 -7 -71q0 -163 51 -345t142 -343q92 -162 240 -267t322 -105q105 0 180 38q76 39 117 102q42 66 61 129q19 64 19 136q0 95 -15 142q-15 46 -58 46q-29 0 -64 -44q-34 -44 -69 -96q-36 -54 -102 -96q-70 -44 -157 -44q-168 0 -258 95t-90 241q0 49 28 93q27 42 66 42
q7 0 65 -32t114 -32q63 0 176 46q115 47 219 47q102 0 184 -63t82 -185v-520q-61 -212 -234 -367q-176 -158 -425 -158q-361 0 -596 274q-234 273 -234 781zM776 2316q0 60 42 103t104 43q59 0 102 -43t43 -103q0 -61 -43 -104t-102 -43q-62 0 -104 43q-42 44 -42 104z" />
    <glyph glyph-name="gdotaccent" unicode="&#x121;" horiz-adv-x="1626" 
d="M51 838q0 280 209 453t549 173q50 0 149 -15t125 -15q78 0 135 22q58 22 91 55q31 31 57 65q22 28 49 54q25 23 51 23q58 0 109 -76q51 -77 51 -143q0 -38 -40 -63t-95 -25q-91 0 -166 23q-80 25 -139 26q180 -73 279 -218q100 -145 100 -339q0 -246 -160 -417
q-159 -170 -428 -200q-33 -5 -33 -37q0 -34 62 -57q59 -22 149 -43q93 -22 176 -53q87 -33 150 -106q61 -71 61 -181q0 -185 -183 -287t-458 -102q-193 0 -382 53q-184 52 -320 163q-133 109 -133 249q0 33 65 89q62 54 160 105q155 82 244 82q37 0 66 -25q30 -25 30 -69
q0 -18 -19 -88q-18 -66 -18 -158q0 -114 61 -182q62 -70 168 -70q110 0 174 59t64 171q0 60 -13 108q-13 47 -30 86q-17 38 -56 73q-34 30 -70 59q-34 27 -91 55q-53 26 -101 48q-37 17 -119 52q-109 47 -128 55q-187 83 -295 229q-107 145 -107 339zM809 1368
q-101 0 -161 -155t-60 -408q0 -255 60 -408t161 -153q99 0 159 153t60 408q0 253 -60 408t-159 155zM807 1554q-62 0 -104 43t-42 105q0 58 42 102q42 43 104 43q59 0 102 -43t43 -102q0 -62 -43 -105t-102 -43z" />
    <glyph glyph-name="Gcommaaccent" unicode="&#x122;" horiz-adv-x="1601" 
d="M51 1024q0 199 46 380q47 185 135 337q89 154 235 246t328 92q73 0 225 -41t246 -41q78 0 151 41t94 41q38 0 47 -47q9 -45 -7 -114q-14 -63 -46 -136q-122 -271 -286 -271q-123 0 -236 39t-183 84q-70 44 -164 84q-93 39 -181 39q-49 0 -84 -27t-53 -70q-15 -35 -24 -80
q-7 -35 -7 -71q0 -163 51 -345t142 -343q92 -162 240 -267t322 -105q105 0 180 38q76 39 117 102q42 66 61 129q19 64 19 136q0 95 -15 142q-15 46 -58 46q-29 0 -64 -44q-34 -44 -69 -96q-36 -54 -102 -96q-70 -44 -157 -44q-168 0 -258 95t-90 241q0 49 28 93q27 42 66 42
q7 0 65 -32t114 -32q63 0 176 46q115 47 219 47q102 0 184 -63t82 -185v-520q-61 -212 -234 -367q-176 -158 -425 -158q-361 0 -596 274q-234 273 -234 781zM696 -258q0 59 43 102t103 43q63 0 104 -47t41 -131q0 -81 -50 -154t-130 -73q-41 0 -41 18q0 2 4 3q6 2 11 3
q3 1 7 3t5 2q32 17 32 59q0 18 -12 29q-52 11 -84 50q-33 41 -33 93z" />
    <glyph glyph-name="gcommaaccent" unicode="&#x123;" horiz-adv-x="1626" 
d="M453 270q-187 83 -295 229q-107 145 -107 339q0 280 209 453t549 173q50 0 149 -15t125 -15q78 0 135 22q58 22 91 55q31 31 57 65q22 28 49 54q25 23 51 23q58 0 109 -76q51 -77 51 -143q0 -38 -40 -63t-95 -25q-91 0 -166 23q-80 25 -139 26q180 -73 279 -218
q100 -145 100 -339q0 -246 -160 -417q-159 -170 -428 -200q-33 -5 -33 -37q0 -34 62 -57q59 -22 149 -43q93 -22 176 -53q87 -33 150 -106q61 -71 61 -181q0 -185 -183 -287t-458 -102q-193 0 -382 53q-184 52 -320 163q-133 109 -133 249q0 33 65 89q62 54 160 105
q155 82 244 82q37 0 66 -25q30 -25 30 -69q0 -18 -19 -88q-18 -66 -18 -158q0 -114 61 -182q62 -70 168 -70q110 0 174 59t64 171q0 60 -13 108q-13 47 -30 86q-17 38 -56 73q-34 30 -70 59q-34 27 -91 55q-53 26 -101 48q-37 17 -119 52q-109 47 -128 55zM588 805
q0 -255 60 -408t161 -153q99 0 159 153t60 408q0 253 -60 408t-159 155q-101 0 -161 -155t-60 -408zM717 -942q0 59 43 102t102 43q64 0 105 -47t41 -131q0 -80 -51 -154q-50 -73 -130 -73q-41 0 -41 18q0 1 5 3q6 2 11 3q3 1 7 2l4 2q33 18 33 60q0 18 -12 29
q-52 11 -84 50q-33 41 -33 93z" />
    <glyph glyph-name="Hcircumflex" unicode="&#x124;" horiz-adv-x="1619" 
d="M92 1806q0 170 -72 242h543q39 0 74 -48q35 -49 35 -102q0 -104 -49 -175q-50 -73 -120 -110q-69 -37 -141 -68t-118 -69q-49 -40 -49 -96q0 -17 11 -28q13 -13 27 -13q26 0 90 35q66 36 185 71q123 36 297 36q172 0 298 -36q122 -35 191 -71q67 -35 92 -35q15 0 28 13
q11 11 11 28q0 56 -49 96q-46 37 -120 69q-69 29 -140 68q-69 38 -119 110q-49 71 -49 175q0 53 35 102q35 48 74 48h542q-71 -71 -71 -242v-1564q0 -171 71 -242h-483q-114 0 -163 54q-50 55 -50 128q0 112 54 224t130 203q68 81 153 173q80 86 131 160q54 78 54 135
q0 35 -30 35q-19 0 -62 -27t-96 -57t-171 -57q-119 -27 -269 -27q-152 0 -266 27q-112 27 -161 57q-48 30 -87 57t-58 27q-30 0 -30 -35q0 -57 54 -135t130 -160q75 -81 152 -173q81 -97 132 -203q54 -112 54 -224q0 -73 -50 -128q-49 -54 -163 -54h-484q72 72 72 242v1564z
M575 2169q-22 0 -42 41q-18 38 -20 77q-1 36 17 42l3 -1q3 -1 8 -2.5t10 -2.5q20 -5 33 -5q39 0 117 58q77 57 110 57t110 -57q78 -58 117 -58q13 0 33 5q5 1 10 2.5t8 2.5l3 1q18 -6 17 -42q-2 -39 -20 -77q-20 -41 -42 -41q-43 0 -85 52q-40 50 -80 106q-38 53 -71 53
t-71 -53q-40 -56 -80 -106q-42 -52 -85 -52z" />
    <glyph glyph-name="hcircumflex" unicode="&#x125;" horiz-adv-x="1593" 
d="M-20 1829q0 14 22 26q460 224 578 224q27 0 43 -14q15 -13 16 -26q2 -18 2 -40v-819h14q24 0 47 29q4 5 24.5 30.5t33.5 41.5q36 46 76 83q45 42 119 71t173 29q351 0 351 -481l2 -391v-350q0 -171 71 -242h-686q72 72 72 242v665q0 183 -117 183q-180 0 -180 -291v-557
q0 -170 72 -242h-686q71 71 71 242v1400q0 128 -88 158q-30 10 -30 29zM98 2169q-22 0 -42 41q-18 38 -20 77q-1 36 17 42l3 -1q2 -1 7 -2.5t10 -2.5q20 -5 33 -5q40 0 118 58q77 57 110 57q32 0 109 -57q78 -58 118 -58q15 0 33 5q4 1 7.5 2t5.5 2t4 1.5t3 0.5
q19 -6 18 -42q-2 -37 -21 -77q-20 -41 -42 -41q-43 0 -85 52q-40 50 -80 106q-38 53 -70 53q-33 0 -71 -53q-40 -56 -80 -106q-42 -52 -85 -52z" />
    <glyph glyph-name="Hbar" unicode="&#x126;" horiz-adv-x="1624" 
d="M98 1169h-88v103h88v534q0 171 -71 242h542q39 0 74 -48q35 -49 35 -102q0 -104 -49 -175q-50 -73 -120 -110q-73 -39 -140 -68q-74 -32 -119 -69q-49 -40 -49 -96q0 -17 11 -28q13 -13 28 -13q25 0 89 35q66 36 185 71q123 36 297 36q172 0 298 -36q122 -35 191 -71
q67 -35 93 -35q14 0 27 13q12 12 12 28q0 55 -50 96q-47 38 -119 69q-73 31 -141 68t-118 110t-50 175q0 53 35 102q35 48 74 48h543q-72 -72 -72 -242v-534h80v-103h-80v-927q0 -170 72 -242h-484q-114 0 -163 54q-50 55 -50 128q0 109 55 224q52 109 131 203
q77 92 152 173q76 82 130 160q55 79 55 135q0 35 -31 35q-19 0 -62 -27t-96 -57t-171 -57t-269 -27t-265 27t-162 57t-87 57t-58 27q-30 0 -30 -35q0 -57 54 -135q51 -74 131 -160q85 -92 153 -173q76 -91 130 -203t54 -224q0 -73 -50 -128q-49 -54 -163 -54h-483
q71 71 71 242v927z" />
    <glyph glyph-name="hbar" unicode="&#x127;" horiz-adv-x="1593" 
d="M10 1800q-30 10 -30 29q0 14 22 26q460 224 578 224q27 0 43 -14q15 -13 16 -26q2 -18 2 -40v-432h143v-103h-143v-284h14q24 0 47 29q4 5 24.5 30.5t33.5 41.5q36 46 76 83q45 42 119 71t173 29q351 0 351 -481l2 -391v-350q0 -171 71 -242h-686q72 72 72 242v665
q0 183 -117 183q-180 0 -180 -291v-557q0 -170 72 -242h-686q71 71 71 242v1222h-92v103h92v75v11v16q0 11 -1 20q-1 13 -3 21q-2 10 -6 22q-5 15 -11 22q-10 12 -17 19q-8 8 -21 16q-9 5 -29 11z" />
    <glyph glyph-name="Itilde" unicode="&#x128;" horiz-adv-x="727" 
d="M20 0q72 72 72 242v1564q0 170 -72 242h687q-72 -72 -72 -242v-1564q0 -170 72 -242h-687zM74 2236q0 67 52 107q53 41 122 41q78 0 168 -35t143 -35q32 0 49 19q16 18 23 18q10 0 17 -16q7 -15 7 -33q0 -63 -47 -98t-110 -35q-46 0 -145 35q-96 34 -165 34
q-45 0 -71 -22l-27 -21q-16 0 -16 41z" />
    <glyph glyph-name="itilde" unicode="&#x129;" horiz-adv-x="722" 
d="M31 1186q-31 11 -31 28q0 15 23 27q2 0 7.5 3t17.5 9l24 12q15 7 40 20t36 18q10 5 23.5 11.5t33 15.5l32.5 15q54 25 99 45q19 8 93 36q43 16 87 28q37 10 64 10q29 0 43 -13t16 -27q2 -18 2 -40v-1142q0 -170 72 -242h-686q71 71 71 242v786v14v24q0 15 -1 27
q-1 17 -6 29q-5 14 -12 26q-6 11 -20 23q-12 11 -28 15zM55 1622q0 66 53 107q52 40 121 40q81 0 168 -34q90 -35 144 -35q33 0 49 18q17 19 22 19q10 0 18 -17q7 -15 7 -32q0 -64 -47 -99t-111 -35q-45 0 -144 35t-165 35q-46 0 -72 -22l-26 -21q-17 0 -17 41z" />
    <glyph glyph-name="Imacron" unicode="&#x12a;" horiz-adv-x="727" 
d="M20 0q72 72 72 242v1564q0 170 -72 242h687q-72 -72 -72 -242v-1564q0 -170 72 -242h-687zM80 2290q0 22 22 22h527q22 0 22 -22v-99q0 -22 -22 -22h-527q-22 0 -22 22v99z" />
    <glyph glyph-name="imacron" unicode="&#x12b;" horiz-adv-x="722" 
d="M31 1186q-31 11 -31 28q0 15 23 27q2 0 7.5 3t17.5 9l24 12q15 7 40 20t36 18q10 5 23.5 11.5t33 15.5l32.5 15q54 25 99 45q19 8 93 36q43 16 87 28q37 10 64 10q29 0 43 -13t16 -27q2 -18 2 -40v-1142q0 -170 72 -242h-686q71 71 71 242v786v14v24q0 15 -1 27
q-1 17 -6 29q-5 14 -12 26q-6 11 -20 23q-12 11 -28 15zM61 1675q0 23 23 23h526q23 0 23 -23v-98q0 -23 -23 -23h-526q-23 0 -23 23v98z" />
    <glyph glyph-name="Ibreve" unicode="&#x12c;" horiz-adv-x="727" 
d="M20 0q72 72 72 242v1564q0 170 -72 242h687q-72 -72 -72 -242v-1564q0 -170 72 -242h-687zM59 2394q0 62 23 62q9 0 14 -7q3 -4 8 -17q4 -12 21 -30q18 -19 43 -39q67 -49 197 -49q129 0 196 49q25 20 43 39q16 18 21 30q5 13 8 17q5 7 14 7q23 0 23 -62q0 -99 -88 -162
t-217 -63t-218 63q-88 63 -88 162z" />
    <glyph glyph-name="ibreve" unicode="&#x12d;" horiz-adv-x="722" 
d="M31 1186q-31 11 -31 28q0 15 23 27q2 0 7.5 3t17.5 9l24 12q15 7 40 20t36 18q10 5 23.5 11.5t33 15.5l32.5 15q54 25 99 45q19 8 93 36q43 16 87 28q37 10 64 10q29 0 43 -13t16 -27q2 -18 2 -40v-1142q0 -170 72 -242h-686q71 71 71 242v786v14v24q0 15 -1 27
q-1 17 -6 29q-5 14 -12 26q-6 11 -20 23q-12 11 -28 15zM346 1554q-127 0 -217 64q-88 63 -88 162q0 61 22 61q11 0 15 -6q3 -4 8 -17q5 -14 20 -30q15 -17 44 -39q67 -49 196 -49q130 0 197 49q25 20 43 39q15 16 20 30q5 13 8 17q4 6 15 6q22 0 22 -61q0 -99 -88 -162
q-90 -64 -217 -64z" />
    <glyph glyph-name="Iogonek" unicode="&#x12e;" horiz-adv-x="727" 
d="M92 1806q0 170 -72 242h687q-72 -72 -72 -242v-1564q0 -170 72 -242h-326q-70 -113 -70 -203q0 -153 99 -153q43 0 62 20q21 22 26 41q6 21 18 21q31 0 31 -50q0 -48 -41 -83q-39 -33 -94 -33q-166 0 -166 209q0 132 78 231h-304q72 72 72 242v1564z" />
    <glyph glyph-name="iogonek" unicode="&#x12f;" horiz-adv-x="722" 
d="M0 1214q0 15 23 27q2 0 7.5 3t17.5 9l24 12q15 7 40 20t36 18q10 5 23.5 11.5t33 15.5l32.5 15q54 25 99 45q19 8 93 36q43 16 87 28q37 10 64 10q29 0 43 -13t16 -27q2 -18 2 -40v-1142q0 -170 72 -242h-367q-70 -113 -70 -203q0 -153 99 -153q43 0 62 20q21 22 26 41
q6 21 18 21q31 0 31 -50q0 -48 -41 -83q-39 -33 -94 -33q-166 0 -166 209q0 131 76 231h-260q71 71 71 242v786v12v20q0 11 -1 21q-1 13 -3 25q0 1 -7 24q-5 15 -12 24q-8 10 -19 18q-14 11 -25 14q-31 11 -31 28zM365 2169q135 0 217 -82t82 -217t-82 -217t-217 -82
q-136 0 -218 82q-81 81 -81 217t81 217q82 82 218 82z" />
    <glyph glyph-name="Idotaccent" unicode="&#x130;" horiz-adv-x="727" 
d="M20 0q72 72 72 242v1564q0 170 -72 242h687q-72 -72 -72 -242v-1564q0 -170 72 -242h-687zM362 2169q-61 0 -103 43q-42 44 -42 104t42 103t103 43q60 0 103 -43t43 -103q0 -61 -43 -104t-103 -43z" />
    <glyph glyph-name="dotlessi" unicode="&#x131;" horiz-adv-x="794" 
d="M72 1186q-31 11 -31 28q0 15 22 27q1 0 50 24q15 7 40 20t36 18q74 35 88 42q43 20 100 45q19 8 93 36q43 16 87 28q37 10 64 10q29 0 43 -13t16 -27q2 -18 2 -40v-1142q0 -170 72 -242h-686q71 71 71 242v786v14v24q0 15 -1 27q-1 17 -6 29q-5 14 -12 26q-6 11 -20 23
q-12 11 -28 15z" />
    <glyph glyph-name="Jcircumflex" unicode="&#x134;" horiz-adv-x="841" 
d="M311 -31q-119 0 -205 56t-86 129q0 34 29 34q158 0 158 228v1390q0 170 -72 242h686q-71 -71 -71 -242v-1321q0 -253 -121 -384q-121 -132 -318 -132zM252 2169q-22 0 -42 41q-19 40 -21 77q-1 36 18 42l3 -1q2 -1 7 -2.5t10 -2.5q20 -5 33 -5q40 0 118 58q76 57 109 57
t110 -57q78 -58 118 -58q13 0 33 5q5 1 10 2.5t8 2.5l2 1q18 -6 17 -42q-2 -39 -20 -77q-20 -41 -42 -41q-43 0 -85 52q-40 50 -80 106q-38 53 -71 53q-32 0 -70 -53q-40 -56 -80 -106q-42 -52 -85 -52z" />
    <glyph glyph-name="jcircumflex" unicode="&#x135;" horiz-adv-x="702" 
d="M227 -645q-97 0 -177 34q-81 35 -81 76q0 17 13 22t34 5q19 0 33 2q70 17 70 144v1390v12v20q0 11 -1 21q-1 13 -3 25q0 1 -7 24q-4 13 -13 24q-10 12 -18 18q-14 10 -26 14q-31 11 -31 28q0 15 23 27q3 1 144 69q134 65 242 107q120 47 171 47q29 0 43 -13t16 -27
q3 -27 3 -40v-1368q0 -124 -20 -236q-20 -113 -65 -210q-46 -100 -136 -158q-89 -57 -214 -57zM107 1554q-22 0 -42 41q-19 40 -21 77q-1 36 17 42q3 0 21 -5t33 -5q41 0 117 57q78 58 110 58t110 -58q76 -57 117 -57q15 0 33 5t21 5q18 -6 17 -42q-2 -39 -20 -77
q-20 -41 -42 -41q-43 0 -85 53q-47 58 -80 105q-38 53 -71 53t-71 -53q-33 -47 -80 -105q-42 -53 -84 -53z" />
    <glyph glyph-name="Kcommaaccent" unicode="&#x136;" horiz-adv-x="1628" 
d="M92 1806q0 170 -72 242h570q114 0 163 -54q50 -55 50 -128q0 -109 -61 -205q-60 -94 -145 -160q-76 -59 -171 -122q-93 -62 -146 -115q-61 -61 -61 -117q0 -64 66 -64q61 0 187 73q122 70 248 180q123 107 217 252q93 144 93 267q0 105 -57 193h432q64 0 112 -54t48 -136
q0 -162 -109 -291q-107 -126 -263 -202q-144 -70 -308 -131q-158 -59 -262 -108q-109 -51 -109 -102q0 -46 117 -39q50 4 191 51q141 46 222 45q46 0 83 -22q39 -23 62 -51q21 -25 47 -80q20 -43 35 -89q4 -14 14 -47.5t15 -51.5q6 -20 15.5 -49t11.5 -38q110 -323 171 -466
q59 -139 130 -187h-440q-132 0 -186 42t-84 148q-89 309 -146 426q-63 132 -160 222q-95 89 -206 88q-95 -1 -143 -49q-46 -46 -46 -103q0 -73 47 -131q45 -55 114 -99t133 -89q68 -48 114 -125q47 -79 47 -180q0 -53 -35 -102q-35 -48 -74 -48h-543q72 72 72 242v1564z
M661 -289q0 59 44 103q43 43 102 43q63 0 104 -47t41 -132q0 -81 -50 -154t-130 -73q-41 0 -41 19q0 2 4 3q6 2 11 3q2 0 4.5 1t4.5 2t3 1q33 18 33 59q0 18 -13 29q-52 11 -84 50q-33 40 -33 93z" />
    <glyph glyph-name="kcommaaccent" unicode="&#x137;" horiz-adv-x="1527" 
d="M10 1800q-30 10 -30 29q0 14 22 26q4 2 16.5 7.5t38.5 18t51 23.5q3 1 170 77q93 42 169 67q95 31 133 31q27 0 43 -14q15 -13 16 -26q2 -18 2 -40v-903q83 166 244 268q158 100 360 100q83 0 156 -24q74 -24 74 -68v-344q0 -96 -70 -96q-54 0 -119 31q-69 33 -152 61
q-91 31 -208 31q-144 0 -216 -60q-73 -61 -73 -149q0 -135 134 -248t337 -113q89 0 157 20q67 20 107 39q39 19 70 19q5 0 15 -2q5 -1 11 -7q4 -4 8 -10q3 -5 5 -15q0 -3 1 -5.5t2 -5.5t1 -4q2 -8 2 -19v-20v-20v-21v-395q0 -32 -31 -49q-32 -18 -59 -19q-38 -2 -78 -2
q-209 0 -398 142t-280 356v-225q0 -170 72 -242h-686q71 71 71 242v1400v11v16q0 11 -1 20q-1 13 -3 21q-2 10 -6 22q-5 15 -11 22q-10 12 -17 19q-8 8 -21 16q-9 5 -29 11zM657 -289q0 60 43 103t103 43q63 0 104 -47t41 -132q0 -81 -50 -154t-130 -73q-41 0 -41 19
q0 2 4 3q6 2 11 3q2 0 4.5 1t4.5 2t3 1q32 17 32 59q0 19 -12 29q-52 11 -84 50q-33 40 -33 93z" />
    <glyph glyph-name="kgreenlandic" unicode="&#x138;" horiz-adv-x="1527" 
d="M10 1800q-30 10 -30 29q0 14 22 26q4 2 16.5 7.5t38.5 18t51 23.5q3 1 170 77q93 42 169 67q95 31 133 31q27 0 43 -14q15 -13 16 -26q2 -18 2 -40v-903q83 166 244 268q158 100 360 100q83 0 156 -24q74 -24 74 -68v-344q0 -96 -70 -96q-54 0 -119 31q-69 33 -152 61
q-91 31 -208 31q-144 0 -216 -60q-73 -61 -73 -149q0 -135 134 -248t337 -113q89 0 157 20q67 20 107 39q39 19 70 19q5 0 15 -2q5 -1 11 -7q4 -4 8 -10q3 -5 5 -15q0 -3 1 -5.5t2 -5.5t1 -4q2 -8 2 -19v-20v-20v-21v-395q0 -32 -31 -49q-32 -18 -59 -19q-38 -2 -78 -2
q-209 0 -398 142t-280 356v-225q0 -170 72 -242h-686q71 71 71 242v1400v11v16q0 11 -1 20q-1 13 -3 21q-2 10 -6 22q-5 15 -11 22q-10 12 -17 19q-8 8 -21 16q-9 5 -29 11z" />
    <glyph glyph-name="Lacute" unicode="&#x139;" horiz-adv-x="1501" 
d="M1112 0h-1092q72 72 72 242v1564q0 170 -72 242h629q113 0 163 -54q50 -55 50 -128q0 -83 -61 -184q-56 -93 -149 -202q-97 -113 -174 -212q-86 -109 -148 -246q-62 -136 -62 -266q0 -87 35 -197t97 -213q63 -105 168 -174q107 -70 229 -70q104 0 187 52q81 51 81 141
q0 74 -36 137t-86 113q-11 11 -31.5 31t-37.5 37t-32 33q-52 53 -87 131q-36 79 -36 175q0 116 83 207q82 90 197 90q121 0 293 -71q174 -72 174 -154q0 -78 -69 -125q-68 -46 -155 -64t-155 -61q-69 -44 -69 -117q0 -49 48 -89q43 -36 116 -72q68 -33 135 -72
q68 -39 116 -105t48 -151q0 -41 -14 -72q-14 -32 -36 -48q-21 -16 -56 -29q-28 -11 -68 -14q-50 -4 -76 -5q-39 -2 -78 0h-41zM305 2169q-63 0 -106 14q-47 15 -47 39q0 8 7 9q5 1 27 1q20 0 41 6q51 15 144 64q62 32 109 81q39 41 70 77q24 28 46 28q35 0 56 -44
q22 -46 22 -85q0 -59 -125 -125q-123 -65 -244 -65z" />
    <glyph glyph-name="lacute" unicode="&#x13a;" horiz-adv-x="733" 
d="M10 1800q-30 10 -30 29q0 14 22 26q460 224 578 224q27 0 43 -14q15 -13 16 -26q2 -18 2 -40v-1757q0 -170 72 -242h-502q-64 0 -88 42q-25 44 -25 126v1474v11v16q0 11 -1 20q-1 13 -3 21q-2 10 -6 22q-5 15 -11 22q-10 12 -17 19q-8 8 -21 16q-9 5 -29 11zM47 2191
q0 9 7 10q5 1 28 1q20 0 41 6q53 16 143 63q64 34 110 81q32 33 69 77q24 29 47 29q36 0 57 -44q20 -41 20 -85q0 -59 -125 -125q-124 -66 -243 -66q-64 0 -107 14q-47 15 -47 39z" />
    <glyph glyph-name="Lcommaaccent" unicode="&#x13b;" horiz-adv-x="1501" 
d="M1112 0h-1092q72 72 72 242v1564q0 170 -72 242h629q113 0 163 -54q50 -55 50 -128q0 -83 -61 -184q-56 -93 -149 -202q-97 -113 -174 -212q-86 -109 -148 -246q-62 -136 -62 -266q0 -87 35 -197t97 -213q63 -105 168 -174q107 -70 229 -70q104 0 187 52q81 51 81 141
q0 74 -36 137t-86 113q-11 11 -31.5 31t-37.5 37t-32 33q-52 53 -87 131q-36 79 -36 175q0 116 83 207q82 90 197 90q121 0 293 -71q174 -72 174 -154q0 -78 -69 -125q-68 -46 -155 -64t-155 -61q-69 -44 -69 -117q0 -49 48 -89q43 -36 116 -72q68 -33 135 -72
q68 -39 116 -105t48 -151q0 -41 -14 -72q-14 -32 -36 -48q-21 -16 -56 -29q-28 -11 -68 -14q-50 -4 -76 -5q-39 -2 -78 0h-41zM625 -258q0 59 43 102t102 43q64 0 105 -47q40 -46 40 -131q0 -81 -50 -154t-130 -73q-41 0 -41 18q0 2 4 3l12 3q3 1 6.5 3t4.5 2q33 18 33 59
q0 18 -13 29q-52 11 -84 50t-32 93z" />
    <glyph glyph-name="lcommaaccent" unicode="&#x13c;" horiz-adv-x="733" 
d="M10 1800q-30 10 -30 29q0 14 22 26q460 224 578 224q27 0 43 -14q15 -13 16 -26q2 -18 2 -40v-1757q0 -170 72 -242h-502q-64 0 -88 42q-25 44 -25 126v1474v11v16q0 11 -1 20q-1 13 -3 21q-2 10 -6 22q-5 15 -11 22q-10 12 -17 19q-8 8 -21 16q-9 5 -29 11zM365 -432
q-52 11 -84 50q-33 40 -33 93q0 60 43 103t102 43q64 0 105 -47t41 -132q0 -80 -51 -154q-50 -73 -130 -73q-41 0 -41 19q0 1 5 3q6 2 11 3q3 1 7 2l4 2q33 18 33 59q0 19 -12 29z" />
    <glyph glyph-name="Lcaron" unicode="&#x13d;" horiz-adv-x="1855" 
d="M1133 0h-1092q72 72 72 242v1564q0 170 -72 242h629q114 0 163 -54q50 -55 50 -128q0 -81 -62 -184q-59 -97 -148 -202q-97 -113 -174 -212q-88 -113 -149 -246q-61 -134 -61 -266q0 -87 35 -197t97 -213q63 -105 168 -174q107 -70 228 -70q105 0 188 52q80 50 80 141
q0 76 -35 137q-36 63 -86 113q-11 11 -47 46t-55 55q-52 53 -87 131q-36 79 -36 175q0 116 83 207q82 90 198 90q121 0 293 -71q174 -72 174 -154q0 -78 -70 -125q-68 -46 -154 -64q-87 -18 -155 -61q-70 -44 -70 -117q0 -49 48 -89q43 -36 116 -72q68 -33 135 -72
q68 -39 116 -105t48 -151q0 -43 -13 -72q-14 -31 -37 -48q-22 -16 -55 -29q-28 -11 -69 -14q-50 -4 -76 -5q-39 -1 -77 0h-41zM1493 1548q-92 18 -153 91q-60 72 -60 171q0 111 78 189t190 78q114 0 191 -87q76 -86 76 -239q0 -149 -94 -284q-93 -134 -238 -134q-23 0 -48 9
q-26 9 -26 24q0 6 6 8q1 0 4.5 1t7.5 2l8 2q9 2 23 8q23 12 40 41q18 30 18 67q0 35 -23 53z" />
    <glyph glyph-name="lcaron" unicode="&#x13e;" horiz-adv-x="1349" 
d="M10 1800q-30 10 -30 29q0 14 22 26q460 224 578 224q27 0 43 -14q15 -13 16 -26q2 -18 2 -40v-1757q0 -170 72 -242h-502q-64 0 -88 42q-25 44 -25 126v1474v11v16q0 11 -1 20q-1 13 -3 21q-2 10 -6 22q-5 15 -11 22q-10 12 -17 19q-8 8 -21 16q-9 5 -29 11zM774 1812
q0 111 78 189t190 78q114 0 191 -87q76 -86 76 -239q0 -149 -94 -284q-93 -134 -238 -134q-20 0 -48 10q-26 9 -26 23q0 6 6 8q1 0 4.5 1t7.5 2l8 2q9 2 23 8q22 12 40 42t18 66q0 37 -21 53q-93 18 -154 91t-61 171z" />
    <glyph glyph-name="Ldot" unicode="&#x13f;" 
d="M1112 0h-1092q72 72 72 242v1564q0 170 -72 242h629q113 0 163 -54q50 -55 50 -128q0 -83 -61 -184q-56 -93 -149 -202q-97 -113 -174 -212q-86 -109 -148 -246q-62 -136 -62 -266q0 -87 35 -197t97 -213q63 -105 168 -174q107 -70 229 -70q104 0 187 52q81 51 81 141
q0 74 -36 137t-86 113q-11 11 -31.5 31t-37.5 37t-32 33q-52 53 -87 131q-36 79 -36 175q0 116 83 207q82 90 197 90q121 0 293 -71q174 -72 174 -154q0 -78 -69 -125q-68 -46 -155 -64t-155 -61q-69 -44 -69 -117q0 -49 48 -89q43 -36 116 -72q68 -33 135 -72
q68 -39 116 -105t48 -151q0 -41 -14 -72q-14 -32 -36 -48q-21 -16 -56 -29q-28 -11 -68 -14q-50 -4 -76 -5q-39 -2 -78 0h-41zM961 1815q0 111 77 188q78 78 191 78q110 0 188 -78t78 -188q0 -113 -78 -191t-188 -78q-113 0 -191 78q-77 77 -77 191z" />
    <glyph glyph-name="ldot" unicode="&#x140;" horiz-adv-x="712" 
d="M10 1800q-30 10 -30 29q0 14 22 26q460 224 578 224q27 0 43 -14q15 -13 16 -26q2 -18 2 -40v-1757q0 -170 72 -242h-502q-64 0 -88 42q-25 44 -25 126v1474v11v16q0 11 -1 20q-1 13 -3 21q-2 10 -6 22q-5 15 -11 22q-10 12 -17 19q-8 8 -21 16q-9 5 -29 11zM903 1020
q-61 0 -104 42t-43 103q0 62 43 104t104 42q59 0 103 -42q43 -42 43 -104q0 -61 -43 -103q-44 -42 -103 -42z" />
    <glyph glyph-name="Lslash" unicode="&#x141;" 
d="M1112 0h-1092q72 72 72 242v1089h-72v103h72v372q0 170 -72 242h629q113 0 163 -54q50 -55 50 -128q0 -62 -41 -142q-42 -82 -81 -133q-47 -61 -128 -157h187v-103h-271q-119 -148 -190 -289q-70 -138 -70 -286q0 -87 35 -197t97 -213q63 -105 168 -174q107 -70 229 -70
q104 0 187 52q81 51 81 141q0 74 -36 137t-86 113q-11 11 -31.5 31t-37.5 37t-32 33q-52 53 -87 131q-36 79 -36 175q0 116 83 207q82 90 197 90q121 0 293 -71q174 -72 174 -154q0 -78 -69 -125q-68 -46 -155 -64t-155 -61q-69 -44 -69 -117q0 -49 48 -89q43 -36 116 -72
q68 -33 135 -72q68 -39 116 -105t48 -151q0 -41 -14 -72q-14 -32 -36 -48q-21 -16 -56 -29q-28 -11 -68 -14q-50 -4 -76 -5q-39 -2 -78 0h-41z" />
    <glyph glyph-name="lslash" unicode="&#x142;" horiz-adv-x="778" 
d="M98 1026h-118v102h118v514q0 128 -88 158q-30 10 -30 29q0 14 22 26q460 224 578 224q27 0 43 -14q15 -13 16 -26q2 -18 2 -40v-871h117v-102h-117v-784q0 -170 72 -242h-502q-64 0 -88 42q-25 44 -25 126v858z" />
    <glyph glyph-name="Nacute" unicode="&#x143;" horiz-adv-x="1699" 
d="M20 2048h611q48 0 77 -13t59 -43q27 -27 63 -107q29 -65 71 -175q29 -76 96 -276l193 -574q9 -31 20 -61q13 -40 32 -93t22 -62q17 -48 47 -122q29 -70 53 -100q25 -31 49 -31q76 0 76 223q0 183 -48 352q-47 166 -116 290q-74 134 -136 229q-70 108 -117 205
q-48 99 -48 178q0 87 65 134q64 46 162 46h428q-71 -71 -71 -242v-1564q0 -171 71 -242h-536q-70 0 -127 33q-60 35 -92 71q-34 39 -75 126q-37 79 -58 139q-21 58 -56 166q-24 76 -117 341q-35 100 -70 202.5t-38 109.5q-5 19 -21 61q-10 31 -53 155q-17 48 -47 122
q-29 70 -53 100q-25 31 -49 31q-76 0 -76 -223q0 -182 48 -352q47 -166 116 -290q74 -134 136 -229q70 -108 117 -205q48 -99 48 -178q0 -87 -65 -134q-64 -46 -162 -46h-429q72 72 72 242v1564q0 170 -72 242zM741 2169q-63 0 -106 14q-47 15 -47 39q0 8 7 9q5 1 28 1
q20 0 41 6q49 15 143 64q62 32 109 81q39 41 70 77q24 28 46 28q37 0 58 -44q20 -41 20 -85q0 -59 -125 -125q-123 -65 -244 -65z" />
    <glyph glyph-name="nacute" unicode="&#x144;" 
d="M707 0h-687q72 72 72 242v950q0 170 -72 242h502q64 0 88 -43q25 -45 25 -127v-35q0 -49 14 -49q24 0 47 29q4 5 24.5 30.5t33.5 41.5q39 49 75 83q44 41 120 71q74 29 173 29q351 0 351 -481l2 -391v-350q0 -171 71 -242h-686q72 72 72 242v665q0 183 -117 183
q-180 0 -180 -291v-557q0 -170 72 -242zM471 1608q0 8 7 9q5 1 28 1q20 0 41 6q49 15 143 64q66 35 110 80q32 33 69 77q24 29 46 29q36 0 57 -44t21 -85q0 -59 -125 -125q-124 -66 -243 -66q-61 0 -107 15q-47 15 -47 39z" />
    <glyph glyph-name="Ncommaaccent" unicode="&#x145;" horiz-adv-x="1699" 
d="M20 2048h611q48 0 77 -13t59 -43q27 -27 63 -107q29 -65 71 -175q29 -76 96 -276l193 -574q9 -31 20 -61q13 -40 32 -93t22 -62q17 -48 47 -122q29 -70 53 -100q25 -31 49 -31q76 0 76 223q0 183 -48 352q-47 166 -116 290q-74 134 -136 229q-70 108 -117 205
q-48 99 -48 178q0 87 65 134q64 46 162 46h428q-71 -71 -71 -242v-1564q0 -171 71 -242h-536q-70 0 -127 33q-60 35 -92 71q-34 39 -75 126q-37 79 -58 139q-21 58 -56 166q-24 76 -117 341q-35 100 -70 202.5t-38 109.5q-5 19 -21 61q-10 31 -53 155q-17 48 -47 122
q-29 70 -53 100q-25 31 -49 31q-76 0 -76 -223q0 -182 48 -352q47 -166 116 -290q74 -134 136 -229q70 -108 117 -205q48 -99 48 -178q0 -87 -65 -134q-64 -46 -162 -46h-429q72 72 72 242v1564q0 170 -72 242zM1196 -238q0 60 43 103t102 43q64 0 105 -47t41 -131
q0 -82 -50 -155t-130 -73q-41 0 -41 19q0 2 4 3q6 2 11 3q3 1 7 3l4 1q33 18 33 59q0 18 -12 29q-52 11 -84 50q-33 41 -33 93z" />
    <glyph glyph-name="ncommaaccent" unicode="&#x146;" 
d="M707 0h-687q72 72 72 242v950q0 170 -72 242h502q64 0 88 -43q25 -45 25 -127v-35q0 -49 14 -49q24 0 47 29q4 5 24.5 30.5t33.5 41.5q39 49 75 83q44 41 120 71q74 29 173 29q351 0 351 -481l2 -391v-350q0 -171 71 -242h-686q72 72 72 242v665q0 183 -117 183
q-180 0 -180 -291v-557q0 -170 72 -242zM1176 -401q-52 11 -84 50q-33 41 -33 93q0 59 43 102t102 43q64 0 105 -47t41 -131q0 -80 -51 -154q-50 -73 -130 -73q-41 0 -41 18q0 1 5 3q6 2 11 3q3 1 6.5 3t4.5 2q33 18 33 59q0 18 -12 29z" />
    <glyph glyph-name="Ncaron" unicode="&#x147;" horiz-adv-x="1699" 
d="M92 1806q0 170 -72 242h611q48 0 77 -13t59 -43q27 -27 63 -107q29 -65 71 -175q29 -76 96 -276l193 -574q9 -31 20 -61q13 -40 32 -93t22 -62q17 -48 47 -122q29 -70 53 -100q25 -31 49 -31q76 0 76 223q0 183 -48 352q-47 166 -116 290q-74 134 -136 229
q-70 108 -117 205q-48 99 -48 178q0 87 65 134q64 46 162 46h428q-71 -71 -71 -242v-1564q0 -171 71 -242h-536q-70 0 -127 33q-60 35 -92 71q-34 39 -75 126q-37 79 -58 139q-21 58 -56 166q-24 76 -117 341q-35 100 -70 202.5t-38 109.5q-5 19 -21 61q-10 31 -53 155
q-17 48 -47 122q-29 70 -53 100q-25 31 -49 31q-76 0 -76 -223q0 -182 48 -352q47 -166 116 -290q74 -134 136 -229q70 -108 117 -205q48 -99 48 -178q0 -87 -65 -134q-64 -46 -162 -46h-429q72 72 72 242v1564zM569 2273q-18 6 -17 42q2 39 20 77q20 41 42 41q43 0 85 -53
q40 -50 80 -106q37 -52 71 -52t71 52q48 68 79 106q42 53 85 53q22 0 42 -41q19 -40 21 -77q1 -36 -18 -42q-2 0 -20 5q-22 6 -33 6q-40 0 -118 -58q-77 -57 -109 -57q-34 0 -110 57q-78 58 -117 58q-11 0 -33 -6q-18 -5 -21 -5z" />
    <glyph glyph-name="ncaron" unicode="&#x148;" 
d="M707 0h-687q72 72 72 242v950q0 170 -72 242h502q64 0 88 -43q25 -45 25 -127v-35q0 -49 14 -49q24 0 47 29q4 5 24.5 30.5t33.5 41.5q39 49 75 83q44 41 120 71q74 29 173 29q351 0 351 -481l2 -391v-350q0 -171 71 -242h-686q72 72 72 242v665q0 183 -117 183
q-180 0 -180 -291v-557q0 -170 72 -242zM453 1659q-19 6 -18 42q2 37 21 77q20 41 42 41q42 0 85 -54q47 -58 80 -105q37 -52 70 -52q34 0 71 52q33 47 80 105q43 54 85 54q22 0 42 -41q18 -38 20 -77q1 -36 -17 -42q-1 0 -21 5t-32 5q-41 0 -118 -57q-78 -58 -110 -58
q-31 0 -109 58q-76 57 -118 57q-14 0 -34 -5t-19 -5z" />
    <glyph glyph-name="napostrophe" unicode="&#x149;" 
d="M707 0h-687q72 72 72 242v950q0 170 -72 242h502q64 0 88 -43q25 -45 25 -127v-35q0 -49 14 -49q24 0 47 29q4 5 24.5 30.5t33.5 41.5q39 49 75 83q44 41 120 71q74 29 173 29q351 0 351 -481l2 -391v-350q0 -171 71 -242h-686q72 72 72 242v665q0 183 -117 183
q-180 0 -180 -291v-557q0 -170 72 -242zM1176 -401q-52 11 -84 50q-33 41 -33 93q0 59 43 102t102 43q64 0 105 -47t41 -131q0 -80 -51 -154q-50 -73 -130 -73q-41 0 -41 18q0 1 5 3q6 2 11 3q3 1 6.5 3t4.5 2q33 18 33 59q0 18 -12 29z" />
    <glyph glyph-name="Eng" unicode="&#x14a;" horiz-adv-x="1740" 
d="M41 2048h610q31 0 52 -6q22 -6 45 -28q19 -18 38 -47q18 -27 44 -80q6 -12 25.5 -50t29.5 -59q40 -82 76 -152q49 -96 102 -192l446 -820q0 183 -48 352t-115 290q-68 123 -137 229q-66 102 -116 205q-49 101 -49 178q0 87 65 134q64 46 163 46h428q-72 -72 -72 -242
v-1214v-107q0 -253 -121 -384q-121 -132 -317 -132q-119 0 -205 56t-86 129q0 34 29 34q54 0 89 26q33 25 44 61q10 35 7 72q-3 38 -17 59q-220 368 -459 798q-35 64 -65 123q-58 113 -64 125q-36 68 -55 102q-28 50 -55 77q-26 26 -46 26q-76 0 -76 -223q0 -179 49 -352
q48 -169 115 -290q74 -134 136 -229q70 -108 117 -205q48 -99 48 -178q0 -88 -64 -134t-163 -46h-428q72 72 72 242v1564q0 170 -72 242z" />
    <glyph glyph-name="eng" unicode="&#x14b;" horiz-adv-x="1536" 
d="M41 0q72 72 72 242v950q0 170 -72 242h502q64 0 88 -43q24 -44 24 -127v-35q0 -49 15 -49q24 0 47 29q24 30 57 72q36 46 76 83q44 41 120 71q74 29 173 29q350 0 350 -481l2 -391v-574q0 -129 -19 -236q-20 -110 -66 -210q-47 -101 -135 -158q-89 -57 -214 -57
q-97 0 -177 34q-81 35 -81 77q0 16 12 21q13 5 35 5q19 0 33 2q69 16 69 144v1267q0 183 -116 183q-181 0 -181 -291v-557q0 -170 72 -242h-686z" />
    <glyph glyph-name="Omacron" unicode="&#x14c;" horiz-adv-x="1714" 
d="M858 -31q-365 0 -586 290t-221 765t221 765t586 290q361 0 583 -290q222 -289 222 -765t-222 -765q-222 -290 -583 -290zM692 1939q-151 0 -172 -346q-24 -364 88 -823q112 -457 266 -608q56 -53 109 -53q214 0 226 457q12 458 -150 916q-162 457 -367 457zM520 2290
q0 22 23 22h526q23 0 23 -22v-99q0 -22 -23 -22h-526q-23 0 -23 22v99z" />
    <glyph glyph-name="omacron" unicode="&#x14d;" horiz-adv-x="1579" 
d="M260 180q-214 218 -209 526t225 531q225 225 535 225q300 0 508 -211q213 -214 208 -523q-4 -307 -224 -531q-225 -228 -535 -228q-300 0 -508 211zM690 1354q-100 -15 -142 -214q-42 -198 -1 -468q41 -266 140 -444q99 -177 200 -160q99 16 139 214q41 199 2 468
q-39 266 -138 443q-99 178 -200 161zM485 1675q0 23 23 23h526q23 0 23 -23v-98q0 -23 -23 -23h-526q-23 0 -23 23v98z" />
    <glyph glyph-name="Obreve" unicode="&#x14e;" horiz-adv-x="1714" 
d="M51 1024q0 475 221 765t586 290q361 0 583 -290q222 -289 222 -765t-222 -765q-222 -290 -583 -290q-365 0 -586 290t-221 765zM692 1939q-151 0 -172 -346q-24 -364 88 -823q112 -457 266 -608q56 -53 109 -53q214 0 226 457q12 458 -150 916q-162 457 -367 457z
M500 2394q0 62 22 62q10 0 15 -7q3 -4 8 -17q5 -14 20 -30q18 -19 43 -39q67 -49 197 -49q129 0 196 49q25 20 43 39q16 18 21 30q5 13 8 17q5 7 14 7q23 0 23 -62q0 -99 -88 -162t-217 -63t-217 63t-88 162z" />
    <glyph glyph-name="obreve" unicode="&#x14f;" horiz-adv-x="1579" 
d="M260 180q-214 218 -209 526t225 531q225 225 535 225q300 0 508 -211q213 -214 208 -523q-4 -307 -224 -531q-225 -228 -535 -228q-300 0 -508 211zM690 1354q-100 -15 -142 -214q-42 -198 -1 -468q41 -266 140 -444q99 -177 200 -160q99 16 139 214q41 199 2 468
q-39 266 -138 443q-99 178 -200 161zM465 1780q0 61 22 61q11 0 15 -6q3 -4 8 -17q5 -14 20 -30q18 -19 43 -39q67 -49 197 -49t197 49q25 20 43 39q15 16 20 30q5 13 8 17q4 6 15 6q22 0 22 -61q0 -99 -88 -162q-90 -64 -217 -64t-217 64q-88 63 -88 162z" />
    <glyph glyph-name="Ohungarumlaut" unicode="&#x150;" horiz-adv-x="1714" 
d="M51 1024q0 475 221 765t586 290q361 0 583 -290q222 -289 222 -765t-222 -765q-222 -290 -583 -290q-365 0 -586 290t-221 765zM692 1939q-151 0 -172 -346q-24 -364 88 -823q112 -457 266 -608q56 -53 109 -53q214 0 226 457q12 458 -150 916q-162 457 -367 457z
M524 2193q0 7 10 12q18 9 29 13q19 7 37 23q43 35 63 88t31 92q10 37 29 37q25 0 65 -17q39 -17 39 -33q0 -74 -69 -156q-69 -83 -172 -83q-62 0 -62 24zM782 2193q0 7 10 12q18 9 29 13q19 7 37 23q43 35 63 88t31 92q10 37 29 37q26 0 66 -17q38 -16 38 -33
q0 -74 -69 -156q-69 -83 -172 -83q-62 0 -62 24z" />
    <glyph glyph-name="ohungarumlaut" unicode="&#x151;" horiz-adv-x="1579" 
d="M260 180q-214 218 -209 526t225 531q225 225 535 225q300 0 508 -211q213 -214 208 -523q-4 -307 -224 -531q-225 -228 -535 -228q-300 0 -508 211zM690 1354q-100 -15 -142 -214q-42 -198 -1 -468q41 -266 140 -444q99 -177 200 -160q99 16 139 214q41 199 2 468
q-39 266 -138 443q-99 178 -200 161zM551 1554q-62 0 -62 25q0 6 10 11q25 13 29 14q21 8 37 22q43 35 63 88t31 92q10 37 29 37q28 0 66 -16q39 -17 39 -33q0 -73 -70 -157q-69 -83 -172 -83zM748 1579q0 7 9 11q25 13 29 14q21 8 37 22q43 35 63 88q24 63 32 92
q10 37 28 37q28 0 66 -16q39 -17 39 -33q0 -73 -70 -157q-69 -83 -172 -83q-61 0 -61 25z" />
    <glyph glyph-name="OE" unicode="&#x152;" horiz-adv-x="2947" 
d="M858 -31q-365 0 -586 290t-221 765t221 765t586 290q219 0 392 -113t278 -315q95 195 250 312q154 116 360 116q73 0 225 -41t246 -41q79 0 152 41t94 41q29 0 41 -28q13 -28 8 -72q-5 -52 -18 -95q-16 -54 -37 -102q-18 -44 -42 -84q-26 -44 -61 -86q-40 -47 -85 -73
q-50 -28 -99 -28q-122 0 -235 39q-115 40 -184 84q-70 44 -164 84q-93 39 -181 39q-63 0 -103 -49q-38 -47 -51 -99t-14 -100q0 -12 -1 -35t-1 -62q0 -28 3 -62q3 -33 13 -55q9 -19 25 -19q22 0 58 27q32 24 95 53q56 26 138 26q106 0 288 -84t255 -84q56 0 97 40t52 40
q51 0 51 -116q0 -59 -20 -113q-22 -60 -60 -111q-39 -53 -109 -87q-67 -33 -161 -33q-85 0 -163 37q-75 36 -136 93q-57 54 -109 109q-53 55 -105 93q-53 38 -99 38q-77 0 -43 -114q86 -284 279 -462q194 -179 409 -179q100 0 176 30q75 29 117 76q41 45 69 90q28 44 55 76
q26 31 52 31q51 0 51 -111q0 -108 -46 -222q-47 -116 -130 -217t-217 -167q-133 -66 -289 -66q-223 0 -406 109t-290 319q-106 -205 -279 -316q-174 -112 -391 -112zM692 1939q-151 0 -172 -346q-24 -364 88 -823q112 -456 267 -608q56 -53 108 -53q214 0 226 457
q12 458 -150 916q-162 457 -367 457z" />
    <glyph glyph-name="oe" unicode="&#x153;" horiz-adv-x="2619" 
d="M260 180q-214 218 -209 526t225 531q225 225 535 225q178 0 333 -82q158 -83 255 -225q98 144 256 227q157 82 360 82q223 0 388 -166t165 -380q0 -72 -23 -121q-24 -52 -75 -80q-49 -27 -105 -45q-54 -17 -137 -20q-92 -3 -147 -2q-145 3 -163 4q-99 3 -157 3
q-47 0 -47 -32q0 -37 90 -105q87 -65 228 -124q134 -56 247 -56q86 0 143 27q59 28 84 53q26 26 40 26q32 0 32 -43q0 -63 -34 -134t-101 -141t-179 -114q-114 -45 -253 -45q-189 0 -355 87q-167 87 -272 237q-115 -152 -274 -238q-160 -86 -344 -86q-298 0 -506 211z
M690 1354q-100 -15 -142 -214q-42 -198 -1 -468q41 -266 140 -444q99 -177 200 -160q99 16 139 214q41 199 2 468q-39 266 -138 443q-99 178 -200 161zM1726 1241q-92 0 -163 -52q-72 -53 -72 -136q0 -121 58 -209t175 -88q77 0 149 5q68 5 131 19q67 15 103 47q37 33 37 82
q0 149 -135 240q-136 92 -283 92z" />
    <glyph glyph-name="Racute" unicode="&#x154;" horiz-adv-x="1585" 
d="M20 2048h826q354 0 521 -162t167 -430q0 -125 -33 -236q-33 -112 -99 -206q-65 -94 -180 -151q-112 -56 -261 -56q-107 0 -200 35q-91 34 -150 84q-54 45 -104 99q-55 58 -85 85q-40 35 -70 35q-69 0 -69 -66q0 -74 133 -146q139 -75 362 -161q329 -124 455 -199
q280 -166 280 -387q0 -100 -30 -143t-105 -43h-442q-59 0 -59 47q0 35 17 92t17 115q0 94 -91 215q-93 123 -209 213q-127 98 -227 157q-109 64 -148 64q-20 0 -28 -14q-9 -15 -9 -27q0 -55 57 -106q60 -54 138 -100q90 -53 162 -104q82 -57 138 -145q58 -90 58 -200
q0 -74 -39 -140q-40 -67 -107 -67h-583q71 71 71 242v350l-2 432v782q0 170 -72 242zM197 1417q0 -64 53 -108t151 -63q95 -19 191 -25q107 -7 219 -7t219 7q98 6 192 25q100 20 152 63q53 44 53 108q0 203 -700 203q-530 0 -530 -203zM416 2222q0 8 7 9q5 1 28 1q20 0 41 6
q49 15 143 64q62 32 109 81q39 41 70 77q24 28 46 28q37 0 58 -44q20 -41 20 -85q0 -59 -125 -125q-123 -65 -244 -65q-63 0 -106 14q-47 15 -47 39z" />
    <glyph glyph-name="racute" unicode="&#x155;" horiz-adv-x="1368" 
d="M20 0q72 72 72 242v950q0 170 -72 242h502q64 0 88 -43q25 -45 25 -127v-35q0 -49 14 -49q19 0 42 29q15 18 53 72q31 44 72 83q43 41 114 71q70 29 162 29q95 0 174 -33q82 -34 82 -90q0 -13 -111 -233l-24 -48q-4 -7 -9 -17.5t-8.5 -17t-5.5 -11.5q-3 -6 -10 -19.5
t-11 -20.5q-5 -10 -20 -37q-7 -12 -19 -26q-10 -12 -18 -18t-16 -6q-30 0 -52 27q-18 22 -38 63q-17 35 -62 62q-47 28 -113 28q-196 0 -196 -268v-557q0 -170 72 -242h-687zM375 1608q0 8 7 9q5 1 28 1q20 0 41 6q49 15 143 64q64 33 109 80q39 41 70 77q24 29 46 29
q37 0 58 -44q20 -41 20 -85q0 -59 -125 -125q-124 -66 -244 -66q-60 0 -106 15q-47 15 -47 39z" />
    <glyph glyph-name="Rcommaaccent" unicode="&#x156;" horiz-adv-x="1585" 
d="M20 2048h826q354 0 521 -162t167 -430q0 -125 -33 -236q-33 -112 -99 -206q-65 -94 -180 -151q-112 -56 -261 -56q-107 0 -200 35q-91 34 -150 84q-54 45 -104 99q-55 58 -85 85q-40 35 -70 35q-69 0 -69 -66q0 -74 133 -146q139 -75 362 -161q329 -124 455 -199
q280 -166 280 -387q0 -100 -30 -143t-105 -43h-442q-59 0 -59 47q0 35 17 92t17 115q0 94 -91 215q-93 123 -209 213q-127 98 -227 157q-109 64 -148 64q-20 0 -28 -14q-9 -15 -9 -27q0 -55 57 -106q60 -54 138 -100q90 -53 162 -104q82 -57 138 -145q58 -90 58 -200
q0 -74 -39 -140q-40 -67 -107 -67h-583q71 71 71 242v350l-2 432v782q0 170 -72 242zM727 1620q-530 0 -530 -203q0 -64 53 -108t151 -63q95 -19 191 -25q107 -7 219 -7t219 7q98 6 192 25q100 20 152 63q53 44 53 108q0 203 -700 203zM623 -289q0 60 43 103t104 43t103 -47
t42 -132q0 -80 -51 -153q-51 -74 -131 -74q-39 0 -39 19q0 2 3 3q1 0 2.5 0.5t4 1t4.5 0.5q9 2 13 5q31 19 31 59q0 18 -13 29q-52 11 -84 50t-32 93z" />
    <glyph glyph-name="rcommaaccent" unicode="&#x157;" horiz-adv-x="1368" 
d="M20 1434h502q64 0 88 -43q25 -45 25 -127v-35q0 -49 14 -49q19 0 42 29q15 18 53 72q31 44 72 83q43 41 114 71q70 29 162 29q95 0 174 -33q82 -34 82 -90q0 -13 -111 -233l-24 -48q-4 -7 -9 -17.5t-8.5 -17t-5.5 -11.5q-3 -6 -10 -19.5t-11 -20.5q-5 -10 -20 -37
q-7 -12 -19 -26q-10 -12 -18 -18t-16 -6q-30 0 -52 27q-18 22 -38 63q-17 35 -62 62q-47 28 -113 28q-196 0 -196 -268v-557q0 -170 72 -242h-687q72 72 72 242v950q0 170 -72 242zM219 -258q0 59 43 102t103 43q63 0 104 -47t41 -131q0 -81 -50 -154t-130 -73q-41 0 -41 18
q0 2 4 3q6 2 11 3q3 1 6.5 3t4.5 2q33 18 33 59q0 18 -12 29q-52 11 -84 50q-33 41 -33 93z" />
    <glyph glyph-name="Rcaron" unicode="&#x158;" horiz-adv-x="1585" 
d="M20 2048h826q354 0 521 -162t167 -430q0 -125 -33 -236q-33 -112 -99 -206q-65 -94 -180 -151q-112 -56 -261 -56q-107 0 -200 35q-91 34 -150 84q-54 45 -104 99q-55 58 -85 85q-40 35 -70 35q-69 0 -69 -66q0 -74 133 -146q139 -75 362 -161q329 -124 455 -199
q280 -166 280 -387q0 -100 -30 -143t-105 -43h-442q-59 0 -59 47q0 35 17 92t17 115q0 94 -91 215q-93 123 -209 213q-127 98 -227 157q-109 64 -148 64q-20 0 -28 -14q-9 -15 -9 -27q0 -55 57 -106q60 -54 138 -100q90 -53 162 -104q82 -57 138 -145q58 -90 58 -200
q0 -74 -39 -140q-40 -67 -107 -67h-583q71 71 71 242v350l-2 432v782q0 170 -72 242zM727 1620q-530 0 -530 -203q0 -64 53 -108t151 -63q95 -19 191 -25q107 -7 219 -7t219 7q98 6 192 25q100 20 152 63q53 44 53 108q0 203 -700 203zM397 2273q-18 6 -17 42q2 39 20 77
q20 41 42 41q43 0 85 -53q40 -50 80 -106q37 -52 71 -52t71 52q48 68 79 106q42 53 85 53q22 0 42 -41q19 -40 21 -77q1 -36 -18 -42q-2 0 -20 5q-22 6 -33 6q-40 0 -118 -58q-76 -57 -109 -57q-34 0 -110 57q-78 58 -117 58q-11 0 -33 -6q-18 -5 -21 -5z" />
    <glyph glyph-name="rcaron" unicode="&#x159;" horiz-adv-x="1368" 
d="M92 1192q0 170 -72 242h502q64 0 88 -43q25 -45 25 -127v-35q0 -49 14 -49q19 0 42 29q15 18 53 72q31 44 72 83q43 41 114 71q70 29 162 29q95 0 174 -33q82 -34 82 -90q0 -13 -111 -233l-24 -48q-4 -7 -9 -17.5t-8.5 -17t-5.5 -11.5q-3 -6 -10 -19.5t-11 -20.5
q-5 -10 -20 -37q-7 -12 -19 -26q-10 -12 -18 -18t-16 -6q-30 0 -52 27q-18 22 -38 63q-17 35 -62 62q-47 28 -113 28q-196 0 -196 -268v-557q0 -170 72 -242h-687q72 72 72 242v950zM356 1659q-18 6 -17 42q2 39 20 77q20 41 42 41q42 0 85 -54q47 -58 80 -105
q37 -52 71 -52t71 52q42 58 79 105q43 54 85 54q22 0 42 -41q19 -40 21 -77q1 -36 -18 -42l-2 1q-2 0 -7 1.5t-10 2.5q-20 5 -34 5q-42 0 -118 -57q-78 -58 -109 -58q-32 0 -110 58q-77 57 -117 57q-15 0 -33 -5t-21 -5z" />
    <glyph glyph-name="Sacute" unicode="&#x15a;" horiz-adv-x="1515" 
d="M653 -31q-253 0 -443 143t-190 328q0 57 103 137q100 78 221 133q118 54 172 52q48 -1 81 -34q31 -32 24 -87q-3 -23 -7.5 -55.5t-5.5 -41.5q-4 -36 -6 -98q-2 -65 5 -98q8 -40 25 -84q19 -49 47 -73q31 -26 80 -44t116 -18q120 0 209 80q90 81 90 197q0 143 -104 229
q-104 85 -282 141q-124 39 -171 55q-55 19 -154 59q-85 35 -142 71q-56 36 -115 86t-94 108t-56 134q-21 77 -21 167q0 257 187 440q188 183 446 183q73 0 225 -41t246 -41q78 0 151 41t94 41q67 0 46 -133q-24 -158 -130 -299q-101 -135 -208 -136q-100 0 -208 39
q-109 39 -185 84q-77 46 -178 84q-102 39 -193 39q-58 0 -98 -42q-40 -41 -40 -101q0 -45 24 -84q24 -40 58 -66q32 -25 97 -49q64 -23 113 -36q49 -12 133 -25q103 -15 135 -18q17 -1 62.5 -5.5t74.5 -7.5q259 -24 419 -182q158 -157 158 -393q0 -144 -48 -277
q-49 -135 -142 -248q-96 -116 -255 -184q-163 -70 -366 -70zM494 2222q0 8 7 9q5 1 27 1q20 0 41 6q51 15 144 64q62 32 109 81q39 41 70 77q24 28 46 28q36 0 57 -44t21 -85q0 -59 -125 -125q-123 -65 -244 -65q-63 0 -106 14q-47 15 -47 39z" />
    <glyph glyph-name="sacute" unicode="&#x15b;" horiz-adv-x="1378" 
d="M31 1024q0 124 58 212q59 89 158 137q102 49 209 70q110 21 234 21q266 0 461 -76q197 -77 197 -169q0 -99 -66 -189t-125 -90q-87 0 -191 64q-101 62 -178 138q-78 77 -173 138q-97 63 -183 63q-66 0 -114 -35q-50 -36 -50 -106q0 -69 80 -107q81 -38 230 -65
q126 -22 220 -45t203 -67q111 -45 180 -102t115 -146q47 -91 47 -205q0 -137 -62 -237q-63 -102 -160 -154q-102 -55 -196 -79q-101 -26 -196 -26q-227 0 -459 56q-229 55 -229 129q0 75 70 230q69 153 127 153q38 0 110 -42q56 -33 148 -94q78 -52 198 -93q123 -42 250 -42
q111 0 200 56t89 133q0 63 -86 63q-33 0 -147 -13t-205 -13q-108 0 -207 16q-108 17 -205 56q-103 41 -179 99q-78 60 -125 152q-48 95 -48 209zM582 1554q-60 0 -107 15t-47 39q0 8 7 9q5 1 28 1q20 0 41 6q49 15 143 64q66 35 110 80q32 33 69 77q24 29 46 29q37 0 58 -44
q20 -41 20 -85q0 -59 -125 -125t-243 -66z" />
    <glyph glyph-name="Scircumflex" unicode="&#x15c;" horiz-adv-x="1515" 
d="M20 440q0 57 103 137q100 78 221 133q118 54 172 52q48 -1 81 -34q31 -32 24 -87q-3 -23 -7.5 -55.5t-5.5 -41.5q-4 -36 -6 -98q-2 -65 5 -98q8 -40 25 -84q19 -49 47 -73q31 -26 80 -44t116 -18q120 0 209 80q90 81 90 197q0 143 -104 229q-104 85 -282 141
q-124 39 -171 55q-55 19 -154 59q-85 35 -142 71q-56 36 -115 86t-94 108t-56 134q-21 77 -21 167q0 257 187 440q188 183 446 183q73 0 225 -41t246 -41q78 0 151 41t94 41q67 0 46 -133q-24 -158 -130 -299q-101 -135 -208 -136q-100 0 -208 39q-109 39 -185 84
q-77 46 -178 84q-102 39 -193 39q-58 0 -98 -42q-40 -41 -40 -101q0 -45 24 -84q24 -40 58 -66q32 -25 97 -49q64 -23 113 -36q49 -12 133 -25q103 -15 135 -18q17 -1 62.5 -5.5t74.5 -7.5q259 -24 419 -182q158 -157 158 -393q0 -144 -48 -277q-49 -135 -142 -248
q-96 -116 -255 -184q-163 -70 -366 -70q-253 0 -443 143t-190 328zM520 2169q-22 0 -42 41q-18 38 -20 77q-1 36 17 42l3 -1q2 -1 7 -2.5t10 -2.5q20 -5 33 -5q40 0 118 58q77 57 110 57q32 0 109 -57q78 -58 118 -58q12 0 32 5l8 2t6 2t4 1.5t3 0.5q19 -6 18 -42
q-2 -37 -21 -77q-20 -41 -42 -41q-43 0 -85 52q-40 50 -80 106q-38 53 -70 53q-33 0 -71 -53q-40 -56 -80 -106q-42 -52 -85 -52z" />
    <glyph glyph-name="scircumflex" unicode="&#x15d;" horiz-adv-x="1378" 
d="M31 1024q0 124 58 212q59 89 158 137q102 49 209 70q110 21 234 21q266 0 461 -76q197 -77 197 -169q0 -99 -66 -189t-125 -90q-87 0 -191 64q-101 62 -178 138q-78 77 -173 138q-97 63 -183 63q-66 0 -114 -35q-50 -36 -50 -106q0 -69 80 -107q81 -38 230 -65
q126 -22 220 -45t203 -67q111 -45 180 -102t115 -146q47 -91 47 -205q0 -137 -62 -237q-63 -102 -160 -154q-102 -55 -196 -79q-101 -26 -196 -26q-227 0 -459 56q-229 55 -229 129q0 75 70 230q69 153 127 153q38 0 110 -42q56 -33 148 -94q78 -52 198 -93q123 -42 250 -42
q111 0 200 56t89 133q0 63 -86 63q-33 0 -147 -13t-205 -13q-108 0 -207 16q-108 17 -205 56q-103 41 -179 99q-78 60 -125 152q-48 95 -48 209zM455 1554q-22 0 -42 41q-19 40 -21 77q-1 36 18 42q2 0 20 -5t33 -5q42 0 118 57q78 58 109 58q32 0 110 -58q76 -57 118 -57
q14 0 32 5t21 5q18 -6 17 -42q-2 -39 -20 -77q-20 -41 -42 -41q-43 0 -85 53q-47 58 -80 105q-38 53 -71 53q-32 0 -70 -53q-33 -47 -80 -105q-42 -53 -85 -53z" />
    <glyph glyph-name="Scedilla" unicode="&#x15e;" horiz-adv-x="1515" 
d="M616 -31q-244 12 -419 153q-176 141 -176 318q0 58 102 137q100 78 221 133q118 54 172 52q48 -1 81 -34q31 -32 24 -87q-3 -23 -7.5 -55.5t-5.5 -41.5q-4 -36 -6 -98q-2 -65 5 -98q8 -40 25 -84q19 -49 47 -73q31 -26 80 -44t116 -18q120 0 209 80q90 81 90 196
q0 144 -104 230q-104 85 -282 141q-124 39 -171 55q-55 19 -154 59q-85 35 -142 71q-56 36 -115 86t-94 108t-56 134q-21 77 -21 167q0 257 187 440q188 183 446 183q73 0 225 -41t246 -41q78 0 151 41t94 41q67 0 46 -133q-24 -158 -130 -299q-101 -135 -208 -136
q-100 0 -208 39q-109 39 -185 84q-77 46 -178 84q-102 39 -193 39q-58 0 -98 -42q-40 -41 -40 -101q0 -45 24 -84q24 -40 58 -66q32 -25 97 -49q64 -23 113 -36q49 -12 133 -25q103 -15 135 -18q17 -1 62.5 -5.5t74.5 -7.5q259 -24 419 -182q158 -157 158 -393
q0 -141 -47 -274q-46 -132 -139 -247q-92 -114 -250 -185q-160 -72 -358 -73q-41 -88 -51 -116l-2 -4l-1 -2h1q1 0 3.5 1t4.5 2q36 19 69 19q66 0 104 -38t38 -99q0 -78 -64 -136q-63 -57 -141 -57q-41 0 -71 18t-30 42q0 30 27 30l16 -12q17 -12 52 -12q59 0 100 38t41 93
q0 30 -24 50q-23 19 -54 19q-35 0 -61 -13t-29 -13q-7 0 -27 20q-23 23 -18 29q12 22 37 79q14 32 26 62z" />
    <glyph glyph-name="scedilla" unicode="&#x15f;" horiz-adv-x="1378" 
d="M31 1024q0 124 58 212q59 89 158 137q102 49 209 70q110 21 234 21q266 0 461 -76q197 -77 197 -169q0 -99 -66 -189t-125 -90q-87 0 -191 64q-101 62 -178 138q-78 77 -173 138q-97 63 -183 63q-66 0 -114 -35q-50 -36 -50 -106q0 -69 80 -107q81 -38 230 -65
q126 -22 220 -45t203 -67q111 -45 180 -102t115 -146q47 -91 47 -205q0 -127 -55 -225q-56 -100 -149 -156q-96 -58 -204 -86q-111 -29 -228 -29q-45 -98 -52 -116l-2 -6h1q1 0 3.5 1t4.5 2q36 19 69 19q66 0 104 -38q37 -37 37 -99q0 -79 -63 -136t-141 -57q-41 0 -71 18
t-30 42q0 30 27 30l16 -12q16 -12 52 -12q59 0 100 38t41 93q0 30 -24 50q-23 19 -54 19q-35 0 -61 -13t-29 -13q-7 0 -27 20q-23 23 -18 29l63 143q-222 10 -417 63q-195 52 -195 120q0 75 70 230q69 153 127 153q38 0 110 -42q56 -33 148 -94q78 -52 198 -93
q123 -42 250 -42q111 0 200 56t89 133q0 63 -86 63q-33 0 -147 -13t-205 -13q-108 0 -207 16q-108 17 -205 56q-103 41 -179 99q-78 60 -125 152q-48 95 -48 209z" />
    <glyph glyph-name="Scaron" unicode="&#x160;" horiz-adv-x="1515" 
d="M20 440q0 57 103 137q100 78 221 133q118 54 172 52q48 -1 81 -34q31 -32 24 -87q-3 -23 -7.5 -55.5t-5.5 -41.5q-4 -36 -6 -98q-2 -65 5 -98q8 -40 25 -84q19 -49 47 -73q31 -26 80 -44t116 -18q120 0 209 80q90 81 90 197q0 143 -104 229q-104 85 -282 141
q-124 39 -171 55q-55 19 -154 59q-85 35 -142 71q-56 36 -115 86t-94 108t-56 134q-21 77 -21 167q0 257 187 440q188 183 446 183q73 0 225 -41t246 -41q78 0 151 41t94 41q67 0 46 -133q-24 -158 -130 -299q-101 -135 -208 -136q-100 0 -208 39q-109 39 -185 84
q-77 46 -178 84q-102 39 -193 39q-58 0 -98 -42q-40 -41 -40 -101q0 -45 24 -84q24 -40 58 -66q32 -25 97 -49q64 -23 113 -36q49 -12 133 -25q103 -15 135 -18q17 -1 62.5 -5.5t74.5 -7.5q259 -24 419 -182q158 -157 158 -393q0 -144 -48 -277q-49 -135 -142 -248
q-96 -116 -255 -184q-163 -70 -366 -70q-253 0 -443 143t-190 328zM475 2273q-18 6 -17 42q2 39 20 77q20 41 42 41q43 0 85 -53q40 -50 80 -106q37 -52 71 -52q33 0 70 52q40 56 80 106q42 53 85 53q22 0 42 -41q19 -40 21 -77q1 -36 -18 -42q-1 0 -21 5q-24 6 -32 6
q-40 0 -118 -58q-77 -57 -109 -57q-34 0 -110 57q-78 58 -118 58q-9 0 -33 -6z" />
    <glyph glyph-name="scaron" unicode="&#x161;" horiz-adv-x="1378" 
d="M31 1024q0 124 58 212q59 89 158 137q102 49 209 70q110 21 234 21q266 0 461 -76q197 -77 197 -169q0 -99 -66 -189t-125 -90q-87 0 -191 64q-101 62 -178 138q-78 77 -173 138q-97 63 -183 63q-66 0 -114 -35q-50 -36 -50 -106q0 -69 80 -107q81 -38 230 -65
q126 -22 220 -45t203 -67q111 -45 180 -102t115 -146q47 -91 47 -205q0 -137 -62 -237q-63 -102 -160 -154q-102 -55 -196 -79q-101 -26 -196 -26q-227 0 -459 56q-229 55 -229 129q0 75 70 230q69 153 127 153q38 0 110 -42q56 -33 148 -94q78 -52 198 -93q123 -42 250 -42
q111 0 200 56t89 133q0 63 -86 63q-33 0 -147 -13t-205 -13q-108 0 -207 16q-108 17 -205 56q-103 41 -179 99q-78 60 -125 152q-48 95 -48 209zM410 1659q-19 6 -18 42q2 37 21 77q20 41 42 41q42 0 85 -54q47 -58 80 -105q37 -52 70 -52q34 0 71 52q33 47 80 105
q43 54 85 54q22 0 42 -41q18 -38 20 -77q1 -36 -17 -42q-3 0 -21 5t-33 5q-41 0 -117 -57q-78 -58 -110 -58q-31 0 -109 58q-76 57 -118 57q-15 0 -33 -5t-20 -5z" />
    <glyph glyph-name="Tcommaaccent" unicode="&#x162;" horiz-adv-x="1673" 
d="M86 1251q-45 0 -45 49v748h1591v-748q0 -49 -45 -49q-34 0 -90 109q-54 106 -106 238t-114 239q-64 109 -106 109q-63 0 -63 -131v-1573q0 -170 72 -242h-686q71 71 71 242v1573q0 131 -63 131q-42 0 -106 -109q-59 -102 -113 -239q-49 -124 -107 -238q-56 -109 -90 -109
zM692 -289q0 60 43 103t103 43q63 0 104 -47t41 -132q0 -81 -50 -154t-130 -73q-41 0 -41 19q0 2 4 3q6 2 11 3q3 1 7 2l4 2q33 18 33 59q0 19 -12 29q-52 11 -84 50q-33 40 -33 93z" />
    <glyph glyph-name="tcommaaccent" unicode="&#x163;" horiz-adv-x="874" 
d="M0 1434q70 0 175 66q106 67 192 148q85 81 165 147q81 67 107 67q39 0 39 -50v-378h176v-103h-176v-827v-47v-50q0 -25 1 -48q0 -9 0.5 -20t1 -17.5t0.5 -10.5q3 -30 5 -42q5 -29 9 -43l13 -37q8 -22 16 -34q9 -14 22 -28q12 -14 30 -25q6 -2 53 -12q-8 -53 -76 -87
t-147 -34q-116 0 -197 34q-85 36 -130 86q-48 54 -76 132q-30 83 -37 154q-8 78 -8 168v657q0 38 -1 48t-10 39q-7 24 -28 34q-20 10 -56 10h-63v103zM489 -494q-50 10 -83 51t-33 93q0 59 43 102t102 43q64 0 105 -47t41 -131q0 -81 -51 -155q-50 -72 -130 -72
q-41 0 -41 18q0 2 4 3l12 3q3 1 7 2l4 2q33 18 33 60q0 17 -13 28z" />
    <glyph glyph-name="Tcaron" unicode="&#x164;" horiz-adv-x="1673" 
d="M86 1251q-45 0 -45 49v748h1591v-748q0 -49 -45 -49q-34 0 -90 109q-54 106 -106 238t-114 239q-64 109 -106 109q-63 0 -63 -131v-1573q0 -170 72 -242h-686q71 71 71 242v1573q0 131 -63 131q-42 0 -106 -109q-59 -102 -113 -239q-49 -124 -107 -238q-56 -109 -90 -109
zM565 2273q-18 6 -17 42q2 39 20 77q20 41 42 41q43 0 85 -53q40 -50 80 -106q37 -52 71 -52q33 0 70 52q40 56 80 106q42 53 85 53q22 0 42 -41q19 -40 21 -77q1 -36 -18 -42q-2 0 -20 5q-22 6 -33 6q-40 0 -118 -58q-77 -57 -109 -57q-34 0 -110 57q-78 58 -118 58
q-10 0 -32 -6q-18 -5 -21 -5z" />
    <glyph glyph-name="tcaron" unicode="&#x165;" horiz-adv-x="1490" 
d="M0 1434q70 0 175 66q106 67 192 148q85 81 165 147q81 67 107 67q39 0 39 -50v-378h176v-103h-176v-827v-47v-50q0 -25 1 -48q0 -9 0.5 -20t1 -17.5t0.5 -10.5q3 -30 5 -42q5 -29 9 -43l13 -37q8 -22 16 -34q9 -14 22 -28q12 -14 30 -25q6 -2 53 -12q-8 -53 -76 -87
t-147 -34q-116 0 -197 34q-85 36 -130 86q-48 54 -76 132q-30 83 -37 154q-8 78 -8 168v657q0 38 -1 48t-10 39q-7 24 -28 34q-20 10 -56 10h-63v103zM915 1812q0 111 78 189t191 78q114 0 190 -87q76 -86 76 -239q0 -151 -93 -284q-93 -134 -239 -134q-20 0 -48 10
q-26 9 -26 23q0 6 7 8l7 2q7 2 12 3q11 2 24 8q22 12 40 42q17 28 17 66q0 37 -20 53q-94 18 -155 91t-61 171z" />
    <glyph glyph-name="Tbar" unicode="&#x166;" horiz-adv-x="1673" 
d="M86 1251q-45 0 -45 49v748h1591v-748q0 -49 -45 -49q-34 0 -90 109q-54 106 -106 238t-114 239q-64 109 -106 109q-63 0 -63 -131v-791h109v-102h-109v-680q0 -170 72 -242h-686q71 71 71 242v680h-127v102h127v791q0 131 -63 131q-42 0 -106 -109q-59 -102 -113 -239
q-49 -124 -107 -238q-56 -109 -90 -109z" />
    <glyph glyph-name="tbar" unicode="&#x167;" horiz-adv-x="874" 
d="M158 922h-158v102h158v176q0 38 -1 48t-10 39q-7 24 -28 34q-20 10 -56 10h-63v103q70 0 175 66q106 67 192 148q85 81 165 147q81 67 107 67q39 0 39 -50v-378h176v-103h-176v-307h100v-102h-100v-418v-47v-50q0 -25 1 -48q0 -9 0.5 -20t1 -17.5t0.5 -10.5q3 -30 5 -42
q5 -29 9 -43l13 -37q8 -22 16 -34q9 -14 22 -28q12 -14 30 -25q6 -2 53 -12q-8 -53 -76 -87t-147 -34q-116 0 -197 34q-85 36 -130 86q-48 54 -76 132q-30 83 -37 154q-8 78 -8 168v379z" />
    <glyph glyph-name="Utilde" unicode="&#x168;" horiz-adv-x="1689" 
d="M106 1806q0 92 -18 148q-18 54 -68 94h611q60 0 95 -56q36 -57 36 -122q0 -125 -57 -248q-55 -118 -139 -221q-83 -102 -163 -196q-81 -95 -139 -209q-57 -111 -57 -222q0 -122 77 -207q75 -82 179 -116q102 -33 217 -33q161 0 265 101q106 103 106 282v1005
q0 89 -19 148q-18 55 -67 94h704q-49 -39 -67 -94q-19 -59 -19 -148v-1050q0 -182 -49 -323q-50 -143 -125 -227t-178 -140q-100 -54 -197 -76q-94 -21 -192 -21q-99 0 -193 21t-194 76t-176 140t-124 227q-49 145 -49 323v1050zM545 2195q-17 0 -17 41q0 66 53 107t121 41
q78 0 168 -35t144 -35q32 0 49 19q17 18 22 18q11 0 18 -16q7 -15 7 -33q0 -63 -47 -98t-111 -35q-45 0 -144 35q-96 34 -165 34q-46 0 -72 -22z" />
    <glyph glyph-name="utilde" unicode="&#x169;" 
d="M10 1434h686q-71 -71 -71 -242v-666q0 -182 116 -182q181 0 181 291v557q0 170 -72 242h686q-72 -72 -72 -242v-950q0 -170 72 -242h-502q-64 0 -88 43q-24 44 -24 127v35q0 49 -15 49q-23 0 -47 -30q-2 -3 -57 -70q-37 -45 -76 -83q-43 -42 -120 -72t-173 -30
q-350 0 -350 482l-2 391v350q0 170 -72 242zM492 1581q-17 0 -17 41q0 67 52 107t122 40q81 0 168 -34q90 -35 144 -35q33 0 49 18q17 19 22 19q10 0 18 -17q7 -15 7 -32q0 -64 -47 -99t-111 -35q-45 0 -144 35t-165 35q-46 0 -72 -22z" />
    <glyph glyph-name="Umacron" unicode="&#x16a;" horiz-adv-x="1689" 
d="M106 1806q0 92 -18 148q-18 54 -68 94h611q60 0 95 -56q36 -57 36 -122q0 -125 -57 -248q-55 -118 -139 -221q-83 -102 -163 -196q-81 -95 -139 -209q-57 -111 -57 -222q0 -122 77 -207q75 -82 179 -116q102 -33 217 -33q161 0 265 101q106 103 106 282v1005
q0 89 -19 148q-18 55 -67 94h704q-49 -39 -67 -94q-19 -59 -19 -148v-1050q0 -182 -49 -323q-50 -143 -125 -227t-178 -140q-100 -54 -197 -76q-94 -21 -192 -21q-99 0 -193 21t-194 76t-176 140t-124 227q-49 145 -49 323v1050zM535 2191v99q0 22 22 22h526q23 0 23 -22
v-99q0 -22 -23 -22h-526q-22 0 -22 22z" />
    <glyph glyph-name="umacron" unicode="&#x16b;" 
d="M10 1434h686q-71 -71 -71 -242v-666q0 -182 116 -182q181 0 181 291v557q0 170 -72 242h686q-72 -72 -72 -242v-950q0 -170 72 -242h-502q-64 0 -88 43q-24 44 -24 127v35q0 49 -15 49q-23 0 -47 -30q-2 -3 -57 -70q-37 -45 -76 -83q-43 -42 -120 -72t-173 -30
q-350 0 -350 482l-2 391v350q0 170 -72 242zM481 1675q0 23 23 23h526q23 0 23 -23v-98q0 -23 -23 -23h-526q-23 0 -23 23v98z" />
    <glyph glyph-name="Ubreve" unicode="&#x16c;" horiz-adv-x="1689" 
d="M106 1806q0 92 -18 148q-18 54 -68 94h611q60 0 95 -56q36 -57 36 -122q0 -125 -57 -248q-55 -118 -139 -221q-83 -102 -163 -196q-81 -95 -139 -209q-57 -111 -57 -222q0 -122 77 -207q75 -82 179 -116q102 -33 217 -33q161 0 265 101q106 103 106 282v1005
q0 89 -19 148q-18 55 -67 94h704q-49 -39 -67 -94q-19 -59 -19 -148v-1050q0 -182 -49 -323q-50 -143 -125 -227t-178 -140q-100 -54 -197 -76q-94 -21 -192 -21q-99 0 -193 21t-194 76t-176 140t-124 227q-49 145 -49 323v1050zM514 2394q0 62 23 62q9 0 14 -7q3 -4 8 -17
q5 -12 21 -30q18 -19 43 -39q67 -49 196 -49q130 0 197 49q25 20 43 39q15 16 20 30q4 10 9 17t14 7q22 0 22 -62q0 -99 -88 -162t-217 -63t-217 63t-88 162z" />
    <glyph glyph-name="ubreve" unicode="&#x16d;" 
d="M10 1434h686q-71 -71 -71 -242v-666q0 -182 116 -182q181 0 181 291v557q0 170 -72 242h686q-72 -72 -72 -242v-950q0 -170 72 -242h-502q-64 0 -88 43q-24 44 -24 127v35q0 49 -15 49q-23 0 -47 -30q-2 -3 -57 -70q-37 -45 -76 -83q-43 -42 -120 -72t-173 -30
q-350 0 -350 482l-2 391v350q0 170 -72 242zM766 1554q-127 0 -217 64q-88 63 -88 162q0 61 22 61q11 0 15 -6q3 -4 8 -17q5 -14 20 -30q18 -19 43 -39q67 -49 197 -49t197 49q25 20 43 39q15 16 20 30q5 13 8 17q4 6 15 6q22 0 22 -61q0 -99 -88 -162q-90 -64 -217 -64z
" />
    <glyph glyph-name="Uring" unicode="&#x16e;" horiz-adv-x="1689" 
d="M106 1806q0 92 -18 148q-18 54 -68 94h611q60 0 95 -56q36 -57 36 -122q0 -125 -57 -248q-55 -118 -139 -221q-83 -102 -163 -196q-81 -95 -139 -209q-57 -111 -57 -222q0 -122 77 -207q75 -82 179 -116q102 -33 217 -33q161 0 265 101q106 103 106 282v1005
q0 89 -19 148q-18 55 -67 94h704q-49 -39 -67 -94q-19 -59 -19 -148v-1050q0 -182 -49 -323q-50 -143 -125 -227t-178 -140q-100 -54 -197 -76q-94 -21 -192 -21q-99 0 -193 21t-194 76t-176 140t-124 227q-49 145 -49 323v1050zM819 2079q-95 0 -160 65t-65 160t65 160
t160 65t160 -65t65 -160t-65 -160t-160 -65zM637 2304q0 -76 53 -129t129 -53q75 0 128 53q52 52 52 129t-52 129q-53 53 -128 53q-76 0 -129 -53t-53 -129z" />
    <glyph glyph-name="uring" unicode="&#x16f;" 
d="M10 1434h686q-71 -71 -71 -242v-666q0 -182 116 -182q181 0 181 291v557q0 170 -72 242h686q-72 -72 -72 -242v-950q0 -170 72 -242h-502q-64 0 -88 43q-24 44 -24 127v35q0 49 -15 49q-23 0 -47 -30q-2 -3 -57 -70q-37 -45 -76 -83q-43 -42 -120 -72t-173 -30
q-350 0 -350 482l-2 391v350q0 170 -72 242zM541 1690q0 94 65 159q66 66 160 66t160 -66q65 -65 65 -159q0 -95 -65 -160q-66 -66 -160 -66t-160 66q-65 65 -65 160zM766 1872q-76 0 -129 -53t-53 -129t53 -129q54 -54 129 -54q74 0 128 54q52 52 52 129t-52 129
q-53 53 -128 53z" />
    <glyph glyph-name="Uhungarumlaut" unicode="&#x170;" horiz-adv-x="1689" 
d="M106 1806q0 92 -18 148q-18 54 -68 94h611q60 0 95 -56q36 -57 36 -122q0 -125 -57 -248q-55 -118 -139 -221q-83 -102 -163 -196q-81 -95 -139 -209q-57 -111 -57 -222q0 -122 77 -207q75 -82 179 -116q102 -33 217 -33q161 0 265 101q106 103 106 282v1005
q0 89 -19 148q-18 55 -67 94h704q-49 -39 -67 -94q-19 -59 -19 -148v-1050q0 -182 -49 -323q-50 -143 -125 -227t-178 -140q-100 -54 -197 -76q-94 -21 -192 -21q-99 0 -193 21t-194 76t-176 140t-124 227q-49 145 -49 323v1050zM858 2169q-61 0 -61 24q0 7 9 12q16 8 30 13
q18 6 36 23q43 35 63 88q24 63 32 92q10 37 28 37q26 0 66 -17q39 -17 39 -33q0 -72 -70 -156q-69 -83 -172 -83zM600 2169q-61 0 -61 24q0 7 9 12q16 8 30 13q18 6 36 23q43 35 63 88q24 63 32 92q10 37 28 37q26 0 66 -17q39 -17 39 -33q0 -72 -70 -156q-69 -83 -172 -83z
" />
    <glyph glyph-name="uhungarumlaut" unicode="&#x171;" 
d="M82 1192q0 170 -72 242h686q-71 -71 -71 -242v-666q0 -182 116 -182q181 0 181 291v557q0 170 -72 242h686q-72 -72 -72 -242v-950q0 -170 72 -242h-502q-64 0 -88 43q-24 44 -24 127v35q0 49 -15 49q-23 0 -47 -30q-2 -3 -57 -70q-37 -45 -76 -83q-43 -42 -120 -72
t-173 -30q-350 0 -350 482l-2 391v350zM805 1554q-62 0 -62 25q0 6 10 11q26 13 29 14q21 8 37 22q43 35 63 88t31 92q10 37 29 37q28 0 66 -16q39 -17 39 -33q0 -73 -70 -157q-69 -83 -172 -83zM485 1579q0 6 10 11q26 13 29 14q21 8 37 22q43 35 63 88t31 92q10 37 29 37
q28 0 66 -16t38 -33q0 -74 -69 -157t-172 -83q-62 0 -62 25z" />
    <glyph glyph-name="Uogonek" unicode="&#x172;" horiz-adv-x="1689" 
d="M106 1806q0 92 -18 148q-18 54 -68 94h611q60 0 95 -56q36 -57 36 -122q0 -125 -57 -248q-55 -118 -139 -221q-83 -102 -163 -196q-81 -95 -139 -209q-57 -111 -57 -222q0 -122 77 -207q75 -82 179 -116q102 -33 217 -33q161 0 265 101q106 103 106 282v1005
q0 89 -19 148q-18 55 -67 94h704q-49 -39 -67 -94q-19 -59 -19 -148v-1050q0 -176 -47 -319q-45 -138 -122 -225q-72 -82 -174 -141q-99 -57 -192 -78q-100 -23 -192 -24q-63 -105 -63 -192q0 -154 98 -154q42 0 62 21q21 22 26 41q6 20 18 20q31 0 31 -49q0 -48 -41 -83
q-40 -34 -94 -34q-166 0 -166 209q0 119 70 221q-97 6 -187 30q-91 24 -183 82q-97 61 -163 143q-70 87 -113 222q-45 141 -45 310v1050z" />
    <glyph glyph-name="uogonek" unicode="&#x173;" 
d="M82 1192q0 170 -72 242h686q-71 -71 -71 -242v-666q0 -182 116 -182q181 0 181 291v557q0 170 -72 242h686q-72 -72 -72 -242v-950q0 -170 72 -242h-266q-43 -70 -43 -71q-13 -24 -26 -64q-13 -42 -13 -88q0 -154 98 -154q44 0 63 21t25 41t19 20q30 0 30 -49
q0 -48 -41 -83q-40 -34 -94 -34q-166 0 -166 209q0 151 95 252h-183q-64 0 -88 43q-24 44 -24 127v35q0 49 -15 49q-23 0 -47 -30q-2 -3 -57 -70q-37 -45 -76 -83q-43 -42 -120 -72t-173 -30q-350 0 -350 482l-2 391v350z" />
    <glyph glyph-name="Wcircumflex" unicode="&#x174;" horiz-adv-x="2922" 
d="M0 2048h846q-74 -85 -74 -223q0 -118 55 -447q55 -328 152 -654q96 -323 184 -323q76 0 122 121q46 120 58 290q13 185 9 336q-5 169 -25 273q-40 146 -65 230q-38 119 -54 171q-17 55 -52 123q-36 70 -75 103h846q-74 -85 -74 -223q0 -113 56 -447q56 -335 151 -654
q96 -323 185 -323q141 0 141 318q0 138 -48 297t-105 279q-53 112 -104 269q-48 148 -48 267q0 88 34 152q35 65 115 65h692q-38 -32 -74 -103q-35 -68 -52 -123q-16 -52 -54 -171q-115 -381 -181 -680q-69 -313 -151 -764q-24 -139 46 -207h-908q69 68 45 207
q-78 434 -131 680q-57 -247 -133 -680q-24 -139 45 -207h-907q69 68 45 207q-82 451 -151 764q-66 299 -181 680q-15 46 -32.5 104t-20.5 67q-17 55 -52 123q-36 70 -75 103zM1237 2169q-22 0 -42 41q-18 38 -20 77q-1 36 17 42q1 0 3 -0.5t4 -1.5t5.5 -2t7.5 -2
q18 -5 33 -5q40 0 118 58q76 57 110 57q33 0 109 -57q78 -58 118 -58q15 0 33 5q4 1 7.5 2t5.5 2t4 1.5t3 0.5q18 -6 17 -42q-2 -39 -20 -77q-20 -41 -42 -41q-43 0 -85 52q-40 50 -80 106q-38 53 -70 53q-33 0 -71 -53q-40 -56 -80 -106q-42 -52 -85 -52z" />
    <glyph glyph-name="wcircumflex" unicode="&#x175;" horiz-adv-x="2508" 
d="M0 1434h717q-23 -52 -21 -129q1 -70 13 -125q11 -50 39 -156q3 -11 16 -64t24 -95q27 -104 47 -175q18 -63 45 -162q25 -90 48 -157q21 -61 46 -119q25 -59 48 -88t43 -29q55 0 115 172q59 169 34 295h3q-16 59 -59 200q-16 51 -39 129.5t-27 92.5q-4 9 -16 53
q-4 16 -9 35t-6 23q-1 3 -3 11t-5 18.5t-7 21.5q-9 29 -18 53q-14 39 -17 46q-11 28 -21 46q-15 27 -21 38q-11 20 -25 37q-16 20 -26 28h716q-22 -50 -20 -129q1 -75 12 -125q10 -50 39 -156q35 -134 41 -159q35 -138 46 -175q18 -63 45 -162q25 -90 48 -157
q21 -61 46 -119q25 -59 48 -88t43 -29q54 0 101 148q47 149 47 319q0 119 -28 217q-27 95 -68 145q-40 48 -89 87q-42 32 -90 54q-45 20 -68 38q-28 22 -28 43q0 95 157 187q155 91 318 91q114 0 168 -75q56 -77 56 -187q0 -71 -34 -200q-35 -133 -73 -245
q-68 -200 -109 -320q-86 -248 -108 -314q-15 -45 -33 -72q-17 -26 -43 -37q-24 -10 -39 -12q-20 -2 -45 -2h-448q-87 0 -141 88q-53 87 -97 238q-37 -100 -71 -203q-15 -45 -33 -72q-17 -26 -43 -37q-24 -10 -39 -12q-20 -2 -45 -2h-449q-55 0 -99 38t-77 115t-51 135
q-24 76 -43 158q-2 13 -3 14q-1 3 -3 13q-1 3 -2.5 8t-1.5 6q-31 121 -154 537l-20 70q-16 53 -22 72q-1 5 -5 16.5t-7.5 23.5t-7.5 24q-11 34 -24 63q-14 32 -25 54q-16 31 -29 50q-12 17 -34 37zM1075 1554q-22 0 -42 41q-18 38 -20 77q-1 36 17 42q1 0 21 -5t32 -5
q41 0 118 57q78 58 110 58q31 0 109 -58q76 -57 118 -57q13 0 33 5l20 5q19 -6 18 -42q-2 -37 -21 -77q-20 -41 -42 -41q-43 0 -85 53q-47 58 -80 105q-38 53 -70 53q-33 0 -71 -53q-33 -47 -80 -105q-42 -53 -85 -53z" />
    <glyph glyph-name="Ycircumflex" unicode="&#x176;" horiz-adv-x="1679" 
d="M0 2048h551q135 0 201 -105q65 -103 65 -247q0 -88 -30 -174q-33 -93 -65 -147q-36 -59 -66 -146q-29 -83 -29 -172q0 -85 65 -146t185 -59q94 0 160 33q67 34 97 87q30 54 42 104t12 108q0 89 -47 201q-45 107 -105 199t-104 185q-47 100 -47 162q0 49 33 83t81 34h478
q161 0 161 -301q0 -171 -64 -333q-63 -159 -157 -284q-78 -104 -184 -227q-95 -110 -157 -203q-64 -95 -64 -168q0 -105 31 -188t69 -127q42 -49 69 -86q31 -43 31 -74q0 -57 -106 -57h-498q-61 0 -94 60t-33 137q0 74 48 143q49 71 117 121q79 59 137 95q67 42 117 86
q48 42 48 75q0 31 -26 31q-13 0 -80 -26t-152 -26q-110 0 -189 40q-78 40 -122 113q-42 70 -64 146q-19 65 -30 168l-1 10q-1 10 -3.5 33t-4.5 49q-7 84 -11 110q-1 7 -13 104q-10 82 -20 117q-6 21 -25 104q-16 69 -35 109q-17 35 -44 91q-26 52 -57 90q-32 38 -71 68z
M592 2169q-22 0 -42 41q-19 40 -21 77q-1 36 18 42l3 -1q2 -1 7 -2.5t10 -2.5q20 -5 33 -5q40 0 118 58q76 57 109 57t110 -57q78 -58 118 -58q12 0 32 5q5 1 10 2.5t8 2.5l3 1q18 -6 17 -42q-2 -39 -20 -77q-20 -41 -42 -41q-43 0 -85 52q-40 50 -80 106q-38 53 -71 53
q-32 0 -70 -53q-40 -56 -80 -106q-42 -52 -85 -52z" />
    <glyph glyph-name="ycircumflex" unicode="&#x177;" horiz-adv-x="1591" 
d="M174 1024l-20 70q-16 53 -22 72q-1 5 -5 16.5t-7.5 23.5t-7.5 24q-11 34 -24 63q-14 32 -25 54q-16 31 -29 50q-12 17 -34 37h717q-23 -52 -21 -129q1 -70 13 -125q11 -50 39 -156q3 -11 16 -64t24 -95q27 -104 47 -175q18 -63 45 -162q25 -90 48 -157q21 -61 46 -119
q25 -59 48 -88t43 -29q53 0 100 148q47 149 47 319q0 122 -27 217q-27 93 -69 145q-40 48 -89 87q-43 34 -89 54q-47 21 -69 38q-27 21 -27 43q0 96 156 187q155 91 319 91q114 0 168 -75q55 -76 55 -187q0 -79 -42 -238q-40 -153 -89 -294q-28 -81 -134 -381
q-13 -36 -124 -352l-18 -43q-112 -274 -185 -371q-124 -168 -323 -168q-94 0 -193 39q-98 39 -98 82q0 25 53 190q17 54 26 78q21 56 23 61q16 40 29 53q15 15 29 15q23 0 110 -40t168 -40q125 0 196 59q70 58 70 105q0 43 -77 43h-353q-34 0 -64 15q-29 15 -54 47
q-14 18 -40 64q-15 26 -35 85q-14 40 -28 89t-26 97q-9 36 -23 90q-21 76 -82 272q-12 40 -30.5 98t-30.5 97.5t-21 69.5zM590 1554q-22 0 -42 41q-19 40 -21 77q-1 36 18 42q2 0 20 -5t33 -5q42 0 118 57q78 58 109 58q32 0 110 -58q76 -57 118 -57q14 0 32 5t21 5
q18 -6 17 -42q-2 -39 -20 -77q-20 -41 -42 -41q-43 0 -85 53q-47 58 -80 105q-38 53 -71 53q-32 0 -70 -53q-33 -47 -80 -105q-42 -53 -85 -53z" />
    <glyph glyph-name="Ydieresis" unicode="&#x178;" horiz-adv-x="1679" 
d="M0 2048h551q135 0 201 -105q65 -103 65 -247q0 -88 -30 -174q-33 -93 -65 -147q-36 -59 -66 -146q-29 -83 -29 -172q0 -85 65 -146t185 -59q94 0 160 33q67 34 97 87q30 54 42 104t12 108q0 89 -47 201q-45 107 -105 199t-104 185q-47 100 -47 162q0 49 33 83t81 34h478
q161 0 161 -301q0 -171 -64 -333q-63 -159 -157 -284q-78 -104 -184 -227q-95 -110 -157 -203q-64 -95 -64 -168q0 -105 31 -188t69 -127q42 -49 69 -86q31 -43 31 -74q0 -57 -106 -57h-498q-61 0 -94 60t-33 137q0 74 48 143q49 71 117 121q79 59 137 95q67 42 117 86
q48 42 48 75q0 31 -26 31q-13 0 -80 -26t-152 -26q-110 0 -189 40q-78 40 -122 113q-42 70 -64 146q-19 65 -30 168l-1 10q-1 10 -3.5 33t-4.5 49q-7 84 -11 110q-1 7 -13 104q-10 82 -20 117q-6 21 -25 104q-16 69 -35 109q-17 35 -44 91q-26 52 -57 90q-32 38 -71 68z
M639 2169q-59 0 -102 43t-43 104q0 60 43 103t102 43q61 0 103 -43t42 -103t-42 -104q-42 -43 -103 -43zM1020 2169q-62 0 -105 43t-43 104q0 60 43 103t105 43q59 0 102 -43t43 -103q0 -61 -43 -104t-102 -43z" />
    </font>
</defs>
</svg>
